<svg width="13" height="25" viewBox="0 0 13 25" fill="none" xmlns="http://www.w3.org/2000/svg">
<path d="M12.5478 17.2226C12.5999 17.3978 12.6092 17.5829 12.5751 17.7625C12.5409 17.9421 12.4644 18.1109 12.3517 18.2548C12.2439 18.3947 12.1043 18.5069 11.9446 18.5823C11.7849 18.6577 11.6095 18.6941 11.433 18.6884H8.71814V23.7258C8.72056 23.8778 8.69158 24.0288 8.63296 24.1691C8.57435 24.3094 8.4874 24.4361 8.37754 24.5413C8.27278 24.6516 8.14611 24.739 8.00569 24.7976C7.86528 24.8563 7.71416 24.885 7.56202 24.8819H6.01363C5.70605 24.8819 5.41096 24.7604 5.1925 24.5439C4.97404 24.3274 4.8499 24.0333 4.84718 23.7258V18.6884H2.14266C1.96589 18.6958 1.78995 18.6602 1.62994 18.5847C1.46993 18.5092 1.33067 18.396 1.224 18.2548C1.11135 18.1109 1.03471 17.9421 1.00059 17.7625C0.966472 17.5829 0.975856 17.3978 1.02787 17.2226L3.35045 7.93224C3.40389 7.67785 3.55131 7.453 3.76332 7.30258C3.96491 7.14857 4.21156 7.06514 4.46525 7.06515H4.99171C5.55619 7.3207 6.1682 7.45436 6.78783 7.45741C7.40414 7.45447 8.01286 7.32076 8.57368 7.06515H9.11041C9.36385 7.06664 9.61003 7.14992 9.81233 7.30258C10.0147 7.46211 10.1596 7.68311 10.2253 7.93224L12.5478 17.2226ZM6.78783 0.0974091C6.07161 0.10155 5.37901 0.35383 4.8279 0.811276C4.27678 1.26872 3.90124 1.90306 3.76527 2.60626C3.62931 3.30947 3.74131 4.03806 4.08218 4.66797C4.42305 5.29789 4.97174 5.79017 5.63479 6.06099C6.29784 6.33182 7.03425 6.36443 7.71865 6.15329C8.40305 5.94215 8.99309 5.50029 9.38832 4.90298C9.78355 4.30567 9.95956 3.58984 9.8863 2.87737C9.81304 2.1649 9.49505 1.49985 8.98654 0.995469C8.70071 0.703694 8.35818 0.473503 7.98005 0.319057C7.60192 0.164611 7.1962 0.0891824 6.78783 0.0974091Z" fill="#EC008C"/>
</svg>
