<svg width="10" height="25" viewBox="0 0 10 25" fill="none" xmlns="http://www.w3.org/2000/svg">
<path d="M7.31163 7.06515C7.92762 7.06515 8.51839 7.30984 8.95396 7.74541C9.38953 8.18097 9.63421 8.77174 9.63421 9.38773V15.9735C9.63663 16.1256 9.60765 16.2765 9.54903 16.4168C9.49042 16.5572 9.40347 16.6838 9.29361 16.789C9.18651 16.8992 9.05799 16.9862 8.91597 17.0448C8.77394 17.1034 8.62137 17.1323 8.46776 17.1297H7.69356V23.7155C7.69598 23.8675 7.667 24.0184 7.60838 24.1588C7.54976 24.2991 7.46282 24.4258 7.35296 24.5309C7.24819 24.6413 7.12153 24.7286 6.98111 24.7873C6.8407 24.8459 6.68958 24.8746 6.53744 24.8716H3.44066C3.13308 24.8716 2.83799 24.7501 2.61953 24.5336C2.40107 24.3171 2.27693 24.023 2.27421 23.7155V17.1297H1.50001C1.34787 17.1327 1.19682 17.104 1.0564 17.0453C0.915987 16.9867 0.789321 16.8994 0.684552 16.789C0.574691 16.6838 0.487751 16.5572 0.429134 16.4168C0.370518 16.2765 0.341471 16.1256 0.34389 15.9735V9.38773C0.342523 9.08234 0.40167 8.7797 0.517907 8.4973C0.634143 8.21489 0.805176 7.95833 1.02112 7.74238C1.23706 7.52644 1.49363 7.3554 1.77603 7.23917C2.05844 7.12293 2.36108 7.06378 2.66647 7.06515H3.19293C3.75741 7.3207 4.36943 7.45436 4.98905 7.45741C5.60537 7.45446 6.21408 7.32076 6.7749 7.06515H7.31163ZM4.98905 0.0974091C4.27284 0.10155 3.58024 0.35383 3.02912 0.811276C2.47801 1.26872 2.10246 1.90306 1.9665 2.60626C1.83053 3.30947 1.94253 4.03806 2.28341 4.66797C2.62428 5.29789 3.17296 5.79017 3.83601 6.06099C4.49907 6.33182 5.23547 6.36443 5.91987 6.15329C6.60427 5.94215 7.19431 5.50029 7.58954 4.90298C7.98477 4.30567 8.16079 3.58984 8.08753 2.87737C8.01427 2.1649 7.69628 1.49985 7.18777 0.995469C6.90193 0.703694 6.5594 0.473503 6.18128 0.319057C5.80315 0.164611 5.39742 0.0891824 4.98905 0.0974091Z" fill="#0040ED"/>
</svg>
