<svg width="24" height="24" viewBox="0 0 24 24" fill="none" xmlns="http://www.w3.org/2000/svg">
<path d="M6.375 15.4688C5.98636 15.4688 5.67188 15.7832 5.67188 16.1719V23.2969C5.67188 23.6855 5.98636 24 6.375 24C6.76364 24 7.07812 23.6855 7.07812 23.2969V16.1719C7.07812 15.7832 6.76364 15.4688 6.375 15.4688Z" fill="#FD697F"/>
<path d="M7.07812 23.2969V16.1719C7.07812 15.7832 6.76364 15.4688 6.375 15.4688V24C6.76364 24 7.07812 23.6855 7.07812 23.2969Z" fill="#FC445F"/>
<path d="M23.7942 0.205828C23.667 0.0786094 23.4913 0 23.2969 0H19.0782C18.6895 0 18.375 0.314484 18.375 0.703125C18.375 1.09177 18.6895 1.40625 19.0782 1.40625H21.5995L16.9338 6.072C16.6591 6.34664 16.6591 6.79162 16.9338 7.06627C17.2084 7.34091 17.6534 7.34091 17.928 7.06627L22.5938 2.40052V4.92188C22.5938 5.31052 22.9083 5.625 23.2969 5.625C23.6856 5.625 24 5.31052 24 4.92188V0.703125C24 0.508781 23.9214 0.333 23.7942 0.205828V0.205828Z" fill="#B7E4F8"/>
<path d="M17.9281 7.06649L22.5939 2.40074V4.9221C22.5939 5.31074 22.9083 5.62523 23.297 5.62523C23.6856 5.62523 24.0001 5.31074 24.0001 4.9221V0.703352C24.0001 0.509008 23.9215 0.333227 23.7943 0.206055L16.9338 7.06649C17.2085 7.34113 17.6534 7.34113 17.9281 7.06649Z" fill="#6FC8F1"/>
<path d="M17.9257 6.07425C16.7799 4.92839 15.1979 4.21875 13.4531 4.21875C9.89306 4.21875 7.125 7.1625 7.125 10.5469C7.125 12.1988 7.77577 13.6921 8.81602 14.8202L8.91797 15.082L9.12825 15.622L9.9375 15.8038C10.944 16.479 12.1527 16.875 13.4531 16.875C16.9426 16.875 19.7812 14.0364 19.7812 10.5469C19.7812 8.80209 19.0716 7.22006 17.9257 6.07425ZM13.4531 15.4688C12.5798 15.4688 11.7707 15.2209 11.059 14.8202L10.5397 14.0096L10.0157 13.9844L9.9375 13.9805C9.07036 13.0928 8.53125 11.8827 8.53125 10.5469C8.53125 7.67653 10.9625 5.625 13.4531 5.625C14.8099 5.625 16.0404 6.17705 16.9317 7.06833C17.823 7.95961 18.375 9.19008 18.375 10.5469C18.375 13.2605 16.1668 15.4688 13.4531 15.4688Z" fill="#B7E4F8"/>
<path d="M9.93745 15.8037C10.9439 16.479 12.1527 16.875 13.4531 16.875C16.9426 16.875 19.7812 14.0364 19.7812 10.5468C19.7812 8.80206 19.0716 7.22003 17.9257 6.07422L16.9316 7.0683C17.8229 7.95958 18.375 9.19005 18.375 10.5468C18.375 13.2605 16.1667 15.4687 13.4531 15.4687C12.5797 15.4687 11.7707 15.2208 11.0589 14.8202L10.5397 14.0095L10.0156 13.9843L8.91797 15.082L9.12825 15.6219L9.93745 15.8037Z" fill="#6FC8F1"/>
<path d="M9.1875 19.7344H6.375H3.5625C3.17386 19.7344 2.85938 20.0489 2.85938 20.4375C2.85938 20.8261 3.17386 21.1406 3.5625 21.1406H6.375H9.1875C9.57614 21.1406 9.89062 20.8261 9.89062 20.4375C9.89062 20.0489 9.57614 19.7344 9.1875 19.7344Z" fill="#FD697F"/>
<path d="M9.89062 20.4375C9.89062 20.0489 9.57614 19.7344 9.1875 19.7344H6.375V21.1406H9.1875C9.57614 21.1406 9.89062 20.8261 9.89062 20.4375Z" fill="#FC445F"/>
<path d="M6.375 4.21875C2.88548 4.21875 0 7.05736 0 10.5469C0 14.0364 2.88548 16.875 6.375 16.875C7.67541 16.875 8.93105 16.479 9.9375 15.8038C9.52191 15.5249 9.15422 15.1871 8.81602 14.8202C8.10427 15.2209 7.24833 15.4688 6.375 15.4688C3.66136 15.4688 1.40625 13.2605 1.40625 10.5469C1.40625 7.83323 3.66136 5.625 6.375 5.625C9.02897 5.625 11.3438 7.80159 11.3438 10.5469C11.3438 11.8828 10.8046 13.0928 9.9375 13.9805C10.2649 14.3158 10.6478 14.5888 11.059 14.8202C12.0992 13.6921 12.75 12.1988 12.75 10.5469C12.75 7.14558 9.91964 4.21875 6.375 4.21875Z" fill="#FD697F"/>
<path d="M8.81602 14.8203C8.10427 15.221 7.24833 15.4688 6.375 15.4688V16.8751C7.67541 16.8751 8.93105 16.4791 9.9375 15.8038C9.52191 15.525 9.15422 15.1871 8.81602 14.8203V14.8203Z" fill="#FC445F"/>
<path d="M11.3438 10.5469C11.3438 11.8828 10.8046 13.0928 9.9375 13.9805C10.2649 14.3158 10.6478 14.5888 11.059 14.8202C12.0992 13.6921 12.75 12.1988 12.75 10.5469C12.75 7.14558 9.91964 4.21875 6.375 4.21875V5.625C9.02897 5.625 11.3438 7.80159 11.3438 10.5469Z" fill="#FC445F"/>
</svg>
