<svg width="71" height="61" viewBox="0 0 71 61" fill="none" xmlns="http://www.w3.org/2000/svg">
<g clip-path="url(#clip0_6204_16033)">
<path d="M28.7334 25.0662C36.1951 25.0662 43.6568 25.0662 51.1185 25.0662C52.4653 25.0662 53.5685 25.4891 54.5137 26.5025C56.0786 28.179 57.7144 29.796 59.3102 31.4483C59.8177 31.9793 60.4442 32.3752 61.135 32.6014C63.1725 33.2814 65.1882 34.0396 67.2438 34.6617C68.8178 35.1386 70.0192 35.9657 70.5609 37.6069V40.5502C70.3264 41.0681 70.2083 41.6307 69.8793 42.1187C69.2995 42.9775 68.7888 43.8791 68.2308 44.7584C67.491 45.9376 66.4605 46.5672 65.0664 46.5616C61.6385 46.5504 58.21 46.5504 54.7808 46.5616C54.2702 46.5466 53.7622 46.6411 53.2893 46.839C52.8163 47.037 52.389 47.334 52.0345 47.711C50.5169 49.3149 48.9556 50.8778 47.4197 52.4594C47.0566 52.8582 46.6157 53.1744 46.1257 53.3875C45.6357 53.6006 45.1075 53.7058 44.5753 53.6963C36.3102 53.6727 28.0458 53.6727 19.782 53.6963C19.2734 53.706 18.7683 53.6072 18.299 53.4061C17.8296 53.2051 17.4062 52.9061 17.0556 52.5283C15.3714 50.8021 13.6865 49.074 12.001 47.344C11.5066 46.8318 10.8995 46.4485 10.2307 46.2263C8.14417 45.5203 6.08124 44.736 3.97288 44.1045C2.38615 43.6332 1.27926 42.7577 0.797607 41.124V38.5849C1.2629 37.0648 2.34435 36.2396 3.73478 35.6528C5.92857 34.7214 8.08237 33.6931 10.2562 32.7151C10.9415 32.4055 11.5619 31.9626 12.0828 31.4111C13.7186 29.7029 15.398 28.0356 17.0284 26.3199C17.4125 25.9084 17.8766 25.5842 18.3907 25.3682C18.9048 25.1523 19.4574 25.0494 20.0128 25.0662H25.1856C25.1856 27.1315 25.1904 29.198 25.2001 31.2658C25.2001 32.1469 25.4728 32.4152 26.3452 32.4226C26.7541 32.4226 27.1613 32.4226 27.5684 32.4226C28.4772 32.404 28.7207 32.1432 28.7244 31.1969C28.7268 29.1527 28.7298 27.1092 28.7334 25.0662Z" fill="#91D63A"/>
<path d="M70.5625 48.5006C69.9991 50.0281 68.9158 51.2036 67.9652 52.4628C67.2691 53.3831 66.2695 53.7165 65.1335 53.7109C61.7965 53.696 58.4576 53.724 55.1206 53.696C53.7683 53.6849 52.6669 54.1189 51.7236 55.1398C50.304 56.6766 48.7991 58.1333 47.3614 59.646C46.9856 60.0518 46.5311 60.3725 46.0272 60.5874C45.5232 60.8024 44.9809 60.9068 44.4352 60.8941C36.2828 60.8941 28.1317 60.8941 19.9818 60.8941C19.425 60.9071 18.8719 60.7996 18.3585 60.5784C17.8452 60.3572 17.3832 60.0274 17.0028 59.6106C15.367 57.8949 13.6966 56.2202 12.0499 54.5176C11.5388 53.9866 10.9094 53.5909 10.216 53.3645C8.12583 52.664 6.05927 51.8891 3.95272 51.2464C2.366 50.7658 1.2482 49.8828 0.791992 48.2211V41.0976C1.27364 42.7388 2.38054 43.6143 3.96726 44.0782C6.07563 44.706 8.14764 45.4939 10.2251 46.2C10.8939 46.4222 11.5009 46.8054 11.9954 47.3177C13.6773 49.0563 15.3621 50.7844 17.05 52.502C17.4006 52.8798 17.824 53.1787 18.2934 53.3798C18.7627 53.5809 19.2677 53.6797 19.7764 53.67C28.0414 53.6476 36.3058 53.6476 44.5697 53.67C45.1019 53.6794 45.6301 53.5742 46.1201 53.3612C46.6101 53.1481 47.051 52.8319 47.4141 52.433C48.95 50.8478 50.504 49.2886 52.0289 47.6846C52.3833 47.3076 52.8107 47.0106 53.2836 46.8127C53.7566 46.6148 54.2646 46.5203 54.7752 46.5353C58.2032 46.5204 61.6317 46.5204 65.0608 46.5353C66.4549 46.5353 67.4854 45.9112 68.2252 44.732C68.7704 43.8528 69.2939 42.9512 69.8737 42.0924C70.2027 41.6043 70.3208 41.0417 70.5553 40.5239L70.5625 48.5006Z" fill="#5AC36A"/>
<path d="M28.4714 1.05809C30.7179 -0.12668 33.0371 -0.0689318 35.4127 0.57375C38.368 1.37291 41.2598 2.41238 44.2606 3.04016C45.7916 3.3605 47.3428 3.56966 48.9026 3.66607C51.4072 3.82255 53.501 2.83711 55.3931 1.26859C55.6584 1.04878 55.902 0.73768 56.2819 0.912788C56.6617 1.0879 56.6363 1.52008 56.6363 1.89078C56.6363 5.72824 56.6363 9.56571 56.6363 13.405C56.6467 13.7296 56.5898 14.0527 56.4691 14.353C56.3485 14.6533 56.1669 14.9239 55.9365 15.1468C54.0808 17.0096 51.8852 17.9671 49.2679 17.9411C45.6619 17.9131 42.2449 16.9128 38.8279 15.8919C37.3738 15.456 35.9198 15.0201 34.4367 14.6755C32.4628 14.2135 30.5689 14.3588 28.735 15.2455C28.7265 10.992 28.7192 6.73853 28.7132 2.48503C28.7314 1.99725 28.649 1.51102 28.4714 1.05809Z" fill="#F5061F"/>
<path d="M28.4712 1.05772C28.6498 1.5098 28.7334 1.99538 28.7166 2.4828C28.7166 6.73505 28.7238 10.9885 28.7384 15.2433V25.0605C28.7384 27.1034 28.7335 29.1469 28.7238 31.1911C28.7238 32.1374 28.4748 32.3982 27.5679 32.4169C27.1607 32.4169 26.7536 32.4169 26.3447 32.4169C25.4722 32.4169 25.2032 32.1412 25.1996 31.26C25.1911 29.1935 25.1863 27.127 25.1851 25.0605C25.1851 21.0591 25.1899 17.0577 25.1996 13.0563C25.1996 9.44984 25.1996 5.84337 25.2087 2.23876C25.2087 0.737309 26.421 -0.182936 27.646 0.3517C27.9707 0.518371 28.2532 0.760062 28.4712 1.05772Z" fill="#BB592C"/>
</g>
<defs>
<clipPath id="clip0_6204_16033">
<rect width="69.7705" height="60.7679" fill="white" transform="translate(0.791992 0.126465)"/>
</clipPath>
</defs>
</svg>
