<svg width="46" height="52" viewBox="0 0 46 52" fill="none" xmlns="http://www.w3.org/2000/svg">
<g clip-path="url(#clip0_6282_68336)">
<path d="M5.27161 51.3558C5.27161 48.8216 5.27161 46.2869 5.27161 43.7519C5.27161 43.5007 5.27161 43.2495 5.44035 43.0386C5.66492 42.7648 5.9745 42.6468 6.2955 42.7711C6.45496 42.8281 6.59104 42.9355 6.68275 43.0767C6.77446 43.2178 6.81672 43.3849 6.803 43.5522C6.79032 46.153 6.79412 48.755 6.79285 51.3558H5.27161Z" fill="#D4145A"/>
<path d="M0.81606 51.3554C0.29333 51.1318 0.138541 50.7049 0.138541 50.1825C0.162647 48.0966 0.0903278 46.0107 0.18041 43.9248C0.341543 40.1737 2.78391 36.7855 6.3466 35.5272C8.35632 34.8164 10.4193 34.2513 12.4582 33.6196C12.9962 34.2362 13.5329 34.8541 14.0734 35.4669C14.879 36.3824 15.7228 37.269 16.484 38.2146C17.3518 39.2833 18.2679 39.596 19.5963 39.1552C20.5064 38.8538 21.4157 38.5529 22.3241 38.2523C22.4992 38.1945 22.687 38.1644 22.8063 38.0011H22.9547C23.0122 38.0596 23.0785 38.1087 23.1514 38.1468C24.2159 38.506 25.2753 38.8789 26.3512 39.2004C26.7032 39.3104 27.076 39.3392 27.4411 39.2846C28.6223 39.1025 29.2503 38.2284 29.9646 37.4385C30.7005 36.6223 31.3526 35.7306 32.19 35.0073C32.2581 35.0501 32.3303 35.0858 32.4057 35.114C35.0359 35.8173 37.1002 37.2803 38.4958 39.6111C39.0705 40.5718 39.5248 41.5877 39.5958 42.7292C39.1796 42.8548 38.9716 43.1211 38.9741 43.5719C38.9843 46.1651 38.9817 48.7596 38.983 51.3579H6.79067C6.79067 48.7571 6.79067 46.1551 6.80082 43.5543C6.81453 43.387 6.77227 43.2199 6.68056 43.0788C6.58885 42.9376 6.45277 42.8302 6.29331 42.7732C5.97231 42.6476 5.65893 42.7669 5.43816 43.0407C5.26561 43.2504 5.26942 43.5016 5.26942 43.754C5.26942 46.2882 5.26942 48.8228 5.26942 51.3579L0.81606 51.3554ZM13.1231 43.1286C12.1613 43.1286 11.1996 43.1374 10.2379 43.1286C9.76084 43.1223 9.55149 43.3798 9.54134 43.8004C9.52231 44.5677 9.51978 45.3363 9.54134 46.1036C9.55784 46.6587 9.77226 46.847 10.3331 46.8483C12.188 46.8483 14.0433 46.8483 15.8991 46.8483C16.4307 46.8483 16.6172 46.6524 16.621 46.1149C16.6261 45.3614 16.6261 44.61 16.621 43.8607C16.621 43.2856 16.4574 43.1361 15.8598 43.1336C14.9399 43.1248 14.029 43.1286 13.118 43.1286H13.1231Z" fill="#FF4C4C"/>
<path d="M39.6035 42.7346C39.5325 41.5931 39.0783 40.5771 38.5035 39.6165C37.1079 37.2857 35.0461 35.8227 32.4134 35.1194C32.3381 35.0912 32.2658 35.0554 32.1978 35.0127C32.4807 34.4764 32.978 34.1085 33.3168 33.6162C35.4407 34.2316 37.5875 34.7916 39.6416 35.6029C43.354 37.0697 45.6225 40.5005 45.6517 44.5191C45.6644 46.3727 45.6441 48.225 45.6606 50.0773C45.6606 50.6148 45.5337 51.0556 45.0643 51.3582H40.5094C40.5094 48.8131 40.5094 46.2676 40.5094 43.7217C40.5082 43.031 40.2823 42.7886 39.6035 42.7346Z" fill="#EF2929"/>
<path d="M39.6036 42.7344C40.2824 42.7909 40.5083 43.0333 40.5095 43.7214C40.5095 46.2674 40.5095 48.8129 40.5095 51.358H38.987C38.987 48.7648 38.987 46.1703 38.9781 43.572C38.9794 43.1237 39.1875 42.86 39.6036 42.7344Z" fill="#D4145A"/>
<path d="M8.31567 14.5253C8.33724 12.9104 8.3309 11.2929 8.78512 9.71935C10.1617 4.96236 13.2613 1.90196 18.0281 0.480388C18.6502 0.274043 19.3005 0.163087 19.9566 0.151367C20.0296 0.187323 20.1061 0.215931 20.185 0.236762C21.9011 0.508225 23.5406 1.13328 24.9974 2.0715C27.2146 3.46894 28.9546 5.49572 29.99 7.88713C30.5591 9.1501 30.8943 10.504 30.9796 11.8844C30.684 11.5968 30.5469 11.2138 30.3909 10.8521C30.2526 10.5344 30.1092 10.557 29.8707 10.734C29.4038 11.0819 28.9229 11.4147 28.4484 11.7525C26.4336 12.997 24.3668 14.1385 22.1439 14.9887C19.4237 16.031 16.6362 16.6916 13.6927 16.5987C12.9314 16.5748 12.1905 16.4517 11.4394 16.3839C10.7657 16.1918 10.0818 16.0373 9.41823 15.805C8.80669 15.5915 8.19514 15.4144 8.33724 14.5693C8.33978 14.5555 8.32329 14.5391 8.31567 14.5253Z" fill="#FC9727"/>
<path d="M11.4393 16.3839C12.1904 16.4517 12.9339 16.5747 13.6927 16.5986C16.6362 16.6915 19.4237 16.031 22.1439 14.9887C24.3668 14.1372 26.4336 12.9969 28.4484 11.7524C28.6323 11.9132 28.5575 12.1292 28.5575 12.3188C28.5575 14.3545 28.5575 16.3901 28.5575 18.4258C28.5516 19.773 28.3315 21.1109 27.9053 22.3904C27.5691 23.4302 26.9741 24.3381 26.431 25.2787C25.9514 25.3641 25.4744 25.4771 24.9897 25.5299C23.674 25.6718 22.9978 26.8384 23.7311 28.0038C23.6167 28.0269 23.5055 28.0636 23.4 28.1131C22.4812 28.6996 21.4846 29.1569 20.4387 29.4719C20.4162 29.4745 20.3948 29.4825 20.3761 29.4951C20.3574 29.5077 20.3421 29.5246 20.3314 29.5443C20.3207 29.564 20.3149 29.5859 20.3146 29.6083C20.3143 29.6307 20.3194 29.6528 20.3296 29.6728C22.1436 30.0668 24.025 30.0406 25.8271 29.5962C26.3828 29.4706 26.8802 29.1567 27.4575 29.1064L27.446 29.9001C27.4702 30.2932 27.4625 30.6837 27.5209 31.0793C27.6249 31.7813 28.0906 32.2095 28.5752 32.6315C28.4623 32.7571 28.357 32.8826 28.2378 32.9957L22.961 38.0038H22.8125C22.6958 37.8845 22.5829 37.7614 22.4611 37.6459L17.1259 32.6064C18.2323 32.0199 18.349 31.0002 18.3313 29.9189C18.4581 29.2345 18.0978 28.9256 17.5028 28.6154C15.3923 27.527 13.6884 25.7995 12.6396 23.6851C12.212 22.8462 11.9722 21.9471 11.6601 21.0705C11.386 19.5183 11.4305 17.9498 11.4393 16.3839Z" fill="#FDD8A7"/>
<path d="M30.9793 11.8844C30.894 10.5041 30.5588 9.15014 29.9897 7.88716C28.9543 5.49575 27.2143 3.46897 24.9971 2.07153C23.5404 1.13332 21.9009 0.508257 20.1847 0.236795C20.1059 0.215964 20.0293 0.187355 19.9563 0.1514C20.2067 0.0577762 20.4746 0.0187946 20.7417 0.0371214C21.7871 0.0371214 22.8313 0.0371214 23.8755 0.0371214C27.4978 0.0572143 30.567 1.38586 33.1261 3.90249C34.9607 5.7096 36.081 7.91103 36.6418 10.395C36.9374 11.7036 36.8626 13.0422 36.8854 14.3709C36.8685 14.5521 36.8643 14.7342 36.8727 14.9159C36.9235 15.3416 36.7661 15.4182 36.3652 15.324C35.6814 15.1752 35.0116 14.9689 34.3631 14.7074C34.1804 14.6246 33.9914 14.5542 33.8175 14.4563C32.6655 13.8146 31.6035 13.0887 30.9793 11.8844Z" fill="#FE6D3A"/>
<path d="M11.6638 21.0705C11.9759 21.9495 12.2157 22.8462 12.6433 23.6851C13.6921 25.7995 15.396 27.5269 17.5065 28.6154C18.1015 28.9255 18.4555 29.2345 18.335 29.9189C17.2324 29.7644 16.1781 29.4166 15.0946 29.1654C13.9311 28.8979 12.7778 28.5877 11.6182 28.3052C9.5247 27.7941 8.44625 26.547 8.36251 24.4222C8.3181 23.2732 8.36251 22.1203 8.36251 20.9688C9.46126 21.181 10.5651 21.0366 11.6638 21.0705Z" fill="#FC9728"/>
<path d="M17.1294 32.6061L22.4684 37.6456C22.5953 37.7612 22.7031 37.8842 22.8198 38.0035C22.7006 38.1643 22.5128 38.1944 22.3377 38.2547C21.4284 38.5536 20.5191 38.8546 19.6099 39.1576C18.2815 39.5972 17.3654 39.2832 16.4976 38.217C15.7287 37.2714 14.8875 36.3848 14.0869 35.4693C13.5464 34.8565 13.0098 34.2386 12.4718 33.622C13.7266 33.2227 14.9789 32.8158 16.2375 32.4303C16.3892 32.3839 16.5502 32.3757 16.706 32.4064C16.8617 32.4371 17.0072 32.5057 17.1294 32.6061Z" fill="#D4145A"/>
<path d="M22.9651 38.0039L28.2419 32.9957C28.3611 32.8815 28.4664 32.7534 28.5794 32.6315C28.9816 32.3377 29.399 32.3502 29.8608 32.506C31.0027 32.894 32.1877 33.1791 33.3195 33.6136C32.9807 34.1059 32.4833 34.4738 32.2004 35.01C31.363 35.7334 30.7109 36.625 29.975 37.4413C29.2607 38.2312 28.6327 39.1052 27.4514 39.2873C27.0864 39.3419 26.7136 39.3132 26.3616 39.2032C25.2857 38.8817 24.2262 38.5087 23.1617 38.1496C23.0889 38.1115 23.0226 38.0623 22.9651 38.0039Z" fill="#D4145A"/>
<path d="M34.3534 14.7072C35.0018 14.9686 35.6716 15.1749 36.3555 15.3238C36.7615 15.4179 36.9188 15.3413 36.863 14.9156C36.8546 14.7339 36.8588 14.5518 36.8757 14.3706C37.7752 14.4962 38.2713 15.0186 38.2789 15.8977C38.2891 17.0279 38.2789 18.1669 38.2789 19.3009C38.2789 20.3985 37.9338 20.8317 36.8554 21.0929L36.2451 21.0791C35.7179 20.9333 35.1608 20.9311 34.6325 21.0728L34.2189 21.0553L34.1415 20.9887C34.1745 20.3759 34.3369 19.7794 34.3318 19.1577C34.3255 17.6746 34.3458 16.1903 34.3534 14.7072Z" fill="#3E6687"/>
<path d="M11.6638 21.0707C10.565 21.0368 9.46122 21.1812 8.36501 20.9728C7.6951 20.5885 7.45911 20.0083 7.47688 19.2548C7.51113 18.1384 7.48576 17.0207 7.48576 15.9043C7.48576 15.2852 7.73951 14.8118 8.30792 14.5229C8.31553 14.5368 8.33202 14.5531 8.32949 14.5669C8.18738 15.4121 8.79893 15.5891 9.41047 15.8026C10.074 16.0349 10.7579 16.1894 11.4316 16.3815C11.4303 17.95 11.3859 19.5185 11.6638 21.0707Z" fill="#3F6786"/>
<path d="M36.2527 21.0796L36.863 21.0934C36.863 22.2111 36.863 23.3296 36.863 24.4489C36.863 26.3226 35.8568 27.7203 34.0273 28.2339C31.9135 28.8292 29.7769 29.3466 27.6505 29.8953C27.5834 29.9029 27.5158 29.9029 27.4487 29.8953L27.4601 29.1017C27.6758 28.9095 27.9512 28.8229 28.1986 28.686C29.0981 28.1837 30.0028 27.6814 30.6841 26.8839V26.894L30.7907 26.8236C31.4187 26.7144 32.0467 26.6089 32.6735 26.4921C34.4574 26.1618 35.6487 25.1698 36.1195 23.4091C36.3199 22.6506 36.2298 21.8594 36.2527 21.0796Z" fill="#FD6E3B"/>
<path d="M12.7537 42.7721C13.7609 42.7721 14.7682 42.7721 15.7755 42.7721C16.4404 42.7721 16.6172 42.9625 16.6172 43.6832C16.6228 44.6274 16.6228 45.569 16.6172 46.5079C16.6172 47.1815 16.4068 47.4254 15.8189 47.427C13.768 47.427 11.7165 47.427 9.66458 47.427C9.04451 47.427 8.80743 47.1893 8.78919 46.4938C8.76534 45.5323 8.76815 44.5692 8.78919 43.6077C8.80041 43.0789 9.03189 42.7579 9.55936 42.7658C10.6269 42.7831 11.6903 42.7721 12.7537 42.7721Z" fill="#FF4C4C"/>
<path d="M34.3535 14.7071C34.3459 16.1902 34.3256 17.6746 34.3395 19.1577C34.3395 19.7856 34.1822 20.3758 34.1492 20.9887C34.1364 21.0143 34.1316 21.0431 34.1353 21.0715C33.7754 22.4237 33.2199 23.7171 32.4859 24.9118L28.6466 25.6138C27.9932 24.9696 27.2129 25.1341 26.4364 25.2697C26.9794 24.3354 27.5783 23.4274 27.9107 22.3813C28.3347 21.1045 28.5535 19.7696 28.559 18.4255C28.559 16.3899 28.559 14.3542 28.559 12.3186C28.559 12.1277 28.6339 11.9129 28.4499 11.7522C28.9244 11.4144 29.4053 11.0816 29.8722 10.7337C30.1107 10.5567 30.2528 10.5341 30.3924 10.8518C30.5485 11.2135 30.6855 11.5965 30.9811 11.8841C31.6015 13.0884 32.6673 13.8142 33.8092 14.4559C33.9817 14.5539 34.1708 14.6242 34.3535 14.7071Z" fill="#F3C791"/>
<path d="M26.4316 25.27C27.2081 25.1343 27.9884 24.9698 28.6418 25.6141C28.7917 25.8298 28.8963 26.0731 28.9492 26.3296C29.0022 26.5861 29.0025 26.8506 28.9501 27.1072C28.6964 27.6095 28.3449 27.9863 27.7651 28.098C27.0039 28.2374 26.2426 28.368 25.4813 28.4961C24.8178 28.6079 24.2126 28.5125 23.7279 27.9938C22.9946 26.8284 23.6708 25.6618 24.9865 25.5199C25.475 25.4684 25.952 25.3554 26.4316 25.27Z" fill="#005294"/>
<path d="M23.7376 27.9949C24.2198 28.5123 24.8275 28.6077 25.4911 28.4972C26.2523 28.3716 27.0136 28.2385 27.7748 28.0991C28.3547 27.9911 28.7099 27.6094 28.9599 27.1083C29.546 27.0945 30.1018 26.8634 30.6955 26.8898C30.0142 27.6897 29.1096 28.1883 28.21 28.6919C27.9626 28.8288 27.6873 28.9154 27.4716 29.1075C26.8943 29.1578 26.397 29.4667 25.8412 29.5973C24.0392 30.0417 22.1577 30.0679 20.3437 29.6739C20.3336 29.6539 20.3284 29.6318 20.3287 29.6094C20.3291 29.5871 20.3348 29.5651 20.3455 29.5454C20.3562 29.5257 20.3716 29.5088 20.3902 29.4962C20.4089 29.4836 20.4304 29.4756 20.4528 29.473C21.4979 29.155 22.4932 28.6947 23.4103 28.1054C23.5146 28.0558 23.6245 28.0187 23.7376 27.9949Z" fill="#F3C791"/>
<path d="M30.6852 26.8891C30.094 26.8628 29.5357 27.0938 28.9495 27.1076C29.0019 26.851 29.0016 26.5866 28.9486 26.3301C28.8957 26.0736 28.7911 25.8302 28.6412 25.6145L32.4805 24.9125C33.045 24.8602 33.5723 24.6105 33.9676 24.2082C34.3629 23.8059 34.6003 23.2773 34.6374 22.7173C34.6679 22.1711 34.6374 21.621 34.6374 21.0735C35.1657 20.9317 35.7229 20.9339 36.25 21.0798C36.2272 21.8596 36.3173 22.6508 36.113 23.4143C35.6423 25.1724 34.4509 26.167 32.667 26.4973C32.0403 26.6141 31.4122 26.7196 30.7842 26.8289C30.7309 26.8289 30.6839 26.8289 30.6776 26.8992L30.6852 26.8891Z" fill="#416685"/>
<path d="M34.6402 21.0728C34.6402 21.6203 34.6668 22.1703 34.6402 22.7166C34.6031 23.2766 34.3656 23.8052 33.9703 24.2075C33.575 24.6098 33.0478 24.8595 32.4833 24.9118C33.2173 23.7171 33.7729 22.4236 34.1327 21.0715C34.1641 21.0758 34.1961 21.0701 34.224 21.0552L34.6402 21.0728Z" fill="#FD6E3B"/>
<path d="M34.2264 21.0559C34.1985 21.0709 34.1666 21.0766 34.1352 21.0723C34.1316 21.0437 34.1364 21.0147 34.1491 20.9888L34.2264 21.0559Z" fill="#416685"/>
<path d="M30.6803 26.8994C30.6866 26.831 30.7335 26.8247 30.7866 26.8285L30.6803 26.8994Z" fill="#F3C791"/>
</g>
<defs>
<clipPath id="clip0_6282_68336">
<rect width="45.5245" height="51.3185" fill="white" transform="translate(0.138611 0.0371094)"/>
</clipPath>
</defs>
</svg>
