<svg width="72" height="73" viewBox="0 0 72 73" fill="none" xmlns="http://www.w3.org/2000/svg">
<g clip-path="url(#clip0_6204_16041)">
<path d="M41.3563 67.2863L48.5631 67.3081C49.7901 67.3081 50.6165 67.9019 50.8331 68.9366C51.0406 69.9311 50.5564 70.7581 49.4533 71.3046C49.4182 71.3317 49.3864 71.3629 49.3586 71.3975H36.556C36.556 70.0423 36.556 68.6864 36.556 67.33L41.3563 67.2863Z" fill="#57D8D3"/>
<path d="M36.5542 67.3283C36.5542 68.6835 36.5542 70.0393 36.5542 71.3958H23.7534C23.3201 71.0551 22.7777 70.8821 22.5028 70.3028C21.822 68.8893 22.7267 67.3228 24.3049 67.3064C26.7988 67.2827 29.2927 67.29 31.7866 67.2845H36.5596L36.5542 67.3283Z" fill="#8CF1F1"/>
<path d="M41.3563 67.2865L36.5542 67.3284V67.2865C36.5542 60.4412 36.5542 53.5952 36.5542 46.7486C37.9104 46.6594 39.2647 46.5665 40.5954 46.2586C49.5734 44.2276 55.6807 35.7957 54.8288 26.7517C54.3027 21.1742 51.7742 16.7169 47.3271 13.3598C44.1506 10.9608 40.5026 9.89882 36.5542 9.76585C36.5542 7.05418 36.5542 4.34312 36.5542 1.63266C40.9931 1.56889 45.3663 2.70949 49.2093 4.9333C56.3615 9.0172 60.8014 15.1339 62.498 23.2015C63.5574 28.2217 62.8875 33.1126 61.1254 37.8905C59.063 43.4862 56.0539 48.5611 52.6498 53.4209C49.3415 58.0879 45.7275 62.53 41.8314 66.7182C41.6749 66.9058 41.5183 67.0989 41.3563 67.2865Z" fill="#FE415B"/>
<path d="M36.5579 46.7488C36.5579 53.5942 36.5579 60.4401 36.5579 67.2867H31.7849C28.6412 63.8258 25.5739 60.3029 22.7632 56.5633C19.0078 51.5668 15.5892 46.3626 13.0844 40.6066C11.2986 36.4935 10.0061 32.2603 10.1372 27.7137C10.3192 21.1015 12.6402 15.3272 17.0546 10.409C20.7135 6.28637 25.5835 3.42955 30.9658 2.24852C32.797 1.80742 34.6764 1.59813 36.5597 1.62555C36.5597 4.33601 36.5597 7.04707 36.5597 9.75874C35.3809 9.77791 34.206 9.89981 33.0483 10.123C23.5824 12.1267 17.3567 20.5459 18.3033 30.2019C18.8658 36.009 21.7238 40.5064 26.5405 43.7396C29.5604 45.7652 32.9409 46.6723 36.5579 46.7488Z" fill="#FE7C48"/>
<path d="M36.5579 46.7485C32.9408 46.672 29.5604 45.7649 26.5459 43.7393C21.7238 40.5061 18.8658 36.0087 18.2978 30.2107C17.3549 20.5566 23.5769 12.1356 33.0428 10.1319C34.2005 9.90865 35.3754 9.78675 36.5542 9.76758C40.5026 9.89691 44.1506 10.9625 47.3271 13.3615C51.7743 16.7186 54.3027 21.1759 54.8288 26.7535C55.6808 35.7974 49.5734 44.2293 40.5954 46.2604C39.2684 46.5591 37.914 46.6593 36.5579 46.7485ZM36.5579 17.9809C34.8904 17.9955 33.5233 18.6476 32.3 19.7842C29.9864 21.9373 29.8207 26.023 31.9869 28.3309C33.0227 29.4348 34.3188 29.9958 35.7369 30.3638C35.4456 30.4111 35.158 30.4676 34.8649 30.5077C31.0731 31.0232 27.4197 34.3948 26.6424 38.098C26.6002 38.2265 26.5976 38.3646 26.6349 38.4946C26.6723 38.6245 26.7478 38.7402 26.8517 38.8266C29.6223 41.2839 32.8225 42.6355 36.5597 42.6155C40.2987 42.6665 43.4771 41.3021 46.2549 38.8485C46.5498 38.5862 46.5425 38.3112 46.4552 37.9942C45.9308 36.0322 44.8428 34.2671 43.326 32.9176C41.6622 31.4366 39.6852 30.668 37.5117 30.3547C37.5481 30.3292 37.5827 30.2836 37.621 30.2781C40.7538 29.81 43.3424 26.5604 42.5505 22.8481C41.968 20.1012 39.3048 17.8953 36.5615 17.9809H36.5579Z" fill="#FEFEFE"/>
<path d="M37.5153 30.3547C39.6998 30.668 41.6658 31.4367 43.3296 32.9176C44.8464 34.2672 45.9344 36.0322 46.4588 37.9943C46.5462 38.3112 46.5534 38.5863 46.2585 38.8486C43.488 41.3022 40.3023 42.6738 36.5633 42.6155C36.5633 38.5401 36.5603 34.466 36.5542 30.393L37.5153 30.3547Z" fill="#27BFBF"/>
<path d="M36.5542 30.393L36.5633 42.6156C32.8261 42.6356 29.6259 41.284 26.8553 38.8268C26.7514 38.7404 26.6759 38.6247 26.6385 38.4947C26.6012 38.3648 26.6038 38.2266 26.6459 38.0982C27.4232 34.395 31.0767 31.0233 34.8685 30.5078C35.1616 30.4677 35.4492 30.4113 35.7405 30.3639L36.5633 30.342L36.5542 30.393Z" fill="#57D8D3"/>
<path d="M37.5153 30.3543L36.5542 30.3925L36.5633 30.3415C36.5633 26.2212 36.5633 22.1009 36.5633 17.9806C39.3066 17.8949 41.9698 20.1008 42.5559 22.8477C43.3478 26.56 40.7592 29.8097 37.6264 30.2778C37.5863 30.2833 37.5518 30.3288 37.5153 30.3543Z" fill="#FEBFAB"/>
<path d="M36.5616 17.981C36.5616 22.1013 36.5616 26.2216 36.5616 30.3419L35.7388 30.3638C34.3207 29.9995 33.0246 29.4348 31.9888 28.331C29.8226 26.0231 29.9864 21.9373 32.3019 19.7843C33.527 18.6476 34.8941 17.9955 36.5616 17.981Z" fill="#FECDBF"/>
</g>
<defs>
<clipPath id="clip0_6204_16041">
<rect width="52.8906" height="69.7705" fill="white" transform="translate(10.1281 1.62512)"/>
</clipPath>
</defs>
</svg>
