<svg width="18" height="21" viewBox="0 0 18 21" fill="none" xmlns="http://www.w3.org/2000/svg">
<path d="M16 8.35464H17C17.2652 8.35464 17.5196 8.46 17.7071 8.64754C17.8946 8.83507 18 9.08943 18 9.35464V19.3546C18 19.6199 17.8946 19.8742 17.7071 20.0618C17.5196 20.2493 17.2652 20.3546 17 20.3546H1C0.734784 20.3546 0.48043 20.2493 0.292893 20.0618C0.105357 19.8742 0 19.6199 0 19.3546V9.35464C0 9.08943 0.105357 8.83507 0.292893 8.64754C0.48043 8.46 0.734784 8.35464 1 8.35464H2V7.35464C2 6.43539 2.18106 5.52514 2.53284 4.67586C2.88463 3.82658 3.40024 3.05491 4.05025 2.4049C4.70026 1.75489 5.47194 1.23927 6.32122 0.887488C7.17049 0.535705 8.08075 0.354645 9 0.354645C9.91925 0.354645 10.8295 0.535705 11.6788 0.887488C12.5281 1.23927 13.2997 1.75489 13.9497 2.4049C14.5998 3.05491 15.1154 3.82658 15.4672 4.67586C15.8189 5.52514 16 6.43539 16 7.35464V8.35464ZM14 8.35464V7.35464C14 6.02856 13.4732 4.75679 12.5355 3.81911C11.5979 2.88143 10.3261 2.35464 9 2.35464C7.67392 2.35464 6.40215 2.88143 5.46447 3.81911C4.52678 4.75679 4 6.02856 4 7.35464V8.35464H14ZM8 12.3546V16.3546H10V12.3546H8Z" fill="#4491FF"/>
</svg>
