<svg width="51" height="53" viewBox="0 0 51 53" fill="none" xmlns="http://www.w3.org/2000/svg">
<g clip-path="url(#clip0_6282_68500)">
<path d="M21.4317 62.2095H0V0.209473H21.4317V11.3553C20.5245 11.3553 19.6148 11.3396 18.7111 11.3723C18.2702 11.388 18.1648 11.2208 18.1794 10.8126C18.206 10.0481 18.1733 9.28122 18.1927 8.51071C18.2024 8.16543 18.0812 8.05882 17.7421 8.06487C16.8154 8.08426 15.8876 8.08183 14.9561 8.06487C14.6338 8.06487 14.5369 8.18602 14.543 8.4889C14.5587 9.27396 14.5297 10.0639 14.5551 10.8465C14.5672 11.2366 14.4497 11.3796 14.0476 11.365C13.282 11.3371 12.5153 11.365 11.7461 11.3517C11.3996 11.3432 11.2349 11.4183 11.247 11.8133C11.2737 12.7195 11.2725 13.6305 11.247 14.5343C11.2361 14.9268 11.3948 15.0068 11.7437 14.9983C12.5286 14.9789 13.3184 15.0056 14.1009 14.9862C14.4485 14.9777 14.5575 15.1074 14.5491 15.4429C14.5321 16.2486 14.5563 17.0555 14.5382 17.866C14.5309 18.2003 14.6314 18.336 14.9815 18.3287C15.8876 18.3118 16.7985 18.3106 17.7021 18.3287C18.0655 18.336 18.1939 18.2076 18.1866 17.8441C18.1697 17.0785 18.2133 16.3116 18.1927 15.5423C18.1806 15.1086 18.3598 14.9814 18.7644 14.9898C19.6511 15.0104 20.5378 15.0032 21.4293 15.0068C21.4293 17.7771 21.4293 20.5478 21.4293 23.3189C21.1677 23.3274 20.9072 23.3407 20.6456 23.3407C17.0395 23.3407 13.4334 23.3516 9.82858 23.3311C9.31983 23.3311 9.16357 23.4837 9.189 23.9828C9.23018 24.7472 9.23018 25.5131 9.189 26.2774C9.1563 26.8359 9.338 26.991 9.8952 26.9874C13.4807 26.9631 17.0662 26.974 20.6516 26.9777C20.9121 26.9777 21.1725 27.008 21.4317 27.0249V31.0689C21.1701 31.0774 20.9097 31.0907 20.648 31.0907C17.0419 31.0907 13.4359 31.1017 9.831 31.0811C9.32225 31.0811 9.16599 31.2337 9.19143 31.7328C9.23261 32.4972 9.23261 33.2631 9.19143 34.0274C9.15872 34.5859 9.34042 34.741 9.89762 34.7374C13.4831 34.7131 17.0686 34.7241 20.6541 34.7277C20.9145 34.7277 21.1749 34.758 21.4341 34.7749V38.8189C21.1725 38.8274 20.9121 38.8407 20.6504 38.8407C17.0444 38.8407 13.4383 38.8517 9.83342 38.8311C9.32467 38.8311 9.16841 38.9837 9.19385 39.4828C9.23503 40.2472 9.23503 41.0131 9.19385 41.7774C9.16115 42.3359 9.34284 42.491 9.90005 42.4874C13.4855 42.4631 17.071 42.4741 20.6565 42.4777C20.9169 42.4777 21.1774 42.508 21.4366 42.5249V46.5689C21.1749 46.5774 20.9145 46.5907 20.6529 46.5907C17.0468 46.5907 13.4407 46.6017 9.83584 46.5811C9.32709 46.5811 9.17084 46.7337 9.19627 47.2328C9.23745 47.9972 9.23745 48.7631 9.19627 49.5274C9.15751 50.0932 9.33921 50.2446 9.89641 50.2446C13.4819 50.2204 17.0674 50.2313 20.6529 50.235C20.9133 50.235 21.1737 50.2652 21.4329 50.2822L21.4317 62.2095Z" fill="#EAF2FE"/>
<path d="M46.4 14.7407V60.3931C46.4 61.3957 45.5116 62.2095 44.4171 62.2095H20.6222V0.209473H30.5433L36.6903 9.47557L46.4 14.7407Z" fill="#EAF2FE"/>
<path d="M20.6235 38.0224V34.0626C20.6387 34.0357 20.6424 34.0042 20.6336 33.9748C20.6708 33.9932 20.7109 34.0061 20.7524 34.0128C22.9818 34.0235 25.2113 34.0294 27.4407 34.0436C27.7731 34.0436 27.8047 33.8633 27.8035 33.6201C27.8035 32.7316 27.7832 31.8407 27.8111 30.9545C27.8224 30.5583 27.6746 30.4504 27.2676 30.4551C25.8584 30.4753 24.4479 30.4551 23.0387 30.4681C22.2425 30.4776 21.4437 30.3839 20.6513 30.5286C20.6515 30.4952 20.6419 30.4624 20.6235 30.4337V26.4739C20.6387 26.447 20.6424 26.4155 20.6336 26.3861C20.6708 26.4046 20.7109 26.4174 20.7524 26.4241C22.9818 26.4348 25.2113 26.4407 27.4407 26.4549C27.7731 26.4549 27.8047 26.2746 27.8035 26.0314C27.8035 25.1429 27.7832 24.252 27.8111 23.3658C27.8224 22.9696 27.6746 22.8617 27.2676 22.8664C25.8584 22.8866 24.4479 22.8664 23.0387 22.8795C22.2425 22.8889 21.4437 22.7952 20.6513 22.94C20.6515 22.9065 20.6419 22.8737 20.6235 22.8451C20.6235 20.1316 20.6235 17.4186 20.6235 14.7059C20.7688 13.5168 20.7688 12.316 20.6235 11.1269V0.209473H34.9051C34.919 0.404024 34.9443 0.599762 34.9443 0.794313C34.9443 3.9878 34.9532 7.18248 34.938 10.376C34.938 10.79 35.0113 10.9691 35.5156 10.962C39.1277 10.9406 42.1421 11.191 45.7555 11.1886C45.7707 11.484 46.4 11.8345 46.4 11.8315C46.4 23.0918 46.4 34.3525 46.4 45.6135L44.7569 45.6598C42.5288 45.6704 40.2993 45.5554 38.0749 45.7215C34.6208 45.9777 31.7556 48.3313 30.9151 51.5687C30.11 54.6934 31.6064 58.0494 34.5335 59.7612C35.5446 60.3543 36.6733 60.6307 37.8019 60.9178H20.6222V49.24C20.6375 49.213 20.6411 49.1816 20.6323 49.1522C20.6695 49.1706 20.7096 49.1834 20.7511 49.1902C22.9806 49.2008 25.21 49.2068 27.4395 49.221C27.7719 49.221 27.8035 49.0407 27.8022 48.7975C27.8022 47.909 27.782 47.0181 27.8098 46.1319C27.8212 45.7357 27.6733 45.6277 27.2663 45.6325C25.8571 45.6526 24.4466 45.6325 23.0374 45.6455C22.2412 45.655 21.4424 45.5613 20.65 45.706C20.6502 45.6726 20.6406 45.6397 20.6222 45.6111V41.6513C20.6375 41.6243 20.6411 41.5929 20.6323 41.5635C20.6695 41.5819 20.7096 41.5947 20.7511 41.6015C22.9806 41.6121 25.21 41.6181 27.4395 41.6323C27.7719 41.6323 27.8035 41.452 27.8022 41.2088C27.8022 40.3203 27.782 39.4294 27.8098 38.5432C27.8212 38.147 27.6733 38.039 27.2663 38.0438C25.8571 38.064 24.4466 38.0438 23.0374 38.0568C22.2412 38.0663 21.4424 37.9726 20.65 38.1173C20.6506 38.084 20.6414 38.0512 20.6235 38.0224ZM34.1215 22.8854C33.5553 22.8854 32.9841 22.8961 32.4216 22.8854C32.1183 22.8771 31.9578 22.9352 31.9641 23.2686C31.9831 24.2176 31.9768 25.1666 31.9641 26.1062C31.9641 26.3505 32.0349 26.462 32.3167 26.462C33.5132 26.4526 34.7096 26.4526 35.9061 26.462C36.1728 26.462 36.2739 26.3766 36.2701 26.1192C36.2587 25.1702 36.2537 24.2211 36.2701 23.2816C36.2764 22.953 36.1235 22.883 35.8164 22.8913C35.2552 22.8961 34.689 22.8854 34.1215 22.8854ZM34.1051 34.0365C34.6726 34.0365 35.2426 34.0211 35.805 34.0424C36.15 34.0543 36.2853 33.963 36.2764 33.6154C36.2524 32.709 36.2537 31.8027 36.2764 30.8964C36.2853 30.5512 36.15 30.461 35.7999 30.4658C34.6675 30.4808 33.5343 30.4808 32.4001 30.4658C32.0715 30.4658 31.9603 30.5642 31.9654 30.8715C31.9818 31.798 31.9856 32.7233 31.9654 33.6498C31.9578 33.976 32.0918 34.0496 32.4077 34.0401C32.9714 34.027 33.5389 34.0389 34.1051 34.0389V34.0365ZM34.1291 38.0604C33.5616 38.0604 32.9916 38.0782 32.4279 38.0604C32.0677 38.045 31.9565 38.1648 31.9628 38.4993C31.9831 39.4045 31.9793 40.312 31.9628 41.2171C31.9628 41.5066 32.0223 41.643 32.3736 41.6371C33.5275 41.6204 34.6827 41.6228 35.8366 41.6371C36.1538 41.6371 36.2802 41.5576 36.2726 41.2385C36.2524 40.3132 36.2524 39.3875 36.2726 38.4614C36.2789 38.1387 36.1462 38.0545 35.8265 38.0628C35.2628 38.0746 34.6953 38.0628 34.1291 38.0628V38.0604Z" fill="#EAF2FE"/>
<path d="M21.4329 27.0322C21.1737 27.0152 20.9133 26.9849 20.6528 26.9849C17.0674 26.9849 13.4819 26.9704 9.89639 26.9946C9.33919 26.9946 9.15749 26.8432 9.1902 26.2847C9.23137 25.5204 9.23137 24.7544 9.1902 23.9901C9.16476 23.4909 9.32102 23.3359 9.82977 23.3383C13.4346 23.3589 17.0407 23.3492 20.6468 23.348C20.9084 23.348 21.1689 23.3347 21.4305 23.3262C21.4481 23.3554 21.4574 23.3889 21.4571 23.4231C21.4515 24.5966 21.4458 25.7678 21.4402 26.9365C21.4456 26.9521 21.4477 26.9686 21.4464 26.9851C21.4452 27.0015 21.4406 27.0175 21.4329 27.0322Z" fill="#006FC7"/>
<path d="M21.4329 34.7827C21.1737 34.7657 20.9133 34.7354 20.6528 34.7354C17.0674 34.7354 13.4819 34.7209 9.89639 34.7451C9.33919 34.7451 9.15749 34.5937 9.1902 34.0352C9.23137 33.2708 9.23137 32.5049 9.1902 31.7406C9.16476 31.2414 9.32102 31.0864 9.82977 31.0888C13.4346 31.1094 17.0407 31.0997 20.6468 31.0985C20.9084 31.0985 21.1689 31.0851 21.4305 31.0767C21.4481 31.1059 21.4574 31.1394 21.4571 31.1736C21.4515 32.3471 21.4458 33.5182 21.4402 34.6869C21.4456 34.7026 21.4477 34.7191 21.4464 34.7356C21.4452 34.752 21.4406 34.768 21.4329 34.7827Z" fill="#006FC7"/>
<path d="M21.4329 42.5322C21.1737 42.5152 20.9133 42.4849 20.6528 42.4849C17.0674 42.4849 13.4819 42.4704 9.89639 42.4946C9.33919 42.4946 9.15749 42.3432 9.1902 41.7847C9.23137 41.0204 9.23137 40.2544 9.1902 39.4901C9.16476 38.9909 9.32102 38.8359 9.82977 38.8383C13.4346 38.8589 17.0407 38.8492 20.6468 38.848C20.9084 38.848 21.1689 38.8347 21.4305 38.8262C21.4481 38.8554 21.4574 38.8889 21.4571 38.9231C21.4515 40.0974 21.4458 41.2706 21.4402 42.4425C21.4494 42.4722 21.4468 42.5043 21.4329 42.5322Z" fill="#006FC7"/>
<path d="M21.4329 50.2827C21.1737 50.2657 20.9133 50.2354 20.6528 50.2354C17.0674 50.2354 13.4819 50.2209 9.89639 50.2451C9.33919 50.2451 9.15749 50.0937 9.1902 49.5352C9.23137 48.7708 9.23137 48.0049 9.1902 47.2406C9.16476 46.7414 9.32102 46.5864 9.82977 46.5888C13.4346 46.6094 17.0407 46.5997 20.6468 46.5985C20.9084 46.5985 21.1689 46.5851 21.4305 46.5767C21.4481 46.6059 21.4574 46.6394 21.4571 46.6736C21.4515 47.8471 21.4458 49.0203 21.4402 50.193C21.4494 50.2227 21.4468 50.2548 21.4329 50.2827Z" fill="#006FC7"/>
<path d="M21.4403 26.943C21.4452 25.7702 21.4508 24.5991 21.4573 23.4296C22.2168 23.2818 22.9823 23.3775 23.7454 23.3678C25.096 23.3496 26.4479 23.3751 27.7985 23.3545C28.1885 23.3545 28.3302 23.4599 28.3193 23.8645C28.2927 24.7719 28.3072 25.6818 28.3121 26.5868C28.3121 26.8351 28.283 27.0217 27.9644 27.0193C25.8277 27.0047 23.6909 26.9987 21.5542 26.9878C21.5141 26.979 21.4756 26.9639 21.4403 26.943Z" fill="#006FC7"/>
<path d="M21.4403 34.693C21.4452 33.5202 21.4508 32.3491 21.4573 31.1796C22.2168 31.0318 22.9823 31.1275 23.7454 31.1178C25.096 31.0996 26.4479 31.1251 27.7985 31.1045C28.1885 31.1045 28.3302 31.2099 28.3193 31.6145C28.2927 32.5219 28.3072 33.4318 28.3121 34.3368C28.3121 34.5851 28.283 34.7717 27.9644 34.7693C25.8277 34.7547 23.6909 34.7487 21.5542 34.7378C21.5141 34.729 21.4756 34.7139 21.4403 34.693Z" fill="#006FC7"/>
<path d="M21.4403 42.4427C21.4452 41.2699 21.4508 40.0968 21.4573 38.9232C22.2168 38.7754 22.9823 38.8712 23.7454 38.8615C25.096 38.8433 26.4479 38.8687 27.7985 38.8481C28.1885 38.8481 28.3302 38.9535 28.3193 39.3582C28.2927 40.2656 28.3072 41.1754 28.3121 42.0804C28.3121 42.3288 28.283 42.5154 27.9644 42.5129C25.8277 42.4984 23.6909 42.4923 21.5542 42.4814C21.5144 42.4746 21.476 42.4615 21.4403 42.4427Z" fill="#006FC7"/>
<path d="M21.4403 50.1932C21.4452 49.0204 21.4508 47.8473 21.4573 46.6737C22.2168 46.5259 22.9823 46.6216 23.7454 46.6119C25.096 46.5938 26.4479 46.6192 27.7985 46.5986C28.1885 46.5986 28.3302 46.704 28.3193 47.1087C28.2927 48.0161 28.3072 48.9259 28.3121 49.8309C28.3121 50.0793 28.283 50.2658 27.9644 50.2634C25.8277 50.2489 23.6909 50.2428 21.5542 50.2319C21.5144 50.2251 21.476 50.212 21.4403 50.1932Z" fill="#006FC7"/>
<path d="M34.3696 23.3676C34.9134 23.3676 35.4597 23.3785 35.9988 23.3676C36.2931 23.3592 36.4397 23.4306 36.4336 23.7662C36.4155 24.7354 36.4203 25.7046 36.4336 26.6642C36.4336 26.927 36.3404 27.0155 36.0848 27.0143C34.9389 27.007 33.7922 27.007 32.6446 27.0143C32.3745 27.0143 32.3043 26.9052 32.3067 26.6508C32.3164 25.6816 32.3224 24.7124 32.3067 23.7529C32.3006 23.4125 32.4545 23.3531 32.7452 23.3616C33.283 23.3786 33.8269 23.3676 34.3696 23.3676Z" fill="#F5061F"/>
<path d="M34.3537 34.7578C33.8111 34.7578 33.2636 34.7457 32.7245 34.7578C32.4253 34.7675 32.2933 34.6924 32.3006 34.3593C32.3212 33.4131 32.3175 32.4681 32.3006 31.5219C32.3006 31.2081 32.4023 31.1027 32.7173 31.1076C33.8034 31.1221 34.8896 31.1221 35.9757 31.1076C36.3076 31.1076 36.4408 31.1948 36.4324 31.5474C36.4118 32.4729 36.4106 33.3985 36.4324 34.3241C36.4408 34.6791 36.3112 34.7724 35.9805 34.7603C35.4415 34.7373 34.8976 34.7578 34.3537 34.7578Z" fill="#F5061F"/>
<path d="M34.3768 38.8675C34.9194 38.8675 35.4669 38.8796 36.006 38.8675C36.3076 38.859 36.4396 38.9451 36.4336 39.2746C36.4158 40.2196 36.4158 41.1649 36.4336 42.1107C36.4408 42.4366 36.3197 42.5214 36.0157 42.5178C34.9097 42.5045 33.8026 42.502 32.6967 42.5178C32.3599 42.5238 32.2981 42.3845 32.303 42.0889C32.3163 41.1645 32.3199 40.2377 32.303 39.3134C32.2969 38.9717 32.4035 38.8494 32.7488 38.8651C33.289 38.8857 33.8329 38.8675 34.3768 38.8675Z" fill="#F5061F"/>
<path d="M39.2336 48.4144L51.7503 48.4144C54.9135 48.4144 57.4871 50.9852 57.4871 54.1452C57.4871 57.3051 54.9135 59.876 51.7503 59.876L39.2336 59.876C36.0704 59.876 33.4968 57.3051 33.4968 54.1452C33.4968 50.9852 36.0704 48.4144 39.2336 48.4144Z" fill="#E4F3FF"/>
<path d="M51.75 48.4142L39.2334 48.4142C36.0701 48.4142 33.4966 50.9851 33.4966 54.145L57.4868 54.145C57.4868 50.9851 54.9133 48.4142 51.75 48.4142Z" fill="#E4F3FF"/>
<path d="M39.2295 59.8755L45.4878 59.8755L45.4878 48.4139L39.2295 48.4139C36.0662 48.4139 33.4927 50.9847 33.4927 54.1447C33.4927 57.3047 36.0662 59.8755 39.2295 59.8755Z" fill="#F5061F"/>
<path d="M45.4878 48.4142L39.2295 48.4142C36.0662 48.4142 33.4927 50.9851 33.4927 54.145L45.4878 54.145L45.4878 48.4142Z" fill="#F5061F"/>
<path d="M21.4316 11.3557C21.5709 12.5701 21.5709 13.7964 21.4316 15.0108C20.5449 15.0108 19.6582 15.0108 18.7667 14.9938C18.3621 14.9853 18.1828 15.115 18.195 15.5463C18.2156 16.3119 18.1719 17.0788 18.1889 17.8481C18.1974 18.2116 18.0738 18.3424 17.7044 18.3327C16.7983 18.3134 15.8874 18.3146 14.9838 18.3327C14.6337 18.34 14.5332 18.2043 14.5404 17.8699C14.5586 17.0643 14.5404 16.2574 14.5513 15.4469C14.5598 15.1101 14.4508 14.9817 14.1032 14.9902C13.3182 15.0096 12.5284 14.9829 11.7459 15.0023C11.3971 15.0108 11.2384 14.9308 11.2493 14.5383C11.2747 13.6321 11.276 12.721 11.2493 11.8173C11.2432 11.4284 11.408 11.3557 11.7496 11.3617C12.5151 11.3811 13.2819 11.3472 14.0511 11.3751C14.4532 11.3896 14.5707 11.2466 14.5586 10.8565C14.5332 10.0715 14.5586 9.28158 14.5465 8.49895C14.5465 8.19002 14.6373 8.06887 14.9595 8.07492C15.8862 8.09067 16.8141 8.0931 17.7456 8.07492C18.0847 8.07492 18.2059 8.17548 18.1962 8.52076C18.1768 9.28643 18.2095 10.0533 18.1828 10.8226C18.1683 11.2309 18.2737 11.3981 18.7146 11.3823C19.6231 11.3436 20.5243 11.3617 21.4316 11.3557Z" fill="#F5061F"/>
<path d="M34.9281 0.214603C34.9908 0.432636 35.1906 0.535239 35.3353 0.678885C38.8652 4.22299 42.3985 7.76453 45.9352 11.3035C46.0991 11.4677 46.2451 11.6485 46.4 11.8165C42.7391 11.8165 39.0782 11.8165 35.4185 11.8345C34.9063 11.8345 34.8308 11.6485 34.8333 11.2009C34.8487 7.74828 34.8423 4.29438 34.8397 0.841768C34.8397 0.63143 34.8141 0.41981 34.8 0.209473L34.9281 0.214603Z" fill="#CAECFF"/>
</g>
<defs>
<clipPath id="clip0_6282_68500">
<rect width="58" height="62" fill="white" transform="translate(0 0.209473)"/>
</clipPath>
</defs>
</svg>
