<svg width="54" height="54" viewBox="0 0 54 54" fill="none" xmlns="http://www.w3.org/2000/svg">
<path d="M45.4448 24.896C44.5157 24.896 43.7616 24.1419 43.7616 23.2127V13.1132C43.7616 11.568 42.5026 10.3089 40.9575 10.3089H24.126C23.1969 10.3089 22.4429 9.55479 22.4429 8.62564C22.4429 7.69648 23.1969 6.94238 24.126 6.94238H40.9575C44.3608 6.94238 47.1279 9.70965 47.1279 13.1132V23.2127C47.1279 24.1419 46.3739 24.896 45.4448 24.896Z" fill="#66E6FF"/>
<path d="M45.4453 24.8958C45.0144 24.8958 44.5835 24.7308 44.2536 24.4043L40.3285 20.4756C39.8472 19.9942 39.7024 19.2704 39.965 18.6408C40.2242 18.0113 40.8402 17.6006 41.5202 17.6006H49.3738C50.0538 17.6006 50.6664 18.0113 50.929 18.6408C51.1882 19.2704 51.0468 19.9942 50.5655 20.4756L46.637 24.4043C46.3071 24.7342 45.8762 24.8958 45.4453 24.8958Z" fill="#66E6FF"/>
<path d="M25.2469 47.3403H12.9027C9.4994 47.3403 6.7323 44.573 6.7323 41.1695V31.07C6.7323 30.1408 7.48635 29.3867 8.41545 29.3867C9.34455 29.3867 10.0986 30.1408 10.0986 31.07V41.1695C10.0986 42.7147 11.3576 43.9738 12.9027 43.9738H25.2469C26.176 43.9738 26.9301 44.7279 26.9301 45.657C26.9301 46.5862 26.176 47.3403 25.2469 47.3403Z" fill="#66E6FF"/>
<path d="M12.3443 36.6784H4.48737C3.80738 36.6784 3.19472 36.2677 2.93215 35.6382C2.66957 35.0086 2.81769 34.2882 3.29907 33.8068L7.22754 29.8781C7.88397 29.2216 8.95108 29.2216 9.60751 29.8781L13.536 33.8068C14.0174 34.2882 14.1621 35.012 13.8995 35.6415C13.637 36.2711 13.0243 36.6784 12.3443 36.6784Z" fill="#66E6FF"/>
<path d="M11.2203 11.4334C14.3195 11.4334 16.8319 8.92084 16.8319 5.82144C16.8319 2.72203 14.3195 0.209473 11.2203 0.209473C8.12105 0.209473 5.60864 2.72203 5.60864 5.82144C5.60864 8.92084 8.12105 11.4334 11.2203 11.4334Z" fill="#FCAF9D"/>
<path d="M5.60864 5.82144C5.60864 8.92084 8.12105 11.4334 11.2203 11.4334V0.209473C8.12105 0.209473 5.60864 2.72203 5.60864 5.82144Z" fill="#FFCEBF"/>
<path d="M16.2693 13.6758H6.17042C2.7671 13.6758 0 16.443 0 19.8466V20.9676C0 21.8968 0.75405 22.6509 1.68315 22.6509H20.7599C21.689 22.6509 22.4431 21.8968 22.4431 20.9676V19.8466C22.4431 16.443 19.6726 13.6758 16.2693 13.6758Z" fill="#E4336D"/>
<path d="M0 19.8466C0 16.443 2.7671 13.6758 6.17042 13.6758H11.2199L11.2215 22.6509H20.7599C21.1174 22.6209 21.6995 22.449 22.0769 22.0156C22.3061 21.728 22.4431 21.3637 22.4431 20.9676C22.4473 21.4215 22.2968 21.763 22.0769 22.0156C21.7684 22.4027 21.293 22.6509 20.7599 22.6509H11.2215H1.68315C0.75405 22.6509 0 21.8968 0 20.9676V19.8466Z" fill="#FD676A"/>
<path d="M42.3584 42.5735C45.4576 42.5735 47.9701 40.061 47.9701 36.9616C47.9701 33.8622 45.4576 31.3496 42.3584 31.3496C39.2592 31.3496 36.7468 33.8622 36.7468 36.9616C36.7468 40.061 39.2592 42.5735 42.3584 42.5735Z" fill="#FCAF9D"/>
<path d="M36.7468 36.9616C36.7468 40.061 39.2592 42.5735 42.3584 42.5735V31.3496C39.2592 31.3496 36.7468 33.8622 36.7468 36.9616Z" fill="#FFCEBF"/>
<path d="M47.4075 44.8154H37.3086C33.9053 44.8154 31.1382 47.5827 31.1382 50.9862V52.1073C31.1382 53.0364 31.8922 53.7905 32.8213 53.7905H51.8981C52.8272 53.7905 53.5813 53.0364 53.5813 52.1073V50.9862C53.5813 47.5827 50.8108 44.8154 47.4075 44.8154Z" fill="#00CB75"/>
<path d="M31.1382 50.9862C31.1382 47.5827 33.9053 44.8154 37.3086 44.8154H42.358L42.3597 53.7905H51.8981C52.2556 53.7606 52.8377 53.5886 53.2151 53.1552C53.4443 52.8676 53.5813 52.5034 53.5813 52.1073C53.5854 52.5612 53.435 52.9026 53.2151 53.1552C52.9066 53.5423 52.4312 53.7905 51.8981 53.7905H42.3597H32.8213C31.8922 53.7905 31.1382 53.0364 31.1382 52.1073V50.9862Z" fill="#8EE26B"/>
</svg>
