<svg width="73" height="73" viewBox="0 0 73 73" fill="none" xmlns="http://www.w3.org/2000/svg">
<g clip-path="url(#clip0_6204_16142)">
<path d="M34.0389 1.62524H34.857C34.886 1.92234 35.1132 1.87282 35.313 1.90185C37.6707 2.23269 39.9525 2.97228 42.0559 4.08735C44.5426 5.41914 46.7681 7.10096 48.6024 9.28476C50.2051 11.1628 51.4977 13.2845 52.4315 15.5698C53.9311 19.2869 54.2761 23.161 53.7808 27.1C53.3863 30.2332 52.4025 33.2229 51.0772 36.0896C49.7205 38.9817 48.0978 41.7414 46.2301 44.3331C44.3882 46.8765 42.3918 49.3045 40.2523 51.6033C39.0107 52.959 37.6904 54.2447 36.348 55.5014C35.6443 56.1604 34.9817 56.8912 34.1277 57.3795C32.8502 56.4404 31.7366 55.3187 30.5957 54.2225C27.6256 51.3609 24.9595 48.2226 22.454 44.958C22.2303 44.6165 22.0168 44.275 21.7828 43.9335C18.9579 39.8989 16.6163 35.6252 15.2927 30.8478C14.2013 26.9208 13.9417 22.9527 14.8315 18.9488C15.5404 15.677 17.0023 12.6154 19.1013 10.007C22.7051 5.53013 27.3387 2.788 33.0397 1.88819C33.3711 1.83867 33.7383 1.87111 34.0389 1.62524ZM36.3002 15.3769C34.0732 15.3827 31.9394 16.2716 30.3673 17.8485C28.7951 19.4253 27.9129 21.5613 27.9142 23.7876C27.9142 28.4182 31.6819 32.2223 36.2831 32.2343C40.8842 32.2462 44.669 28.4318 44.669 23.7996C44.6731 22.6971 44.4598 21.6046 44.0413 20.5846C43.6229 19.5645 43.0075 18.6369 42.2303 17.8547C41.4531 17.0725 40.5294 16.4511 39.5118 16.0259C38.4943 15.6008 37.403 15.3802 36.3002 15.3769Z" fill="#F5061F"/>
<path d="M38.4012 1.62524C39.4003 1.96673 40.4678 1.96673 41.4857 2.24675C50.0953 4.64568 55.5095 10.1999 57.7298 18.8088C58.8177 23.0329 58.3925 27.2554 57.161 31.4045C55.7674 36.0999 53.4036 40.307 50.5889 44.275C50.4318 44.4936 50.2935 44.7258 50.1449 44.958C47.978 47.8087 45.6497 50.5331 43.1714 53.1178C42.8913 53.3807 42.6061 53.63 42.3345 53.9066C40.6659 55.5662 38.9187 57.132 37.0929 58.6225C36.7206 58.9265 36.3158 59.157 35.8615 58.8633C35.2193 58.4501 34.5976 57.9993 34.1262 57.3812C34.9802 56.8946 35.6446 56.1638 36.3465 55.5031C37.689 54.2464 39.0092 52.9607 40.2508 51.605C42.3904 49.3062 44.3867 46.8782 46.2286 44.3348C48.0964 41.7431 49.7191 38.9834 51.0757 36.0913C52.401 33.2246 53.3848 30.2349 53.7793 27.1017C54.2746 23.1627 53.9296 19.2886 52.4301 15.5715C51.4954 13.2854 50.2015 11.1631 48.5975 9.28476C46.7632 7.10096 44.5377 5.41914 42.051 4.08735C39.9476 2.97228 37.6658 2.23269 35.3081 1.90185C35.1083 1.87282 34.8811 1.92234 34.8521 1.62524L38.4012 1.62524Z" fill="#E6353F"/>
<path d="M1.45862 70.1681C2.59724 67.4248 3.73244 64.6804 4.86423 61.9349C5.04527 61.4978 5.23143 61.0624 5.41418 60.627H13.7079C14.4901 60.627 14.4833 60.627 14.1912 61.3339C12.818 64.6804 11.4466 68.0287 10.0768 71.3787C7.62651 71.3787 5.17848 71.3844 2.73273 71.3958C2.46005 71.4165 2.18804 71.3477 1.95805 71.1998C1.72807 71.0519 1.55271 70.8329 1.45862 70.5762V70.1681Z" fill="#A8EDFB"/>
<path d="M10.0768 71.3785C11.4432 68.0308 12.8146 64.6826 14.1912 61.3337C14.4833 60.6252 14.4901 60.6269 13.7079 60.6269H5.41418C5.72844 59.4453 6.29718 58.3645 6.75149 57.2393C7.30828 55.8614 7.8958 54.4955 8.46967 53.1244C11.3253 53.1244 14.181 53.1244 17.0349 53.1449C17.2014 53.1649 17.3695 53.1241 17.5082 53.0299C17.6469 52.9358 17.7469 52.7947 17.7898 52.6327C18.8317 50.0716 19.8923 47.5292 20.9478 44.98L22.4525 44.9493C24.9648 48.2139 27.6241 51.3521 30.5942 54.2138C31.7299 55.3099 32.8486 56.4334 34.1261 57.3708C34.5975 57.9889 35.2192 58.4397 35.8614 58.8528C36.3157 59.1465 36.7154 58.916 37.0928 58.6121C38.9135 57.1215 40.6658 55.5558 42.3344 53.8962C42.606 53.6264 42.8912 53.3703 43.1713 53.1074H59.3966V53.1518C59.7895 54.1096 60.1891 55.0641 60.5768 56.0253C61.1917 57.5467 61.798 59.0714 62.4094 60.5944C62.1379 60.603 61.8646 60.62 61.593 60.62C56.664 60.62 51.7354 60.62 46.8075 60.62C46.5769 60.62 46.3276 60.5569 46.0543 60.7191C48.8468 63.1607 51.6017 65.5579 54.3412 67.9739C55.6153 69.0974 56.9509 70.1526 58.143 71.3683L46.0355 71.3529C45.9382 71.2573 45.8477 71.1549 45.7435 71.0678C41.953 67.8567 38.1637 64.6456 34.3755 61.4345C31.5574 59.0441 28.7439 56.648 25.9349 54.2462C25.5609 53.9269 25.4328 53.9884 25.2518 54.4357C22.9643 60.0805 20.666 65.7207 18.3569 71.3563L10.0768 71.3785Z" fill="#FEDA56"/>
<path d="M18.3569 71.3563C20.6592 65.7172 22.9575 60.0771 25.2518 54.4357C25.4329 53.9884 25.561 53.9235 25.935 54.2462C28.7417 56.6503 31.5552 59.0463 34.3756 61.4345C38.1626 64.6478 41.9508 67.8589 45.7401 71.0678C45.8443 71.1548 45.9348 71.2573 46.0322 71.3529C45.8289 71.3631 45.6257 71.3853 45.4225 71.3853H18.9001C18.719 71.3853 18.538 71.3666 18.3569 71.3563Z" fill="#4CE066"/>
<path d="M58.1364 71.3788C56.9409 70.1632 55.6087 69.108 54.3346 67.9845C51.6019 65.5685 48.8402 63.1712 46.0477 60.7296C46.321 60.5589 46.5704 60.6306 46.8009 60.6306C51.73 60.6306 56.6585 60.6306 61.5865 60.6306C61.858 60.6306 62.1313 60.6135 62.4028 60.605L62.5326 60.6562C63.4993 62.9937 64.4814 65.3243 65.4259 67.6703C65.9229 68.9048 66.5377 70.0914 66.9015 71.3771L58.1364 71.3788Z" fill="#A7EDFB"/>
<path d="M59.395 53.1123H43.1697C45.648 50.5276 47.9763 47.8032 50.1431 44.9525L56.1209 44.9798C56.3207 46.0043 56.8229 46.9212 57.214 47.8825C57.9313 49.6274 58.6742 51.3673 59.395 53.1123Z" fill="#4CE066"/>
<path d="M66.9012 71.3716C66.5306 70.0928 65.9226 68.8976 65.4256 67.6648C64.4811 65.312 63.499 62.9882 62.5323 60.6507L67.2326 60.6029C67.9157 61.7844 68.3137 63.0906 68.8517 64.3336C69.6083 66.0786 70.312 67.8458 71.0327 69.6062C71.516 70.7877 71.1079 71.3938 69.8286 71.3938C68.8534 71.3921 67.8782 71.3785 66.9012 71.3716Z" fill="#7EE4F1"/>
<path d="M59.3949 53.1123C58.6657 51.3673 57.9313 49.6275 57.2139 47.8774C56.8228 46.9229 56.3207 46.0094 56.1208 44.9747L60.0645 44.9525C60.2821 44.9403 60.498 44.9978 60.6808 45.1166C60.8635 45.2354 61.0036 45.4094 61.0807 45.6133C62.1054 48.1198 63.1302 50.6314 64.1549 53.1414L59.3915 53.1499L59.3949 53.1123Z" fill="#44C869"/>
<path d="M59.3896 53.1573L64.1531 53.1488L67.2273 60.6051L62.5271 60.6512L62.3973 60.6C61.7859 59.077 61.1796 57.5523 60.5647 56.0309C60.1821 55.068 59.7825 54.1152 59.3896 53.1573Z" fill="#FEBB25"/>
<path d="M20.9477 44.994C19.8922 47.5432 18.8316 50.0907 17.7898 52.6467C17.7469 52.8087 17.6469 52.9498 17.5081 53.0439C17.3694 53.1381 17.2013 53.1789 17.0349 53.1589C14.1809 53.1367 11.3253 53.1418 8.4696 53.1384C9.47956 50.6684 10.4889 48.1977 11.4978 45.7265C11.5817 45.4897 11.7412 45.287 11.9517 45.1497C12.1622 45.0125 12.4119 44.9481 12.6626 44.9667L20.9477 44.994Z" fill="#4DE066"/>
</g>
<defs>
<clipPath id="clip0_6204_16142">
<rect width="69.7705" height="69.7705" fill="white" transform="translate(1.45862 1.62512)"/>
</clipPath>
</defs>
</svg>
