<svg width="63" height="70" viewBox="0 0 63 70" fill="none" xmlns="http://www.w3.org/2000/svg">
<g clip-path="url(#clip0_6204_16007)">
<path d="M7.79211 69.5715C7.79211 66.1662 7.79211 62.7603 7.79211 59.3538C7.79211 59.0163 7.79211 58.6788 8.01887 58.3953C8.32063 58.0274 8.73663 57.8688 9.16797 58.0359C9.38225 58.1125 9.5651 58.2568 9.68834 58.4465C9.81158 58.6362 9.86836 58.8607 9.84993 59.0855C9.83288 62.5803 9.83799 66.0768 9.83629 69.5715H7.79211Z" fill="#D4145A"/>
<path d="M1.80503 69.5717C1.10261 69.2713 0.894611 68.6975 0.894611 67.9956C0.927004 65.1926 0.829824 62.3897 0.950872 59.5868C1.16739 54.5463 4.44933 49.9934 9.23669 48.3025C11.9373 47.3474 14.7094 46.5881 17.4492 45.7393C18.1721 46.5678 18.8932 47.3981 19.6195 48.2216C20.7021 49.4517 21.8359 50.6431 22.8588 51.9138C24.025 53.3498 25.2559 53.77 27.041 53.1777C28.2639 52.7727 29.4858 52.3683 30.7065 51.9644C30.9418 51.8868 31.1941 51.8463 31.3544 51.6269H31.5538C31.6311 51.7054 31.7202 51.7715 31.8181 51.8227C33.2485 52.3053 34.6721 52.8065 36.1179 53.2385C36.5909 53.3862 37.0919 53.4249 37.5824 53.3515C39.1696 53.1068 40.0135 51.9323 40.9734 50.8709C41.9622 49.774 42.8386 48.5759 43.9638 47.6039C44.0552 47.6614 44.1523 47.7095 44.2536 47.7474C47.7879 48.6924 50.5618 50.6583 52.4372 53.7903C53.2095 55.0812 53.8198 56.4464 53.9153 57.9803C53.3561 58.1491 53.0765 58.5068 53.0799 59.1126C53.0935 62.5973 53.0901 66.0836 53.0918 69.575H9.8334C9.8334 66.0803 9.8334 62.5838 9.84704 59.089C9.86547 58.8642 9.80869 58.6397 9.68545 58.45C9.56221 58.2603 9.37936 58.116 9.16508 58.0394C8.73374 57.8706 8.31263 58.0309 8.01598 58.3988C7.78411 58.6806 7.78923 59.0181 7.78923 59.3573C7.78923 62.7626 7.78923 66.1686 7.78923 69.575L1.80503 69.5717ZM18.3426 58.5169C17.0502 58.5169 15.7579 58.5287 14.4656 58.5169C13.8246 58.5085 13.5433 58.8544 13.5296 59.4197C13.5041 60.4508 13.5006 61.4835 13.5296 62.5146C13.5518 63.2605 13.8399 63.5136 14.5935 63.5153C17.0861 63.5153 19.5792 63.5153 22.0729 63.5153C22.7872 63.5153 23.0379 63.252 23.043 62.5298C23.0498 61.5173 23.0498 60.5076 23.043 59.5007C23.043 58.7279 22.823 58.527 22.02 58.5237C20.784 58.5119 19.5599 58.5169 18.3357 58.5169H18.3426Z" fill="#FF4C4C"/>
<path d="M53.9259 57.9871C53.8304 56.4532 53.22 55.088 52.4477 53.7971C50.5723 50.6651 47.8019 48.6992 44.2642 47.7542C44.1629 47.7163 44.0658 47.6682 43.9744 47.6107C44.3546 46.8902 45.0229 46.3957 45.4781 45.7343C48.3321 46.5611 51.2168 47.3137 53.977 48.4039C58.9656 50.3748 62.0139 54.9851 62.0531 60.385C62.0702 62.8758 62.0429 65.3648 62.0651 67.8539C62.0651 68.5761 61.8946 69.1684 61.2638 69.5751H55.1432C55.1432 66.1551 55.1432 62.7346 55.1432 59.3135C55.1415 58.3854 54.838 58.0597 53.9259 57.9871Z" fill="#EF2929"/>
<path d="M53.9258 57.9871C54.838 58.063 55.1414 58.3887 55.1431 59.3134C55.1431 62.7345 55.1431 66.1551 55.1431 69.5751H53.0973C53.0973 66.0904 53.0973 62.604 53.0853 59.1126C53.087 58.5102 53.3666 58.1558 53.9258 57.9871Z" fill="#D4145A"/>
<path d="M11.8827 20.081C11.9117 17.9109 11.9032 15.7374 12.5135 13.623C14.3633 7.23076 18.5284 3.11835 24.9337 1.20811C25.7697 0.930837 26.6436 0.78174 27.5252 0.765991C27.6233 0.814307 27.7261 0.852749 27.832 0.88074C30.1382 1.24552 32.3412 2.08544 34.2987 3.34616C37.2781 5.22398 39.6162 7.94746 41.0075 11.1609C41.7723 12.858 42.2227 14.6774 42.3373 16.5322C41.9401 16.1458 41.756 15.6311 41.5463 15.1451C41.3604 14.7182 41.1678 14.7485 40.8472 14.9865C40.2198 15.4539 39.5737 15.9011 38.9361 16.355C36.2287 18.0273 33.4514 19.5612 30.4644 20.7037C26.8091 22.1043 23.0634 22.9919 19.1081 22.867C18.0851 22.835 17.0895 22.6696 16.0802 22.5785C15.1749 22.3203 14.2559 22.1127 13.3642 21.8005C12.5425 21.5137 11.7207 21.2757 11.9117 20.1401C11.9151 20.1215 11.8929 20.0996 11.8827 20.081Z" fill="#FC9727"/>
<path d="M16.0802 22.5781C17.0895 22.6692 18.0885 22.8346 19.1081 22.8666C23.0634 22.9915 26.8091 22.1039 30.4644 20.7033C33.4514 19.5592 36.2287 18.0269 38.9361 16.3546C39.1833 16.5706 39.0827 16.8609 39.0827 17.1157C39.0827 19.8511 39.0827 22.5865 39.0827 25.3219C39.0748 27.1322 38.7791 28.93 38.2064 30.6493C37.7546 32.0466 36.955 33.2666 36.2253 34.5306C35.5808 34.6453 34.9398 34.7972 34.2885 34.8681C32.5205 35.0587 31.6118 36.6264 32.5972 38.1924C32.4435 38.2235 32.2941 38.2728 32.1523 38.3392C30.9177 39.1274 29.5785 39.7419 28.173 40.1651C28.1429 40.1687 28.114 40.1794 28.0889 40.1963C28.0638 40.2132 28.0432 40.2359 28.0288 40.2624C28.0145 40.2889 28.0067 40.3184 28.0063 40.3484C28.0059 40.3785 28.0128 40.4082 28.0264 40.4351C30.464 40.9645 32.9922 40.9293 35.4137 40.3322C36.1605 40.1634 36.8288 39.7415 37.6045 39.674L37.5892 40.7405C37.6216 41.2687 37.6113 41.7935 37.6898 42.3251C37.8296 43.2684 38.4553 43.8438 39.1065 44.4108C38.9548 44.5796 38.8133 44.7483 38.653 44.9002L31.5624 51.6299H31.3629C31.206 51.4696 31.0543 51.3042 30.8906 51.149L23.7215 44.3771C25.2082 43.589 25.3651 42.2188 25.3412 40.7658C25.5117 39.8462 25.0275 39.431 24.2279 39.0142C21.3919 37.5516 19.1023 35.2304 17.693 32.3891C17.1184 31.2619 16.7962 30.0537 16.3768 28.8758C16.0086 26.79 16.0682 24.6824 16.0802 22.5781Z" fill="#FDD8A7"/>
<path d="M42.337 16.5319C42.2224 14.6771 41.7719 12.8577 41.0071 11.1606C39.6158 7.94716 37.2778 5.22367 34.2983 3.34586C32.3409 2.08513 30.1378 1.24521 27.8317 0.880433C27.7257 0.852442 27.6229 0.813999 27.5248 0.765684C27.8613 0.639877 28.2213 0.587496 28.5801 0.612122C29.985 0.612122 31.3881 0.612122 32.7912 0.612122C37.6587 0.639122 41.7829 2.42449 45.2216 5.80622C47.6869 8.23451 49.1924 11.1927 49.9459 14.5305C50.3432 16.2889 50.2426 18.0878 50.2733 19.8731C50.2506 20.1166 50.2449 20.3613 50.2562 20.6055C50.3244 21.1776 50.113 21.2805 49.5743 21.1539C48.6553 20.9539 47.7553 20.6767 46.8839 20.3254C46.6384 20.214 46.3844 20.1195 46.1508 19.9879C44.6028 19.1256 43.1758 18.1502 42.337 16.5319Z" fill="#FE6D3A"/>
<path d="M16.3817 28.8761C16.8011 30.0573 17.1234 31.2622 17.6979 32.3894C19.1072 35.2307 21.3968 37.5519 24.2328 39.0145C25.0324 39.4313 25.5081 39.8464 25.3461 40.7661C23.8645 40.5586 22.4478 40.0911 20.9918 39.7536C19.4284 39.3942 17.8786 38.9774 16.3204 38.5977C13.5073 37.9109 12.0581 36.2352 11.9456 33.38C11.8859 31.8359 11.9456 30.2868 11.9456 28.7394C13.422 29.0246 14.9053 28.8305 16.3817 28.8761Z" fill="#FC9728"/>
<path d="M23.7262 44.3772L30.9004 51.1491C31.0709 51.3043 31.2158 51.4697 31.3727 51.63C31.2124 51.846 30.9601 51.8865 30.7248 51.9675C29.503 52.3691 28.2811 52.7735 27.0593 53.1808C25.2743 53.7714 24.0433 53.3495 22.8772 51.9169C21.844 50.6462 20.7137 49.4548 19.6379 48.2246C18.9116 47.4011 18.1904 46.5709 17.4675 45.7423C19.1537 45.2057 20.8364 44.659 22.5277 44.1409C22.7316 44.0786 22.9479 44.0676 23.1572 44.1088C23.3664 44.1501 23.562 44.2423 23.7262 44.3772Z" fill="#D4145A"/>
<path d="M31.5677 51.6298L38.6584 44.9001C38.8187 44.7466 38.9602 44.5744 39.1119 44.4107C39.6524 44.0159 40.2133 44.0327 40.8339 44.242C42.3683 44.7634 43.9607 45.1465 45.4814 45.7304C45.0262 46.3919 44.3579 46.8863 43.9777 47.6069C42.8525 48.5788 41.9762 49.777 40.9873 50.8738C40.0275 51.9353 39.1835 53.1098 37.5963 53.3544C37.1058 53.4278 36.6048 53.3892 36.1318 53.2414C34.686 52.8094 33.2624 52.3082 31.832 51.8256C31.7341 51.7744 31.645 51.7083 31.5677 51.6298Z" fill="#D4145A"/>
<path d="M46.8707 20.3257C47.742 20.677 48.6421 20.9542 49.561 21.1542C50.1066 21.2808 50.318 21.1778 50.243 20.6058C50.2316 20.3616 50.2373 20.1169 50.26 19.8734C51.4688 20.0422 52.1354 20.7442 52.1456 21.9254C52.1593 23.4441 52.1456 24.9747 52.1456 26.4985C52.1456 27.9734 51.6819 28.5555 50.2327 28.9065L49.4127 28.888C48.7043 28.692 47.9556 28.6891 47.2457 28.8795L46.6899 28.8559L46.5859 28.7665C46.6303 27.943 46.8485 27.1414 46.8417 26.3061C46.8331 24.3132 46.8604 22.3186 46.8707 20.3257Z" fill="#3E6687"/>
<path d="M16.3816 28.8763C14.9051 28.8308 13.4219 29.0248 11.9488 28.7447C11.0486 28.2283 10.7315 27.4487 10.7554 26.4362C10.8014 24.936 10.7673 23.4342 10.7673 21.934C10.7673 21.1021 11.1083 20.4659 11.8721 20.0778C11.8823 20.0963 11.9045 20.1183 11.9011 20.1368C11.7101 21.2725 12.5319 21.5104 13.3537 21.7973C14.2453 22.1095 15.1643 22.3171 16.0696 22.5752C16.0679 24.6829 16.0082 26.7906 16.3816 28.8763Z" fill="#3F6786"/>
<path d="M49.423 28.8878L50.243 28.9064C50.243 30.4082 50.243 31.9112 50.243 33.4154C50.243 35.9331 48.891 37.8113 46.4326 38.5014C43.5922 39.3013 40.7211 39.9966 37.8637 40.734C37.7737 40.7442 37.6827 40.7442 37.5927 40.734L37.608 39.6675C37.8978 39.4093 38.2678 39.2929 38.6002 39.1089C39.809 38.4339 41.0246 37.7589 41.9401 36.6874V36.7009L42.0834 36.6064C42.9273 36.4596 43.7712 36.3178 44.6134 36.1609C47.0105 35.7171 48.6114 34.384 49.2439 32.0181C49.5133 30.9989 49.3923 29.9357 49.423 28.8878Z" fill="#FD6E3B"/>
<path d="M17.8462 58.0378C19.1997 58.0378 20.5532 58.0378 21.9067 58.0378C22.8002 58.0378 23.0377 58.2937 23.0377 59.2622C23.0453 60.5309 23.0453 61.7962 23.0377 63.0579C23.0377 63.963 22.755 64.2907 21.9651 64.2928C19.2091 64.2928 16.4524 64.2928 13.6952 64.2928C12.8619 64.2928 12.5434 63.9735 12.5189 63.0389C12.4868 61.7469 12.4906 60.4527 12.5189 59.1607C12.5339 58.4502 12.845 58.0188 13.5538 58.0294C14.9883 58.0526 16.4172 58.0378 17.8462 58.0378Z" fill="#FF4C4C"/>
<path d="M46.8709 20.3254C46.8607 22.3183 46.8334 24.313 46.8521 26.3059C46.8521 27.1496 46.6407 27.9427 46.5964 28.7662C46.5792 28.8007 46.5727 28.8395 46.5776 28.8776C46.0941 30.6945 45.3476 32.4326 44.3613 34.038L39.2022 34.9813C38.3242 34.1156 37.2757 34.3366 36.2323 34.5189C36.962 33.2634 37.7667 32.0433 38.2134 30.6377C38.7831 28.9219 39.0771 27.1282 39.0846 25.3221C39.0846 22.5867 39.0846 19.8512 39.0846 17.1158C39.0846 16.8593 39.1852 16.5708 38.938 16.3548C39.5756 15.9008 40.2218 15.4536 40.8492 14.9862C41.1697 14.7483 41.3606 14.7179 41.5482 15.1448C41.7579 15.6308 41.942 16.1455 42.3393 16.5319C43.1729 18.1502 44.6051 19.1256 46.1395 19.9879C46.3713 20.1195 46.6254 20.214 46.8709 20.3254Z" fill="#F3C791"/>
<path d="M36.2259 34.519C37.2693 34.3368 38.3178 34.1157 39.1958 34.9814C39.3972 35.2713 39.5377 35.5983 39.6089 35.943C39.6801 36.2877 39.6805 36.643 39.6101 36.9878C39.2691 37.6628 38.7969 38.1691 38.0177 38.3193C36.9948 38.5066 35.9719 38.6821 34.9489 38.8542C34.0572 39.0044 33.244 38.8761 32.5927 38.1792C31.6073 36.6132 32.516 35.0455 34.284 34.8549C34.9404 34.7857 35.5814 34.6338 36.2259 34.519Z" fill="#005294"/>
<path d="M32.6061 38.1807C33.254 38.8759 34.0706 39.0042 34.9623 38.8557C35.9852 38.6869 37.0082 38.5081 38.0311 38.3207C38.8102 38.1756 39.2876 37.6626 39.6235 36.9893C40.4111 36.9707 41.1579 36.6602 41.9558 36.6957C41.0402 37.7706 39.8247 38.4405 38.6159 39.1172C38.2834 39.3012 37.9135 39.4176 37.6236 39.6758C36.8479 39.7433 36.1796 40.1584 35.4328 40.3339C33.0113 40.9311 30.4831 40.9663 28.0455 40.4369C28.0319 40.41 28.025 40.3803 28.0254 40.3502C28.0258 40.3201 28.0336 40.2906 28.0479 40.2642C28.0623 40.2377 28.0829 40.215 28.108 40.1981C28.1331 40.1811 28.162 40.1704 28.1921 40.1669C29.5964 39.7395 30.9339 39.121 32.1662 38.3292C32.3064 38.2625 32.454 38.2126 32.6061 38.1807Z" fill="#F3C791"/>
<path d="M41.9418 36.6945C41.1473 36.6591 40.3971 36.9696 39.6095 36.9882C39.6798 36.6433 39.6794 36.288 39.6083 35.9433C39.5371 35.5986 39.3966 35.2716 39.1952 34.9817L44.3542 34.0384C45.1128 33.9682 45.8212 33.6327 46.3524 33.0921C46.8836 32.5515 47.2027 31.8412 47.2526 31.0887C47.2935 30.3546 47.2526 29.6155 47.2526 28.8798C47.9624 28.6893 48.7111 28.6922 49.4195 28.8882C49.3888 29.9361 49.5098 30.9993 49.2354 32.0252C48.6028 34.3877 47.0019 35.7242 44.6048 36.168C43.7626 36.325 42.9187 36.4667 42.0748 36.6135C42.0032 36.6135 41.9401 36.6135 41.9316 36.708L41.9418 36.6945Z" fill="#416685"/>
<path d="M47.2561 28.8792C47.2561 29.615 47.2919 30.3541 47.2561 31.0881C47.2063 31.8406 46.8872 32.5509 46.356 33.0915C45.8248 33.6321 45.1164 33.9676 44.3578 34.0379C45.3441 32.4326 46.0907 30.6944 46.5742 28.8775C46.6164 28.8833 46.6594 28.8756 46.6969 28.8556L47.2561 28.8792Z" fill="#FD6E3B"/>
<path d="M46.7003 28.8566C46.6628 28.8768 46.6199 28.8846 46.5778 28.8788C46.5728 28.8403 46.5794 28.8013 46.5965 28.7665L46.7003 28.8566Z" fill="#416685"/>
<path d="M41.9351 36.7082C41.9436 36.6164 42.0065 36.6079 42.078 36.613L41.9351 36.7082Z" fill="#F3C791"/>
</g>
<defs>
<clipPath id="clip0_6204_16007">
<rect width="61.1735" height="68.9593" fill="white" transform="translate(0.894653 0.612061)"/>
</clipPath>
</defs>
</svg>
