<svg width="387" height="113" viewBox="0 0 387 113" fill="none" xmlns="http://www.w3.org/2000/svg">
<g clip-path="url(#clip0_6572_177494)">
<path d="M361.11 32.9148C357.918 29.9744 355.506 26.4129 353.15 22.8223C348.456 15.6701 344.659 8.02309 341.078 0C340.486 1.42169 340.937 2.6687 341.09 3.83323C341.981 10.7064 344.472 17.087 347.24 23.3876C350.86 31.6193 354.883 39.6909 357.5 48.3302C358.602 51.9694 359.812 55.594 360.04 59.4345C362.304 73.3602 359.169 86.2355 352.473 98.4218C349.844 103.198 346.808 107.738 343.4 111.993C343.225 112.214 343.082 112.459 342.813 112.855C365.341 99.4019 380.677 76.4778 385.408 46.467C385.502 45.6639 385.619 44.8609 385.687 44.0554C385.825 42.4081 386.415 40.7754 385.857 39.1062V39.0892C385.848 39.1353 385.831 39.1793 385.805 39.2182C385.779 39.2572 385.745 39.2903 385.706 39.3156C385.666 39.3409 385.622 39.3578 385.576 39.3652C385.529 39.3726 385.482 39.3703 385.437 39.3585C381.997 41.3698 378.159 42.0952 374.384 41.394C370.837 40.7341 367.59 38.8418 364.805 36.4254C363.532 35.3118 362.343 34.0891 361.11 32.9148Z" fill="#1A723D"/>
<path d="M32.9811 62.7945C35.6547 63.9427 37.7834 66.0766 38.9251 68.753C39.5172 70.1221 39.8187 71.5992 39.8106 73.0908C39.8174 74.592 39.5152 76.0785 38.9226 77.4578C37.7891 80.1485 35.6556 82.2942 32.9714 83.443C31.6037 84.037 30.1271 84.3394 28.636 84.3309H4.30955C3.89605 84.338 3.48555 84.2597 3.10362 84.1011C2.72169 83.9425 2.37653 83.7069 2.08967 83.409C1.50323 82.8131 1.17456 82.0106 1.17456 81.1746C1.17456 80.3385 1.50323 79.536 2.08967 78.9401C2.37645 78.6421 2.72159 78.4065 3.10353 78.2478C3.48548 78.0892 3.89603 78.0111 4.30955 78.0182H28.5996C29.2563 78.0223 29.907 77.8918 30.5114 77.6349C31.0982 77.3891 31.6295 77.0277 32.0738 76.5723C32.5118 76.1196 32.8651 75.5921 33.117 75.0147C33.3825 74.4101 33.5165 73.756 33.51 73.0957C33.5113 72.4445 33.3775 71.8001 33.117 71.2033C32.8741 70.6211 32.5197 70.092 32.0738 69.6458C31.6231 69.2049 31.0929 68.8533 30.5114 68.6098C29.9096 68.3522 29.2615 68.2201 28.6069 68.2217H12.124C10.6268 68.2284 9.14422 67.9262 7.76916 67.3337C5.07289 66.2011 2.92894 64.0554 1.79854 61.3582C1.20923 59.9857 0.907834 58.5068 0.913017 57.0131C0.904497 55.5243 1.20693 54.0501 1.80097 52.685C2.37409 51.3564 3.18845 50.1455 4.2028 49.1137C5.22473 48.079 6.43968 47.2547 7.77886 46.6876C9.15845 46.0963 10.6449 45.7949 12.1458 45.8021H36.4165C36.8297 45.7952 37.24 45.8733 37.6219 46.0314C38.0037 46.1896 38.349 46.4245 38.6364 46.7216C39.0852 47.1587 39.393 47.7202 39.5202 48.3337C39.6473 48.9473 39.5879 49.5848 39.3497 50.1643C39.1115 50.7438 38.7053 51.2388 38.1834 51.5855C37.6616 51.9323 37.0479 52.1149 36.4213 52.11H12.1749C11.508 52.1028 10.8469 52.235 10.2341 52.4981C9.65425 52.7487 9.12609 53.1049 8.67652 53.5486C8.2218 53.9992 7.85921 54.534 7.60904 55.1232C7.35131 55.7221 7.21839 56.3672 7.21839 57.0192C7.21839 57.6711 7.35131 58.3163 7.60904 58.9152C7.86445 59.4936 8.2266 60.0187 8.67652 60.463C9.12784 60.9092 9.65856 61.2671 10.2413 61.5184C10.8539 61.7827 11.5152 61.9149 12.1822 61.9065H28.6603C30.1466 61.8993 31.6181 62.2017 32.9811 62.7945Z" fill="#39B54A"/>
<path d="M80.8212 45.5329C81.2388 45.5228 81.654 45.5988 82.0409 45.7561C82.4278 45.9135 82.7782 46.1488 83.0702 46.4475C83.3668 46.7441 83.6 47.098 83.7555 47.4875C83.9111 47.877 83.9858 48.2942 83.9751 48.7135V73.3772C83.9866 74.8832 83.6851 76.3753 83.0896 77.7587C81.9292 80.4494 79.7835 82.5943 77.0923 83.7536C75.714 84.349 74.2267 84.6506 72.7253 84.6391H56.6379C55.1365 84.6508 53.6492 84.3492 52.2709 83.7536C50.9441 83.1822 49.7411 82.3582 48.7288 81.3275C47.7177 80.2945 46.9059 79.0838 46.3343 77.7563C45.7388 76.3729 45.4372 74.8808 45.4487 73.3747V48.7135C45.4375 48.2941 45.5119 47.8768 45.6675 47.4872C45.8231 47.0976 46.0566 46.7438 46.3537 46.4475C46.9558 45.8608 47.7632 45.5325 48.6039 45.5325C49.4446 45.5325 50.252 45.8608 50.8541 46.4475C51.1506 46.7452 51.3836 47.0999 51.5392 47.4902C51.6947 47.8805 51.7695 48.2983 51.759 48.7183V73.4208C51.7507 74.0881 51.8838 74.7496 52.1496 75.3617C52.6493 76.5222 53.5749 77.4469 54.7358 77.9455C55.3288 78.2074 55.9703 78.3413 56.6185 78.3385H72.7617C73.4176 78.3399 74.0667 78.2061 74.6686 77.9455C75.2533 77.7018 75.7854 77.3476 76.2359 76.9023C76.677 76.4581 77.0316 75.9357 77.2815 75.3617C77.5462 74.7492 77.6793 74.088 77.6721 73.4208V48.7183C77.6616 48.2983 77.7364 47.8805 77.892 47.4902C78.0475 47.0999 78.2806 46.7452 78.5771 46.4475C78.8686 46.1496 79.2182 45.9146 79.6042 45.7573C79.9902 45.6 80.4044 45.5236 80.8212 45.5329Z" fill="#39B54A"/>
<path d="M121.732 62.7946C124.406 63.9428 126.535 66.0767 127.676 68.7531C128.27 70.1218 128.571 71.5992 128.562 73.0909C128.569 74.5921 128.266 76.0786 127.674 77.4579C127.111 78.7942 126.296 80.0093 125.272 81.0364C124.251 82.055 123.047 82.8715 121.723 83.4431C120.356 84.0369 118.88 84.3393 117.39 84.331H93.0511C92.6377 84.3378 92.2273 84.2594 91.8454 84.1008C91.4635 83.9422 91.1183 83.7068 90.8313 83.4091C90.2466 82.8123 89.9191 82.0102 89.9191 81.1747C89.9191 80.3392 90.2466 79.537 90.8313 78.9402C91.1177 78.6433 91.4621 78.4084 91.8432 78.2502C92.2242 78.092 92.6338 78.0139 93.0463 78.0208H117.346C118 78.0223 118.647 77.8902 119.248 77.6326C119.836 77.3874 120.368 77.0259 120.813 76.5699C121.249 76.116 121.603 75.5888 121.856 75.0124C122.12 74.4073 122.253 73.7534 122.247 73.0934C122.248 72.4425 122.115 71.7983 121.856 71.201C121.612 70.6197 121.257 70.0909 120.813 69.6435C120.362 69.202 119.831 68.8504 119.248 68.6075C118.647 68.3499 118 68.2178 117.346 68.2193H100.868C99.3716 68.2261 97.8898 67.9238 96.5156 67.3314C93.8202 66.1999 91.6764 64.0561 90.545 61.3608C89.9535 59.988 89.6512 58.508 89.657 57.0132C89.6485 55.5244 89.951 54.0502 90.545 52.6851C91.1181 51.3565 91.9325 50.1456 92.9468 49.1138C93.9687 48.0791 95.1837 47.2548 96.5229 46.6877C97.9025 46.0966 99.3889 45.7951 100.89 45.8022H125.163C125.576 45.7955 125.986 45.8736 126.367 46.0318C126.749 46.19 127.093 46.4248 127.38 46.7217C127.829 47.1588 128.137 47.7203 128.264 48.3338C128.391 48.9474 128.332 49.5849 128.094 50.1644C127.856 50.7439 127.449 51.2389 126.927 51.5856C126.406 51.9324 125.792 52.115 125.165 52.1101H100.921C100.254 52.103 99.5934 52.2352 98.9805 52.4982C98.3986 52.7508 97.8687 53.1095 97.4181 53.556C96.9626 54.0064 96.5992 54.5412 96.3482 55.1306C96.0905 55.7294 95.9576 56.3746 95.9576 57.0265C95.9576 57.6785 96.0905 58.3237 96.3482 58.9225C96.6045 59.5011 96.9675 60.0262 97.4181 60.4704C97.8687 60.9163 98.3986 61.2742 98.9805 61.5257C99.5931 61.7899 100.254 61.9222 100.921 61.9139H117.397C118.888 61.9021 120.364 62.2021 121.732 62.7946Z" fill="#006838"/>
<path d="M171.259 79.8961C171.447 80.2691 171.558 80.6763 171.585 81.0931C171.612 81.51 171.555 81.928 171.416 82.3222C171.291 82.7124 171.087 83.0731 170.818 83.3825C170.549 83.6919 170.221 83.9436 169.852 84.1224C169.409 84.3206 168.93 84.4263 168.444 84.4329C167.867 84.4378 167.299 84.2852 166.802 83.9914C166.293 83.6908 165.884 83.2458 165.628 82.7128L152.228 55.9093L138.885 82.7104C138.715 83.0885 138.467 83.4261 138.157 83.7005C137.846 83.975 137.481 84.18 137.085 84.3019C136.284 84.5633 135.412 84.4979 134.659 84.12C134.281 83.9505 133.943 83.7022 133.669 83.3917C133.394 83.0813 133.189 82.7158 133.067 82.3198C132.805 81.5186 132.871 80.6462 133.252 79.8937L149.468 47.5126C149.734 47.0023 150.13 46.5707 150.615 46.2608C151.096 45.9491 151.658 45.7862 152.231 45.7925C152.812 45.7895 153.381 45.9519 153.873 46.2608C154.369 46.5655 154.774 46.9979 155.045 47.5126L171.259 79.8961Z" fill="#006838"/>
<path d="M208.019 62.7946C210.694 63.9409 212.823 66.0754 213.963 68.7531C214.557 70.1216 214.859 71.599 214.851 73.0909C214.858 74.5921 214.555 76.0786 213.963 77.4579C212.829 80.1493 210.695 82.2952 208.009 83.4431C206.642 84.0371 205.167 84.3395 203.676 84.331H179.345C178.932 84.3307 178.523 84.2488 178.142 84.0899C177.76 83.931 177.414 83.6983 177.123 83.4052C176.832 83.1121 176.602 82.7644 176.446 82.382C176.289 81.9996 176.21 81.5902 176.213 81.1771C176.205 80.7622 176.282 80.3501 176.439 79.966C176.596 79.5818 176.829 79.2336 177.125 78.9427C177.412 78.6456 177.757 78.4107 178.138 78.2526C178.52 78.0944 178.93 78.0163 179.342 78.0232H203.64C204.294 78.025 204.941 77.8929 205.542 77.635C206.13 77.3898 206.662 77.0284 207.107 76.5724C207.544 76.1191 207.897 75.5917 208.15 75.0148C208.414 74.4097 208.547 73.7558 208.54 73.0958C208.541 72.4449 208.408 71.8007 208.15 71.2034C207.906 70.6216 207.552 70.0927 207.107 69.6459C206.656 69.2044 206.124 68.8528 205.542 68.6099C204.941 68.352 204.294 68.2199 203.64 68.2218H187.162C185.665 68.2283 184.184 67.926 182.809 67.3338C180.114 66.2024 177.97 64.0585 176.839 61.3632C176.248 59.9895 175.946 58.5086 175.953 57.0132C175.945 55.5247 176.247 54.0507 176.839 52.685C177.412 51.3565 178.226 50.1456 179.241 49.1138C180.263 48.079 181.479 47.2548 182.819 46.6877C184.199 46.0962 185.685 45.7948 187.186 45.8022H211.457C211.87 45.7956 212.28 45.8738 212.662 46.0319C213.044 46.1901 213.389 46.4248 213.676 46.7217C214.124 47.1593 214.431 47.7207 214.557 48.3338C214.684 48.9469 214.624 49.5838 214.386 50.1628C214.148 50.7418 213.743 51.2365 213.221 51.5835C212.7 51.9304 212.087 52.1138 211.461 52.1101H187.215C186.552 52.1041 185.895 52.2363 185.286 52.4982C184.703 52.7502 184.173 53.109 183.722 53.556C183.267 54.0071 182.904 54.5417 182.652 55.1305C182.394 55.7294 182.261 56.3746 182.261 57.0265C182.261 57.6785 182.394 58.3236 182.652 58.9225C183.176 60.0891 184.12 61.0157 185.296 61.5184C185.905 61.7815 186.562 61.9137 187.225 61.9066H203.7C205.186 61.8989 206.657 62.2013 208.019 62.7946Z" fill="#006838"/>
<path d="M257.659 48.7645C257.661 49.1758 257.581 49.5834 257.424 49.9637C257.267 50.344 257.037 50.6895 256.746 50.9802C256.455 51.271 256.109 51.5012 255.729 51.6577C255.349 51.8141 254.941 51.8937 254.53 51.8917H222.505C222.085 51.9028 221.667 51.8276 221.276 51.6707C220.886 51.5138 220.532 51.2786 220.237 50.9795C219.943 50.6916 219.711 50.3465 219.556 49.9655C219.401 49.5845 219.325 49.1758 219.334 48.7645C219.326 48.3445 219.402 47.927 219.559 47.5373C219.716 47.1475 219.95 46.7934 220.247 46.4964C220.544 46.1993 220.898 45.9653 221.288 45.8085C221.677 45.6517 222.095 45.5753 222.515 45.5839H254.539C254.952 45.5765 255.361 45.6537 255.742 45.8106C256.124 45.9674 256.469 46.2007 256.757 46.4961C257.053 46.793 257.286 47.1473 257.442 47.5374C257.597 47.9274 257.671 48.3449 257.659 48.7645ZM235.339 60.9144C235.332 60.4948 235.409 60.0779 235.566 59.6888C235.724 59.2997 235.958 58.9464 236.255 58.6501C236.552 58.3538 236.906 58.1205 237.296 57.9643C237.685 57.8081 238.103 57.7322 238.522 57.7411C238.934 57.7337 239.344 57.8108 239.725 57.9677C240.107 58.1246 240.452 58.3579 240.74 58.6533C241.038 58.9493 241.273 59.3032 241.43 59.6933C241.587 60.0834 241.662 60.5014 241.652 60.9217V81.4634C241.654 81.8749 241.574 82.2828 241.418 82.6634C241.261 83.0439 241.03 83.3897 240.739 83.6807C240.448 83.9717 240.103 84.2022 239.722 84.3588C239.342 84.5154 238.934 84.595 238.522 84.5931C238.1 84.6049 237.68 84.5295 237.288 84.3717C236.896 84.2139 236.54 83.9771 236.244 83.676C235.948 83.3884 235.715 83.0433 235.558 82.6618C235.401 82.2804 235.324 81.8709 235.332 81.4586L235.339 60.9144Z" fill="#006838"/>
<path d="M265.428 84.3795C265.008 84.3881 264.59 84.3117 264.2 84.1549C263.811 83.9981 263.457 83.7641 263.159 83.467C262.862 83.17 262.628 82.8159 262.472 82.4262C262.315 82.0364 262.238 81.6189 262.247 81.1989V48.9755C262.238 48.5555 262.315 48.138 262.472 47.7483C262.628 47.3585 262.862 47.0044 263.159 46.7074C263.457 46.4103 263.811 46.1763 264.2 46.0195C264.59 45.8627 265.008 45.7863 265.428 45.7949C265.84 45.7879 266.249 45.8654 266.63 46.0227C267.011 46.1801 267.356 46.4138 267.643 46.7095C267.942 47.0068 268.177 47.3619 268.334 47.7532C268.49 48.1445 268.566 48.5638 268.555 48.9852V61.9575H294.575V48.9852C294.564 48.5638 294.639 48.1445 294.796 47.7532C294.953 47.3619 295.188 47.0068 295.487 46.7095C295.774 46.4137 296.119 46.1799 296.5 46.0225C296.881 45.8652 297.29 45.7877 297.702 45.7949C298.122 45.7863 298.539 45.8627 298.929 46.0195C299.319 46.1763 299.673 46.4103 299.97 46.7074C300.267 47.0044 300.501 47.3585 300.658 47.7483C300.815 48.138 300.891 48.5555 300.883 48.9755V81.1989C300.891 81.6189 300.815 82.0364 300.658 82.4262C300.501 82.8159 300.267 83.17 299.97 83.467C299.673 83.7641 299.319 83.9981 298.929 84.1549C298.539 84.3117 298.122 84.3881 297.702 84.3795C297.29 84.3871 296.881 84.3101 296.5 84.1532C296.119 83.9963 295.774 83.7628 295.487 83.4673C295.188 83.1716 294.953 82.8178 294.796 82.4276C294.639 82.0375 294.564 81.6193 294.575 81.1989V68.2678H268.555V81.1989C268.566 81.6193 268.491 82.0375 268.334 82.4276C268.177 82.8178 267.942 83.1716 267.643 83.4673C267.355 83.7627 267.011 83.9961 266.63 84.153C266.249 84.3099 265.84 84.387 265.428 84.3795Z" fill="#006838"/>
<path d="M339.285 46.4719C341.999 47.6217 344.158 49.7821 345.307 52.4958C345.903 53.8877 346.205 55.3876 346.195 56.9016V73.1565C346.205 74.6705 345.903 76.1704 345.307 77.5623C344.158 80.276 341.999 82.4364 339.285 83.5863C337.893 84.1802 336.393 84.4816 334.879 84.4718H318.088C316.575 84.4813 315.075 84.1799 313.683 83.5863C310.969 82.4364 308.81 80.276 307.661 77.5623C307.066 76.1702 306.765 74.6703 306.776 73.1565V56.9016C306.765 55.3878 307.066 53.8879 307.661 52.4958C308.81 49.7821 310.969 47.6217 313.683 46.4719C315.075 45.8782 316.575 45.5768 318.088 45.5863H320.801C321.221 45.5778 321.638 45.6541 322.027 45.8107C322.417 45.9674 322.771 46.2011 323.068 46.4979C323.365 46.7948 323.599 47.1485 323.756 47.538C323.913 47.9275 323.99 48.3447 323.981 48.7645C323.988 49.1764 323.911 49.5854 323.754 49.9663C323.597 50.3472 323.364 50.6921 323.069 50.9795C322.773 51.2783 322.419 51.5134 322.029 51.6703C321.639 51.8272 321.221 51.9025 320.801 51.8917H318.088C317.43 51.8892 316.778 52.017 316.17 52.2677C315.561 52.5185 315.008 52.8873 314.543 53.3528C314.077 53.8184 313.709 54.3714 313.458 54.9801C313.208 55.5888 313.081 56.241 313.083 56.8992V73.154C313.081 73.8121 313.208 74.4643 313.459 75.0728C313.709 75.6813 314.078 76.2342 314.543 76.6996C315.008 77.1649 315.561 77.5335 316.17 77.784C316.778 78.0345 317.43 78.162 318.088 78.1591H334.879C335.538 78.162 336.19 78.0345 336.798 77.784C337.407 77.5335 337.96 77.1649 338.425 76.6996C338.89 76.2342 339.259 75.6813 339.509 75.0728C339.76 74.4643 339.887 73.8121 339.884 73.154V56.8992C339.887 56.241 339.76 55.5888 339.509 54.9801C339.259 54.3714 338.89 53.8184 338.425 53.3528C337.96 52.8873 337.407 52.5185 336.798 52.2677C336.19 52.017 335.538 51.8892 334.879 51.8917H332.167C331.747 51.9025 331.329 51.8272 330.939 51.6703C330.548 51.5134 330.195 51.2783 329.899 50.9795C329.604 50.6921 329.37 50.3472 329.214 49.9663C329.057 49.5854 328.979 49.1764 328.986 48.7645C328.978 48.3445 329.054 47.927 329.211 47.5373C329.368 47.1475 329.602 46.7934 329.899 46.4964C330.196 46.1993 330.55 45.9653 330.94 45.8085C331.33 45.6517 331.747 45.5753 332.167 45.5839H334.879C336.393 45.5748 337.893 45.8771 339.285 46.4719Z" fill="#006838"/>
<path d="M327.249 57.1709H326.196C324.761 57.1709 323.598 58.3342 323.598 59.7692V68.6488C323.598 70.0838 324.761 71.2471 326.196 71.2471H327.249C328.684 71.2471 329.848 70.0838 329.848 68.6488V59.7692C329.848 58.3342 328.684 57.1709 327.249 57.1709Z" fill="#3BB54A"/>
<path d="M146.792 70.689C146.792 69.8602 147.121 69.0654 147.707 68.4794C148.293 67.8934 149.088 67.5641 149.916 67.5641H154.339C155.168 67.5641 155.963 67.8934 156.549 68.4794C157.135 69.0654 157.464 69.8602 157.464 70.689C157.464 71.0994 157.384 71.5059 157.227 71.8851C157.07 72.2644 156.84 72.609 156.55 72.8992C156.259 73.1895 155.915 73.4196 155.535 73.5766C155.156 73.7335 154.75 73.8141 154.339 73.8138H149.916C149.088 73.8138 148.293 73.4845 147.707 72.8985C147.121 72.3125 146.792 71.5177 146.792 70.689Z" fill="#006838"/>
</g>
<defs>
<clipPath id="clip0_6572_177494">
<rect width="385.174" height="112.855" fill="white" transform="translate(0.912964)"/>
</clipPath>
</defs>
</svg>
