<svg width="73" height="73" viewBox="0 0 73 73" fill="none" xmlns="http://www.w3.org/2000/svg">
<path d="M13.418 34.3422C16.6273 34.3422 19.229 31.7639 19.229 28.5834C19.229 25.4029 16.6273 22.8246 13.418 22.8246C10.2086 22.8246 7.60693 25.4029 7.60693 28.5834C7.60693 31.7639 10.2086 34.3422 13.418 34.3422Z" fill="#F5061F"/>
<path d="M21.1779 38.373C18.244 40.5634 16.3259 44.0757 16.3259 48.02V48.7414H3.97144C2.78133 48.7414 1.79175 47.7608 1.79175 46.5814V45.1427C1.79175 40.7664 5.36644 37.2239 9.78249 37.2239H17.0496C18.5623 37.2239 19.9834 37.6559 21.1779 38.373Z" fill="#F5061F"/>
<path d="M59.9155 34.3422C63.1249 34.3422 65.7266 31.7639 65.7266 28.5834C65.7266 25.4029 63.1249 22.8246 59.9155 22.8246C56.7062 22.8246 54.1045 25.4029 54.1045 28.5834C54.1045 31.7639 56.7062 34.3422 59.9155 34.3422Z" fill="#F5061F"/>
<path d="M71.5419 45.1426V46.5812C71.5419 47.7606 70.5524 48.7413 69.3622 48.7413H57.0121V48.0198C57.0121 44.0755 55.094 40.5589 52.1602 38.3728C53.3503 37.6514 54.7758 37.2194 56.2885 37.2194H63.5556C67.9672 37.2237 71.5419 40.7662 71.5419 45.1426Z" fill="#F5061F"/>
<path d="M36.6663 35.7809C41.4815 35.7809 45.385 31.9125 45.385 27.1406C45.385 22.3687 41.4815 18.5002 36.6663 18.5002C31.851 18.5002 27.9475 22.3687 27.9475 27.1406C27.9475 31.9125 31.851 35.7809 36.6663 35.7809Z" fill="#91D63A"/>
<path d="M44.6573 40.1008H28.6714C24.2641 40.1008 20.6807 43.652 20.6807 48.0197V52.3399C20.6807 53.5322 21.6572 54.5 22.8604 54.5H50.4683C51.6715 54.5 52.648 53.5322 52.648 52.3399V48.0197C52.6524 43.6563 49.0646 40.1008 44.6573 40.1008Z" fill="#91D63A"/>
</svg>
