<svg width="16" height="22" viewBox="0 0 16 22" fill="none" xmlns="http://www.w3.org/2000/svg">
<path d="M16 21.3546H0V19.3546C0 18.0286 0.526784 16.7568 1.46447 15.8191C2.40215 14.8814 3.67392 14.3546 5 14.3546H11C12.3261 14.3546 13.5979 14.8814 14.5355 15.8191C15.4732 16.7568 16 18.0286 16 19.3546V21.3546ZM8 12.3546C7.21207 12.3546 6.43185 12.1994 5.7039 11.8979C4.97595 11.5964 4.31451 11.1544 3.75736 10.5973C3.20021 10.0401 2.75825 9.3787 2.45672 8.65075C2.15519 7.92279 2 7.14258 2 6.35464C2 5.56671 2.15519 4.7865 2.45672 4.05854C2.75825 3.33059 3.20021 2.66916 3.75736 2.112C4.31451 1.55485 4.97595 1.1129 5.7039 0.811368C6.43185 0.509839 7.21207 0.354645 8 0.354645C9.5913 0.354645 11.1174 0.986786 12.2426 2.112C13.3679 3.23722 14 4.76335 14 6.35464C14 7.94594 13.3679 9.47207 12.2426 10.5973C11.1174 11.7225 9.5913 12.3546 8 12.3546Z" fill="#4491FF"/>
</svg>
