<svg width="72" height="73" viewBox="0 0 72 73" fill="none" xmlns="http://www.w3.org/2000/svg">
<g clip-path="url(#clip0_6204_16068)">
<path d="M35.9418 71.3722C55.1706 71.3722 70.7587 55.7587 70.7587 36.4986C70.7587 17.2384 55.1706 1.625 35.9418 1.625C16.713 1.625 1.125 17.2384 1.125 36.4986C1.125 55.7587 16.713 71.3722 35.9418 71.3722Z" fill="#7EE4F1"/>
<path d="M38.7481 66.8561C38.7771 67.0042 38.7745 67.1568 38.7402 67.3038C38.706 67.4508 38.6409 67.5888 38.5494 67.7087C38.3141 67.9245 38.037 68.0896 37.7354 68.1938C37.4337 68.2979 37.1139 68.3389 36.7958 68.3141C34.103 68.2231 31.5038 67.8366 29.3132 66.0688C28.0304 65.0873 27.1625 63.6591 26.8814 62.067C26.706 61.1011 26.2568 60.2063 25.5875 59.4891C23.4536 57.0079 22.5456 54.1714 23.4451 50.9C23.6494 50.1639 24.0467 49.7063 24.8639 49.7632C29.0919 50.0815 33.2233 50.8233 37.0654 52.6906C38.4445 53.3614 39.7072 54.2197 40.5187 55.5896C41.1486 56.6555 41.0607 57.1699 40.1129 57.9686C39.9512 58.105 39.7895 58.2528 39.6334 58.3892C36.7873 61.0267 36.5121 63.6188 38.7481 66.8561Z" fill="#7CD53F"/>
<path d="M40.726 42.058C40.7483 42.1629 40.7474 42.2715 40.7233 42.3761C40.6993 42.4806 40.6528 42.5787 40.5869 42.6634C40.4199 42.8169 40.2231 42.9345 40.0088 43.0088C39.7946 43.0831 39.5674 43.1125 39.3413 43.0954C37.4259 43.03 35.5758 42.7543 34.018 41.4981C33.1069 40.8009 32.4902 39.7866 32.2899 38.6559C32.1658 37.9684 31.8455 37.3316 31.3677 36.8227C29.8525 35.0577 29.2055 33.0397 29.8468 30.7148C29.9915 30.189 30.2724 29.8622 30.8598 29.9105C33.8648 30.1379 36.8016 30.6637 39.5399 31.991C40.5245 32.4684 41.4212 33.0795 41.9972 34.0544C42.4455 34.8104 42.3831 35.1913 41.7135 35.7597C41.5971 35.8563 41.4836 35.9558 41.3701 36.0439C39.3356 37.9169 39.1483 39.7558 40.726 42.058Z" fill="#7CD53F"/>
<path d="M24.4866 3.53772C26.314 4.76838 27.8293 6.27758 28.7429 8.32111C29.336 9.64841 29.4154 10.9615 28.7089 12.3002C27.6505 14.3181 27.8576 16.3332 28.9075 18.3C29.0275 18.5557 29.1973 18.7847 29.4069 18.9736C31.2031 20.3805 31.3932 22.2421 30.8598 24.2572C30.326 26.2488 29.4534 28.1333 28.2804 29.8279C27.2674 31.3144 25.7777 32.1017 24.0979 32.5536C22.872 32.8889 21.632 33.1817 20.392 33.4659C19.4868 33.6734 19.1208 34.1566 19.1832 35.1314C19.4045 38.471 18.1248 39.804 14.7339 39.7983C14.3555 39.7942 13.9803 39.8677 13.6314 40.0144C13.2825 40.161 12.9672 40.3777 12.7051 40.6509C9.80792 43.243 6.69796 45.5196 2.68281 46.071C1.19593 41.586 0.841237 36.9902 1.32362 32.3205C1.98247 25.565 4.68517 19.1721 9.07016 13.997C12.8809 9.37947 17.849 5.85997 23.4651 3.7992C23.8006 3.6934 24.1416 3.60611 24.4866 3.53772Z" fill="#7CD53F"/>
<path d="M57.0619 48.723C57.5982 46.8813 58.1685 45.0452 58.1543 43.104C58.1318 42.4321 58.0626 41.7626 57.9472 41.1003C57.8167 40.205 57.3315 39.7247 56.4036 39.4717C54.369 38.9203 52.6154 37.8886 51.5655 35.9417C50.2461 33.4946 51.3868 31.0049 54.1193 30.5416C54.5543 30.4958 54.9729 30.3505 55.3429 30.1169C55.7129 29.8833 56.0243 29.5677 56.2532 29.1944C56.6618 28.4863 57.1954 27.8584 57.828 27.3413C59.2269 26.2755 60.7337 26.6393 62.1922 27.1111C64.7588 27.9191 67.2064 29.0661 69.4705 30.5217C69.6096 30.6155 70.109 30.6126 70.2764 30.6638L70.2963 30.7889C70.3246 30.9452 70.2963 30.8258 70.3275 30.9708C71.4965 37.1525 70.7701 43.1211 68.5171 48.9873C68.0376 50.2407 67.5949 51.5084 66.8146 52.6197C66.5308 52.4605 66.2471 52.3354 65.9945 52.1422C63.3045 50.2493 60.2939 49.1977 57.0619 48.723Z" fill="#7CD53F"/>
<path d="M36.0066 58.0078C36.0066 58.0078 36.0066 58.0078 36.0066 57.9404C36.0066 57.719 36.0066 57.4976 36.0066 57.2665V36.9722C36.5132 36.9306 37.0171 36.8599 37.5156 36.7604C38.8448 36.4744 40.0649 35.8143 41.0325 34.8577C42.0001 33.9011 42.6749 32.6877 42.9778 31.3602C43.2806 30.0326 43.1988 28.6461 42.742 27.3635C42.2852 26.0809 41.4724 24.9556 40.3991 24.1197C39.1453 23.1542 37.6166 22.6145 36.0354 22.5794V14.0014C38.7304 13.9642 41.386 14.6524 43.7247 15.9943C46.3902 17.5049 48.5603 19.7583 49.9714 22.4809C51.3825 25.2034 51.9738 28.2778 51.6736 31.3306C51.3873 34.0264 50.4396 36.6095 48.915 38.8495C47.3676 41.2082 45.8777 43.6632 44.3687 46.0122C44.3022 46.1213 44.2412 46.2338 44.1861 46.3492L40.5241 52.0678C39.486 53.6852 38.448 55.3026 37.4387 56.9392C37.3041 57.2201 37.1035 57.4641 36.8541 57.6502C36.6046 57.8363 36.3138 57.9591 36.0066 58.0078Z" fill="#E51E14"/>
<path d="M36.0061 14.001V22.5789C35.6601 22.5789 35.3044 22.6367 34.9584 22.6848C33.167 22.9497 31.542 23.8837 30.4098 25.2993C29.2776 26.7148 28.722 28.507 28.8547 30.3159C28.9873 32.1248 29.7983 33.8164 31.1249 35.051C32.4514 36.2857 34.1952 36.9718 36.0061 36.9717V57.2661C36.0061 57.4971 36.0061 57.7186 36.0061 57.94C35.7187 57.9401 35.4376 57.8563 35.1969 57.6991C34.9563 57.5418 34.7665 57.3177 34.6508 57.0543L28.2014 46.8686L27.8554 46.3487L22.7805 38.3099C20.6038 34.9954 19.7878 30.9674 20.5025 27.0652C21.0486 23.9453 22.5211 21.0628 24.7279 18.794C26.9347 16.5253 29.7731 14.9757 32.8727 14.3476C33.9019 14.1211 34.9523 14.0049 36.0061 14.001Z" fill="#FC3018"/>
</g>
<defs>
<clipPath id="clip0_6204_16068">
<rect width="69.75" height="69.75" fill="white" transform="translate(1.125 1.625)"/>
</clipPath>
</defs>
</svg>
