<svg width="24" height="24" viewBox="0 0 24 24" fill="none" xmlns="http://www.w3.org/2000/svg">
<path d="M18.0551 11.9999H17.5713C16.6369 11.9999 15.8755 11.2399 15.8755 10.3041V8.12446H13.6958C12.7614 8.12446 12 7.36448 12 6.42868V5.94479C12 5.01043 12.76 4.249 13.6958 4.249H15.8755V2.06932C15.8755 1.13497 16.6354 0.374985 17.5698 0.374985H18.0537C18.988 0.374985 19.7495 1.13497 19.7495 2.07077V4.25045H21.9292C22.8635 4.25045 23.6249 5.01043 23.6249 5.94624V6.43013C23.6249 7.36448 22.865 8.12592 21.9292 8.12592H19.7495V10.3056C19.7495 11.2399 18.9895 11.9999 18.0551 11.9999Z" fill="#A3AED0"/>
<path d="M0.851623 12.0014C0.587156 12.0072 0.375 12.2223 0.375 12.4867V21.4452C0.375 21.5789 0.483984 21.6879 0.617671 21.6879H2.91505C3.13157 21.6879 3.32193 21.544 3.38151 21.3362L5.52486 13.7815C5.6629 13.2932 5.40134 12.7803 4.92472 12.6074C4.04703 12.2862 2.69999 11.9709 0.851623 12.0014Z" fill="#A3AED0"/>
<path d="M21.6879 17.3286C19.7509 17.3286 15.8754 19.7815 13.9384 19.7815C12.0014 19.7815 9.82029 18.2964 9.82029 18.2964C9.82029 18.2964 12.4301 18.7803 13.937 18.7803C15.4439 18.7803 15.874 18.2659 15.874 17.5698C15.874 15.874 12.9939 15.611 11.5379 15.3902C10.108 14.5938 9.36547 13.9646 6.99689 13.7641C6.98235 13.9022 6.96056 14.0388 6.92278 14.1768L4.97705 21.0355C7.18143 22.0367 10.977 23.625 12.9692 23.625C15.8754 23.625 23.6249 19.7495 23.6249 18.7817C23.6249 17.8125 22.6557 17.3286 21.6879 17.3286Z" fill="#A3AED0"/>
</svg>
