<svg width="288" height="102" viewBox="0 0 288 102" fill="none" xmlns="http://www.w3.org/2000/svg">
<path d="M0 40C0 17.9086 17.9086 0 40 0H288V62C288 84.0914 270.091 102 248 102H0V40Z" fill="white"/>
<g clip-path="url(#clip0_6185_69802)">
<path d="M118.495 57.378H105.524V70.1305H92.5564V57.378H79.5827V44.6285H92.5564V32.1658C92.1624 32.1658 91.7747 32.1444 91.3838 32.1444C85.9669 32.1456 80.672 33.7262 76.1688 36.6861C71.6656 39.6461 68.1563 43.8526 66.0848 48.7735C64.0133 53.6945 63.4725 59.1089 64.531 64.3321C65.5894 69.5552 68.1995 74.3524 72.0311 78.1171C75.8627 81.8817 80.7438 84.4446 86.0569 85.4817C91.3701 86.5188 96.8768 85.9834 101.881 83.9434C106.884 81.9034 111.16 78.4502 114.168 74.0207C117.175 69.5913 118.779 64.3844 118.777 59.0586C118.777 58.5034 118.749 57.9361 118.706 57.3719L118.495 57.378Z" fill="#17479E"/>
<path d="M105.524 16.0001H92.5565V28.7495H105.524V16.0001Z" fill="#17479E"/>
<path d="M105.676 38.1194H111.673C113.28 38.1194 114.583 38.5861 115.572 39.5102C116.065 39.9852 116.452 40.556 116.708 41.1863C116.964 41.8165 117.083 42.4922 117.058 43.1704C117.062 44.1556 116.814 45.1259 116.335 45.9917C115.855 46.8826 115.082 47.5869 114.142 47.9895C113.358 48.3773 112.504 48.6104 111.629 48.6758L109.458 48.7307V55.3769H105.676V38.1194ZM109.38 41.2457V45.6715H110.844C111.145 45.675 111.443 45.6172 111.719 45.5017C111.996 45.3862 112.245 45.2155 112.451 45.0004C112.668 44.7945 112.839 44.5474 112.956 44.2742C113.072 44.001 113.13 43.7074 113.128 43.4113C113.143 43.098 113.082 42.7856 112.95 42.5002C112.818 42.2147 112.618 41.9645 112.368 41.7704C111.859 41.3861 111.155 41.2 110.221 41.2L109.38 41.2457Z" fill="#17479E"/>
<path d="M120.226 37.845H123.691V45.388C124.211 44.9329 124.795 44.5538 125.425 44.2625C126.012 44.0139 126.647 43.8942 127.286 43.9117C127.821 43.8902 128.353 43.9944 128.839 44.2156C129.325 44.4368 129.75 44.7686 130.079 45.1836C130.752 46.0437 131.096 47.2211 131.096 48.737V55.3801H127.649V49.3195C127.674 48.6651 127.477 48.0213 127.088 47.4895C126.934 47.2672 126.729 47.084 126.489 46.9552C126.249 46.8263 125.981 46.7554 125.707 46.7483C125.395 46.7325 125.085 46.8052 124.813 46.9576C124.541 47.1101 124.32 47.3359 124.175 47.6084C123.846 48.1666 123.691 49.0633 123.691 50.2651V55.3801H120.226V37.845Z" fill="#17479E"/>
<path d="M142.081 55.3801V53.4616H142.032C141.609 54.1032 141.062 54.6567 140.422 55.0904C139.815 55.4445 139.119 55.6212 138.414 55.5998C137.077 55.5998 135.933 55.0202 135.002 53.8825C134.056 52.702 133.56 51.2335 133.6 49.7313C133.564 48.2171 134.093 46.7424 135.089 45.5862C136.094 44.4303 137.279 43.8538 138.656 43.8538C139.274 43.8427 139.883 43.9932 140.422 44.2899C141.046 44.663 141.606 45.1315 142.081 45.6778V44.0886H145.494V55.374L142.081 55.3801ZM139.599 47.215C139.276 47.2124 138.955 47.2831 138.664 47.4217C138.372 47.5602 138.117 47.763 137.918 48.0141C137.462 48.5833 137.226 49.2937 137.254 50.0181C137.216 50.6835 137.438 51.338 137.875 51.8481C138.086 52.0787 138.346 52.2611 138.636 52.3828C138.927 52.5045 139.241 52.5625 139.556 52.5527C139.886 52.5515 140.211 52.4787 140.509 52.3395C140.806 52.2003 141.069 51.9981 141.278 51.7475C141.753 51.2159 142.007 50.5274 141.988 49.8198C142.003 49.142 141.748 48.4853 141.278 47.9897C141.07 47.7473 140.812 47.5524 140.52 47.4186C140.227 47.2847 139.909 47.2153 139.587 47.215H139.599Z" fill="#17479E"/>
<path d="M152.157 44.0885V45.7599H152.207C152.508 45.2433 152.911 44.7912 153.392 44.4301C153.741 44.139 154.176 43.9658 154.633 43.936C154.841 43.9334 155.049 43.9508 155.253 43.9878V47.6663C154.977 47.6103 154.695 47.5827 154.413 47.5839C154.101 47.5706 153.791 47.6297 153.507 47.7564C153.223 47.883 152.973 48.0737 152.778 48.3129C152.364 48.9114 152.163 49.6278 152.207 50.3504V55.38H148.757V44.0946L152.157 44.0885Z" fill="#17479E"/>
<path d="M161.672 44.0886V45.8515C161.921 45.674 162.157 45.4804 162.379 45.272C162.657 45.0017 162.956 44.7529 163.273 44.5278C163.585 44.3064 163.934 44.1383 164.303 44.0306C164.659 43.9191 165.03 43.8575 165.404 43.8476C166.011 43.8729 166.599 44.0618 167.104 44.3936C167.725 44.7565 168.227 45.4123 168.637 46.3426C169.199 45.5736 169.911 44.9216 170.731 44.4241C171.302 44.0707 171.958 43.8719 172.632 43.8476C173.142 43.8441 173.645 43.9559 174.103 44.1744C174.562 44.3928 174.963 44.712 175.276 45.1073C176.007 45.9853 176.393 47.093 176.361 48.2276V55.3801H172.936V49.1396C172.96 48.5733 172.775 48.0176 172.415 47.5748C172.272 47.3794 172.083 47.2203 171.864 47.1106C171.646 47.0008 171.404 46.9435 171.159 46.9435C170.869 46.9416 170.583 47.0046 170.322 47.1278C170.06 47.2509 169.831 47.4309 169.651 47.6541C169.22 48.1255 168.99 48.741 169.006 49.3744V55.3801H165.593V49.2799C165.613 48.6803 165.427 48.0917 165.066 47.6084C164.925 47.4059 164.737 47.2398 164.517 47.1241C164.298 47.0083 164.053 46.9464 163.803 46.9435C163.513 46.9453 163.226 47.0121 162.965 47.139C162.705 47.2658 162.477 47.4493 162.299 47.6755C161.871 48.1721 161.643 48.806 161.66 49.4568V55.3801H158.21V44.0947L161.672 44.0886Z" fill="#17479E"/>
<path d="M187.309 55.3802V53.4617H187.26C186.837 54.1025 186.291 54.6558 185.653 55.0904C185.047 55.4446 184.35 55.6213 183.646 55.5998C182.305 55.5998 181.164 55.0203 180.233 53.8826C179.281 52.7047 178.782 51.2352 178.822 49.7314C178.787 48.2132 179.327 46.7364 180.335 45.5863C181.334 44.4293 182.521 43.8518 183.894 43.8538C184.512 43.8423 185.122 43.9929 185.662 44.29C186.286 44.6632 186.845 45.1317 187.319 45.6778V44.0887H190.75V55.3741L187.309 55.3802ZM184.828 47.215C184.505 47.2105 184.185 47.2805 183.895 47.4192C183.605 47.558 183.351 47.7618 183.155 48.0142C182.692 48.58 182.453 49.292 182.482 50.0181C182.448 50.6858 182.675 51.341 183.118 51.8482C183.33 52.0791 183.59 52.2618 183.881 52.3835C184.172 52.5052 184.487 52.563 184.803 52.5527C185.131 52.5527 185.455 52.4804 185.75 52.341C186.046 52.2017 186.307 51.9989 186.512 51.7475C186.989 51.2167 187.245 50.5282 187.229 49.8198C187.241 49.1413 186.984 48.4847 186.512 47.9898C186.306 47.7444 186.046 47.5476 185.753 47.4135C185.459 47.2795 185.139 47.2117 184.815 47.215H184.828Z" fill="#17479E"/>
<path d="M202.6 45.6624L200.277 47.0593C199.604 46.3822 198.983 46.0437 198.397 46.0437C198.13 46.034 197.869 46.1196 197.662 46.2846C197.566 46.3484 197.488 46.4344 197.434 46.5349C197.379 46.6354 197.351 46.7474 197.351 46.8611C197.34 47.0137 197.366 47.1668 197.429 47.3071C197.491 47.4474 197.587 47.5707 197.708 47.6663C198.309 47.9871 198.944 48.2438 199.601 48.4319C200.497 48.705 201.324 49.1601 202.03 49.7678C202.331 50.0633 202.566 50.4177 202.718 50.8082C202.871 51.1986 202.939 51.6163 202.917 52.0341C202.911 52.5269 202.787 53.0114 202.554 53.4478C202.321 53.8842 201.986 54.26 201.577 54.5443C200.672 55.2557 199.54 55.6295 198.381 55.5997C197.486 55.5871 196.61 55.3442 195.841 54.8951C194.947 54.3837 194.209 53.6465 193.703 52.76L196.47 51.54C197.091 52.5983 197.736 53.1138 198.406 53.1138C198.704 53.1177 198.994 53.016 199.222 52.8271C199.331 52.7509 199.42 52.6509 199.483 52.535C199.546 52.4191 199.581 52.2905 199.585 52.1591C199.59 52.0144 199.554 51.8711 199.48 51.7456C199.407 51.62 199.299 51.5171 199.169 51.4485C198.986 51.3184 198.773 51.2346 198.549 51.2044C198.247 51.0396 197.923 50.9164 197.587 50.8384C195.276 50.0912 194.131 48.9047 194.131 47.2454C194.128 46.7713 194.238 46.303 194.454 45.8789C194.669 45.4548 194.984 45.0869 195.372 44.8053C196.2 44.1617 197.274 43.8567 198.599 43.8567C200.081 43.8476 201.431 44.4576 202.6 45.6624Z" fill="#17479E"/>
<path d="M205.579 39.913C205.578 39.6375 205.633 39.3645 205.74 39.1098C205.847 38.855 206.004 38.6235 206.202 38.4283C206.4 38.2332 206.635 38.0783 206.893 37.9724C207.152 37.8666 207.43 37.8119 207.71 37.8115C208.277 37.8115 208.821 38.0329 209.221 38.427C209.622 38.8212 209.848 39.3557 209.848 39.913C209.848 40.4704 209.622 41.0049 209.221 41.3991C208.821 41.7932 208.277 42.0146 207.71 42.0146C207.429 42.017 207.15 41.9643 206.89 41.8595C206.63 41.7547 206.394 41.5999 206.195 41.4041C205.997 41.2084 205.84 40.9757 205.734 40.7197C205.628 40.4636 205.575 40.1894 205.579 39.913ZM206.016 44.0886H209.429V55.3741H206.016V44.0886Z" fill="#17479E"/>
<path d="M220.544 55.3802V53.4617H220.498C220.072 54.1039 219.522 54.6574 218.878 55.0904C218.273 55.4453 217.578 55.6221 216.874 55.5998C215.534 55.5998 214.392 55.0203 213.462 53.8826C212.513 52.7035 212.017 51.234 212.059 49.7314C212.019 48.2154 212.552 46.7386 213.555 45.5863C214.554 44.4303 215.726 43.8538 217.113 43.8538C217.73 43.8423 218.34 43.9928 218.878 44.29C219.505 44.6619 220.068 45.1305 220.544 45.6778V44.0887H223.975V55.3741L220.544 55.3802ZM218.044 47.215C217.722 47.2127 217.403 47.2836 217.114 47.4222C216.824 47.5608 216.571 47.7634 216.375 48.0142C215.912 48.5807 215.673 49.2922 215.701 50.0181C215.662 50.6838 215.884 51.3388 216.322 51.8482C216.534 52.0791 216.794 52.2618 217.085 52.3835C217.376 52.5052 217.69 52.563 218.006 52.5527C218.335 52.5519 218.659 52.4792 218.955 52.3399C219.251 52.2006 219.512 51.9983 219.719 51.7475C220.198 51.2178 220.456 50.5288 220.439 49.8198C220.451 49.1407 220.193 48.4837 219.719 47.9898C219.514 47.7485 219.258 47.5542 218.968 47.4204C218.679 47.2866 218.363 47.2165 218.044 47.215Z" fill="#17479E"/>
<path d="M133.854 66.565L134.76 67.5319H133.73L133.224 66.9981C132.741 67.2327 132.212 67.3607 131.673 67.3733C131.255 67.3813 130.84 67.3063 130.453 67.1527C130.065 66.9992 129.713 66.7702 129.418 66.4796C129.118 66.2017 128.88 65.8652 128.72 65.4918C128.559 65.1184 128.48 64.7162 128.487 64.311C128.483 63.9155 128.564 63.5236 128.724 63.161C128.884 62.7983 129.121 62.473 129.418 62.2064C130.028 61.6452 130.832 61.333 131.667 61.333C132.502 61.333 133.306 61.6452 133.916 62.2064C134.213 62.4688 134.449 62.7903 134.61 63.1494C134.77 63.5086 134.851 63.8973 134.847 64.2896C134.857 64.7167 134.774 65.141 134.602 65.5336C134.431 65.9262 134.176 66.278 133.854 66.565ZM132.632 66.3728L131.366 65.0399H132.396L133.283 65.9763C133.516 65.77 133.702 65.5177 133.828 65.236C133.955 64.9543 134.02 64.6495 134.018 64.3415C134.024 64.0454 133.966 63.7515 133.848 63.4791C133.73 63.2068 133.554 62.9622 133.333 62.7615C133.106 62.5502 132.839 62.3852 132.548 62.2757C132.256 62.1663 131.945 62.1148 131.633 62.124C131.329 62.1183 131.027 62.1729 130.745 62.2845C130.463 62.3962 130.207 62.5625 129.992 62.7737C129.774 62.9752 129.601 63.2193 129.484 63.4903C129.368 63.7614 129.31 64.0534 129.315 64.3476C129.311 64.6426 129.37 64.9353 129.489 65.2062C129.609 65.477 129.785 65.7198 130.007 65.9184C130.231 66.1299 130.496 66.2959 130.786 66.4069C131.075 66.5178 131.384 66.5716 131.695 66.565C132.016 66.5564 132.334 66.4913 132.632 66.3728Z" fill="#17479E"/>
<path d="M135.663 63.5086H136.451V65.5796C136.451 66.2171 136.736 66.5374 137.307 66.5374C137.42 66.5422 137.533 66.5217 137.638 66.4773C137.742 66.4329 137.835 66.3659 137.909 66.2812C138.067 66.0816 138.146 65.8323 138.132 65.5796V63.5086H138.911V65.7169C138.918 65.9269 138.881 66.1361 138.802 66.3314C138.723 66.5266 138.603 66.7037 138.452 66.8515C138.131 67.1381 137.714 67.2969 137.28 67.2969C136.847 67.2969 136.43 67.1381 136.109 66.8515C135.959 66.6976 135.842 66.5152 135.765 66.3155C135.688 66.1157 135.653 65.9028 135.663 65.6894V63.5086Z" fill="#17479E"/>
<path d="M143.021 63.5086H143.809V67.184H143.021V66.452C142.876 66.6999 142.668 66.9068 142.417 67.0526C142.167 67.1985 141.882 67.2784 141.591 67.2846C141.351 67.2863 141.114 67.2361 140.897 67.1375C140.679 67.039 140.486 66.8945 140.332 66.7143C139.982 66.3364 139.794 65.8403 139.807 65.3295C139.802 64.8305 139.991 64.3484 140.335 63.9814C140.486 63.8021 140.676 63.6577 140.89 63.5581C141.105 63.4585 141.338 63.4062 141.576 63.4049C141.87 63.405 142.158 63.4875 142.407 63.6428C142.665 63.7889 142.879 63.9994 143.027 64.2528L143.021 63.5086ZM143.13 65.357C143.132 65.1959 143.1 65.0362 143.036 64.8877C142.973 64.7393 142.879 64.6052 142.761 64.4938C142.528 64.2656 142.213 64.1375 141.884 64.1375C141.556 64.1375 141.24 64.2656 141.008 64.4938C140.89 64.5998 140.796 64.729 140.732 64.8729C140.668 65.0168 140.635 65.1724 140.636 65.3295C140.632 65.4939 140.662 65.6572 140.725 65.8098C140.787 65.9623 140.88 66.1008 140.999 66.2171C141.114 66.3315 141.251 66.4222 141.402 66.4842C141.554 66.5461 141.716 66.578 141.88 66.578C142.043 66.578 142.206 66.5461 142.357 66.4842C142.508 66.4222 142.645 66.3315 142.761 66.2171C142.879 66.1061 142.972 65.9725 143.036 65.8246C143.099 65.6766 143.131 65.5175 143.13 65.357Z" fill="#17479E"/>
<path d="M145.1 61.401H145.9V67.1962H145.112L145.1 61.401Z" fill="#17479E"/>
<path d="M146.88 62.3008C146.88 62.2227 146.895 62.1453 146.926 62.0734C146.957 62.0015 147.003 61.9367 147.06 61.8829C147.117 61.8271 147.184 61.7829 147.258 61.7531C147.332 61.7232 147.412 61.7082 147.492 61.7091C147.651 61.7091 147.804 61.7714 147.917 61.8824C148.03 61.9934 148.093 62.1439 148.093 62.3008C148.093 62.4577 148.03 62.6082 147.917 62.7192C147.804 62.8302 147.651 62.8925 147.492 62.8925C147.412 62.8934 147.332 62.8784 147.258 62.8485C147.184 62.8187 147.117 62.7745 147.06 62.7187C147.002 62.6652 146.957 62.6004 146.926 62.5284C146.895 62.4565 146.879 62.3789 146.88 62.3008ZM147.101 63.5208H147.882V67.1962H147.101V63.5208Z" fill="#17479E"/>
<path d="M149.313 62.438H150.101V63.5086H150.882V64.2162H150.101V67.184H149.313V64.2162H148.692V63.4994H149.313V62.438Z" fill="#17479E"/>
<path d="M151.335 63.5086H152.229L153.584 65.5034L154.515 63.5086H155.328L152.803 68.9073H151.981L153.222 66.2781L151.335 63.5086Z" fill="#17479E"/>
<path d="M163.518 61.703V62.5814C162.987 62.3057 162.399 62.1523 161.799 62.1331C161.171 62.1163 160.562 62.3456 160.106 62.7705C159.886 62.972 159.71 63.2159 159.59 63.4869C159.47 63.7579 159.408 64.0503 159.408 64.3459C159.408 64.6415 159.47 64.9339 159.59 65.2049C159.71 65.4759 159.886 65.7198 160.106 65.9213C160.589 66.3482 161.221 66.5754 161.871 66.5557C162.448 66.5385 163.01 66.3734 163.502 66.0768V66.9644C162.979 67.2379 162.395 67.3784 161.802 67.3731C161.379 67.3808 160.959 67.3061 160.566 67.1532C160.172 67.0004 159.813 66.7724 159.51 66.4825C159.206 66.2098 158.964 65.8769 158.8 65.5058C158.636 65.1348 158.553 64.7338 158.557 64.3291C158.553 63.9318 158.633 63.5379 158.793 63.1732C158.954 62.8085 159.19 62.4811 159.488 62.2124C159.786 61.9255 160.138 61.6998 160.526 61.5484C160.913 61.3971 161.327 61.3231 161.744 61.3309C162.355 61.3352 162.958 61.4618 163.518 61.703Z" fill="#17479E"/>
<path d="M167.526 63.5086H168.314V67.184H167.526V66.452C167.382 66.7001 167.174 66.9071 166.924 67.0531C166.674 67.199 166.39 67.2788 166.099 67.2846C165.859 67.2863 165.622 67.2361 165.405 67.1375C165.187 67.039 164.994 66.8945 164.84 66.7143C164.49 66.3364 164.302 65.8403 164.315 65.3295C164.31 64.8305 164.499 64.3484 164.843 63.9814C164.994 63.8018 165.183 63.6571 165.398 63.5575C165.612 63.4579 165.846 63.4058 166.084 63.4049C166.379 63.4054 166.668 63.4879 166.918 63.6428C167.177 63.7877 167.391 63.9985 167.539 64.2528L167.526 63.5086ZM167.635 65.357C167.637 65.1961 167.606 65.0365 167.543 64.888C167.48 64.7395 167.387 64.6053 167.269 64.4938C167.036 64.2656 166.721 64.1375 166.392 64.1375C166.064 64.1375 165.748 64.2656 165.516 64.4938C165.398 64.5998 165.304 64.729 165.24 64.8729C165.176 65.0168 165.143 65.1724 165.144 65.3295C165.14 65.4939 165.17 65.6572 165.233 65.8098C165.295 65.9623 165.388 66.1008 165.507 66.2171C165.679 66.3909 165.901 66.51 166.143 66.5591C166.385 66.6082 166.637 66.585 166.866 66.4926C167.094 66.4002 167.29 66.2427 167.427 66.0404C167.564 65.838 167.636 65.6001 167.635 65.357Z" fill="#17479E"/>
<path d="M170.377 63.5086V64.2651C170.507 64.0179 170.682 63.7958 170.892 63.6093C171.078 63.4663 171.311 63.3938 171.547 63.4049C171.657 63.4106 171.766 63.4291 171.872 63.4598L171.63 64.2346C171.529 64.2108 171.425 64.1955 171.32 64.1888C171.196 64.186 171.072 64.2089 170.957 64.2562C170.842 64.3035 170.739 64.3741 170.653 64.4633C170.564 64.5538 170.495 64.6609 170.448 64.7782C170.402 64.8955 170.38 65.0207 170.383 65.1465V67.184H169.595V63.5086H170.377Z" fill="#17479E"/>
<path d="M176.321 65.4942H173.132C173.151 65.6562 173.203 65.8128 173.284 65.9548C173.366 66.0967 173.475 66.2212 173.607 66.3208C173.839 66.4902 174.121 66.5812 174.41 66.5801C174.628 66.5821 174.843 66.5337 175.038 66.4389C175.233 66.344 175.403 66.2054 175.533 66.0341L176.107 66.4611C175.907 66.7257 175.645 66.9389 175.343 67.0823C175.041 67.2257 174.708 67.2951 174.373 67.2846C174.113 67.2909 173.855 67.2443 173.615 67.1477C173.375 67.0511 173.158 66.9067 172.977 66.7234C172.793 66.5402 172.648 66.3224 172.551 66.0828C172.455 65.8433 172.409 65.5871 172.415 65.3295C172.413 65.0784 172.462 64.8293 172.56 64.5972C172.657 64.3651 172.801 64.1546 172.983 63.9783C173.163 63.7955 173.379 63.6501 173.617 63.5508C173.855 63.4516 174.111 63.4004 174.37 63.4004C174.629 63.4004 174.885 63.4516 175.123 63.5508C175.361 63.6501 175.577 63.7955 175.757 63.9783C175.95 64.1802 176.1 64.4186 176.197 64.6792C176.294 64.9398 176.337 65.2171 176.321 65.4942ZM173.219 64.8842H175.502C175.407 64.6641 175.248 64.4765 175.045 64.3445C174.842 64.2126 174.604 64.1423 174.361 64.1423C174.117 64.1423 173.879 64.2126 173.676 64.3445C173.473 64.4765 173.314 64.6641 173.219 64.8842Z" fill="#17479E"/>
<path d="M177.252 66.0616L178.223 66.4337L177.156 68.7152L176.451 68.4437L177.252 66.0616Z" fill="#17479E"/>
<path d="M186.652 66.5649L187.557 67.5318H186.54L186.034 66.998C185.551 67.2326 185.022 67.3606 184.483 67.3732C184.06 67.3854 183.639 67.3124 183.246 67.1587C182.853 67.0051 182.496 66.7739 182.197 66.4795C181.897 66.2011 181.66 65.8646 181.5 65.4913C181.34 65.118 181.26 64.716 181.266 64.3109C181.262 63.9154 181.342 63.5236 181.503 63.1609C181.663 62.7982 181.9 62.4729 182.197 62.2063C182.807 61.6449 183.612 61.3326 184.447 61.3326C185.283 61.3326 186.088 61.6449 186.698 62.2063C186.994 62.469 187.231 62.7905 187.391 63.1496C187.552 63.5088 187.633 63.8973 187.629 64.2895C187.641 64.7155 187.56 65.139 187.392 65.5316C187.223 65.9241 186.971 66.2765 186.652 66.5649ZM185.429 66.3728L184.164 65.0399H185.194L186.081 65.9762C186.313 65.7699 186.499 65.5176 186.626 65.2359C186.752 64.9542 186.817 64.6494 186.816 64.3414C186.822 64.0453 186.764 63.7514 186.646 63.479C186.528 63.2067 186.352 62.9621 186.13 62.7614C185.904 62.55 185.637 62.3849 185.345 62.2754C185.054 62.166 184.743 62.1145 184.43 62.124C184.127 62.1186 183.825 62.1734 183.543 62.285C183.261 62.3966 183.005 62.5628 182.789 62.7736C182.571 62.9751 182.398 63.2192 182.282 63.4903C182.165 63.7613 182.108 64.0533 182.113 64.3475C182.108 64.6426 182.168 64.9353 182.287 65.2061C182.406 65.4769 182.583 65.7197 182.805 65.9183C183.029 66.1299 183.294 66.2959 183.583 66.4068C183.873 66.5178 184.182 66.5715 184.492 66.5649C184.814 66.5566 185.131 66.4916 185.429 66.3728Z" fill="#17479E"/>
<path d="M188.47 63.5086H189.258V65.5796C189.258 66.2171 189.543 66.5374 190.114 66.5374C190.227 66.5422 190.341 66.5217 190.445 66.4773C190.549 66.4329 190.642 66.3659 190.716 66.2812C190.874 66.0816 190.953 65.8323 190.939 65.5796V63.5086H191.718V65.7169C191.725 65.9269 191.688 66.1361 191.609 66.3314C191.53 66.5266 191.411 66.7037 191.259 66.8515C190.938 67.1381 190.521 67.2969 190.088 67.2969C189.654 67.2969 189.237 67.1381 188.916 66.8515C188.766 66.6976 188.649 66.5152 188.572 66.3155C188.495 66.1157 188.46 65.9028 188.47 65.6894V63.5086Z" fill="#17479E"/>
<path d="M195.819 63.5086H196.607V67.184H195.819V66.452C195.674 66.6999 195.467 66.9068 195.217 67.0527C194.967 67.1986 194.682 67.2785 194.392 67.2846C194.152 67.2866 193.914 67.2365 193.696 67.1379C193.478 67.0393 193.284 66.8947 193.129 66.7143C192.779 66.3364 192.592 65.8403 192.605 65.3295C192.6 64.8305 192.788 64.3484 193.132 63.9814C193.284 63.8021 193.473 63.6577 193.688 63.5581C193.902 63.4585 194.136 63.4062 194.373 63.4049C194.668 63.405 194.956 63.4875 195.205 63.6428C195.462 63.7889 195.676 63.9994 195.825 64.2528L195.819 63.5086ZM195.927 65.357C195.929 65.1959 195.897 65.0362 195.834 64.8877C195.77 64.7393 195.677 64.6052 195.558 64.4938C195.326 64.2656 195.01 64.1375 194.682 64.1375C194.353 64.1375 194.038 64.2656 193.805 64.4938C193.688 64.5998 193.593 64.729 193.529 64.8729C193.465 65.0168 193.432 65.1724 193.433 65.3295C193.43 65.4939 193.46 65.6572 193.523 65.8098C193.585 65.9623 193.678 66.1008 193.796 66.2171C193.912 66.3315 194.049 66.4222 194.2 66.4842C194.351 66.5461 194.513 66.578 194.677 66.578C194.841 66.578 195.003 66.5461 195.154 66.4842C195.306 66.4222 195.443 66.3315 195.558 66.2171C195.676 66.1061 195.77 65.9725 195.833 65.8246C195.897 65.6766 195.929 65.5175 195.927 65.357Z" fill="#17479E"/>
<path d="M197.897 61.401H198.685V67.1962H197.897V61.401Z" fill="#17479E"/>
<path d="M199.678 62.3008C199.677 62.2227 199.693 62.1453 199.724 62.0734C199.755 62.0015 199.8 61.9367 199.858 61.8829C199.915 61.8271 199.982 61.7829 200.056 61.7531C200.13 61.7232 200.209 61.7082 200.289 61.7091C200.449 61.7091 200.602 61.7714 200.715 61.8824C200.828 61.9934 200.891 62.1439 200.891 62.3008C200.891 62.4577 200.828 62.6082 200.715 62.7192C200.602 62.8302 200.449 62.8925 200.289 62.8925C200.209 62.8934 200.13 62.8784 200.056 62.8485C199.982 62.8187 199.915 62.7745 199.858 62.7187C199.8 62.6652 199.754 62.6004 199.723 62.5284C199.692 62.4565 199.677 62.3789 199.678 62.3008ZM199.902 63.5208H200.68V67.1962H199.902V63.5208Z" fill="#17479E"/>
<path d="M202.11 62.438H202.898V63.5086H203.68V64.2162H202.898V67.184H202.11V64.2162H201.49V63.4994H202.11V62.438Z" fill="#17479E"/>
<path d="M204.133 63.5086H205.026L206.394 65.5034L207.325 63.5086H208.138L205.613 68.9073H204.791L206.032 66.2781L204.133 63.5086Z" fill="#17479E"/>
<path d="M211.762 61.5078H212.54V66.4154H214.42V67.184H211.762V61.5078Z" fill="#17479E"/>
<path d="M214.997 62.3008C214.996 62.2227 215.012 62.1453 215.043 62.0734C215.074 62.0015 215.119 61.9367 215.177 61.8829C215.233 61.827 215.301 61.7827 215.375 61.7528C215.449 61.723 215.528 61.7081 215.608 61.7091C215.768 61.7091 215.921 61.7714 216.034 61.8824C216.147 61.9934 216.21 62.1439 216.21 62.3008C216.21 62.4577 216.147 62.6083 216.034 62.7192C215.921 62.8302 215.768 62.8925 215.608 62.8925C215.528 62.8935 215.449 62.8787 215.375 62.8488C215.301 62.8189 215.233 62.7747 215.177 62.7187C215.119 62.6652 215.073 62.6004 215.042 62.5284C215.011 62.4565 214.996 62.3789 214.997 62.3008ZM215.217 63.5209H216.012V67.1962H215.23L215.217 63.5209Z" fill="#17479E"/>
<path d="M219.424 61.4468V62.2307C219.252 62.0999 219.045 62.0214 218.829 62.005C218.766 62.0024 218.704 62.0147 218.647 62.0407C218.591 62.0667 218.541 62.1057 218.503 62.1544C218.418 62.2783 218.376 62.4261 218.385 62.5753V63.4904H219.424V64.198H218.385V67.1657H217.597V64.198H216.908V63.4904H217.597V62.6241C217.577 62.2621 217.694 61.9055 217.926 61.6237C218.034 61.5002 218.169 61.4024 218.321 61.3374C218.473 61.2725 218.638 61.2421 218.804 61.2485C219.024 61.2621 219.238 61.3303 219.424 61.4468Z" fill="#17479E"/>
<path d="M224 65.4943H220.811C220.829 65.6573 220.88 65.8151 220.962 65.9582C221.043 66.1012 221.154 66.2267 221.286 66.327C221.519 66.496 221.802 66.5869 222.092 66.5862C222.31 66.5878 222.525 66.5392 222.72 66.4444C222.915 66.3496 223.084 66.2112 223.215 66.0403L223.789 66.4673C223.589 66.7319 223.327 66.945 223.025 67.0884C222.723 67.2318 222.39 67.3013 222.055 67.2908C221.795 67.2971 221.537 67.2505 221.297 67.1539C221.057 67.0573 220.84 66.9128 220.659 66.7296C220.474 66.5468 220.329 66.329 220.232 66.0894C220.136 65.8498 220.09 65.5933 220.097 65.3357C220.094 65.0835 220.143 64.8333 220.24 64.6001C220.338 64.3668 220.482 64.1554 220.665 63.9784C220.845 63.7957 221.06 63.6503 221.298 63.5511C221.536 63.4518 221.792 63.4007 222.05 63.4007C222.309 63.4007 222.565 63.4518 222.803 63.5511C223.041 63.6503 223.256 63.7957 223.435 63.9784C223.63 64.1799 223.78 64.4183 223.877 64.679C223.974 64.9397 224.016 65.2171 224 65.4943ZM220.898 64.8843H223.181C223.093 64.6617 222.939 64.4705 222.738 64.3355C222.538 64.2006 222.301 64.1282 222.058 64.1278C221.808 64.1169 221.562 64.1831 221.353 64.3171C221.143 64.4511 220.982 64.6463 220.892 64.8751L220.898 64.8843Z" fill="#17479E"/>
</g>
<defs>
<clipPath id="clip0_6185_69802">
<rect width="160" height="70" fill="white" transform="translate(64 16)"/>
</clipPath>
</defs>
</svg>
