<svg width="90" height="90" viewBox="0 0 90 90" fill="none" xmlns="http://www.w3.org/2000/svg">
<rect width="90" height="90" rx="16" fill="white"/>
<g clip-path="url(#clip0_6173_70427)">
<path d="M59.8818 51.7921C58.6275 55.7303 55.6697 58.0672 52.7023 59.2615L52.6093 59.2978L52.4274 59.2577C48.8773 58.4322 47.2126 55.266 47.2126 55.266C47.2126 55.266 49.6942 55.1208 50.3233 52.5603C50.9524 49.9998 52.0654 48.8667 54.547 48.0259C57.0286 47.1851 60.7703 44.7775 60.1392 40.9883C60.658 42.2858 61.3258 47.2577 59.8818 51.7921Z" fill="#578F40"/>
<path d="M43.2754 50.4583C45.1086 52.1953 46.1461 55.3386 47.0172 56.8749C47.685 58.0558 49.9633 59.1812 52.4372 59.2577C48.8871 58.4303 47.2224 55.266 47.2224 55.266C47.2224 55.266 46.9998 54.3106 45.8887 51.9755C44.7776 49.6405 42.2592 48.2819 41.1094 47.5806C39.9596 46.8794 39.406 46.522 37.5535 44.9494C35.701 43.3768 35.7262 40.7858 35.7262 40.7858C35.6081 41.3227 35.4861 41.8749 35.3777 42.4463C35.6402 43.4119 36.1199 44.3067 36.7811 45.0641C38.0819 46.545 41.4346 48.7233 43.2754 50.4583Z" fill="#75AB42"/>
<path d="M52.6094 59.2977C52.2014 59.461 51.7854 59.6038 51.3628 59.7257C47.9889 60.7136 40.6932 60.2397 37.3599 54.3888C34.5318 49.4207 34.7699 45.643 35.3816 42.4462C35.6453 43.4113 36.1249 44.3059 36.785 45.064C38.0819 46.5449 41.4307 48.7232 43.2677 50.4582C45.1047 52.1933 46.0686 55.3805 47.0075 56.8767C47.6191 57.8493 49.9555 59.1811 52.4274 59.2576L52.6094 59.2977Z" fill="#538D3F"/>
<path d="M69.4385 38.6647C66.9569 34.1303 63.5849 30.0354 59.1405 25.3176C54.6961 20.5998 52.8068 17.5654 50.7685 13.3311C51.3976 17.7259 57.1022 25.7648 60.2884 32.0571C63.4745 38.3494 64.0669 44.3074 63.4745 48.8417C62.0305 60.1767 53.2153 62.9933 48.1011 63.0659C47.2499 63.0792 46.3989 63.0281 45.5557 62.913C48.4592 63.7996 53.4088 64.2506 59.0534 61.8353C63.552 59.9092 65.9155 57.2207 67.2956 54.9755C67.7047 54.3003 68.0737 53.6023 68.4009 52.885C68.941 50.5405 68.9313 48.6182 68.9565 46.8526C70.0744 48.3817 71.089 49.982 71.9936 51.643C72.2162 47.9169 71.9239 43.1991 69.4385 38.6647Z" fill="#006847"/>
<path d="M28.0979 49.3787C27.432 42.7596 29.3948 38.2253 32.6546 33.2896C35.9143 28.354 41.9208 21.7387 44.2437 18.8457C45.4051 17.4126 46.5123 16.0789 47.3408 15.0986C48.7171 12.3222 49.1101 10.2451 48.9494 8.93622C46.8008 14.8961 41.3188 18.0776 35.6143 21.5476C29.9097 25.0177 27.2462 26.3419 21.8011 31.5718C16.3559 36.8017 16.7566 44.7717 16.7566 44.7717C18.8297 37.459 26.35 33.5457 26.35 33.5457C25.2918 35.9266 24.5451 38.4308 24.1278 40.9979C23.5355 44.9685 23.9342 50.0475 26.499 55.7112C29.0638 61.3748 34.389 66.7538 40.4632 68.2175C40.9794 68.3449 41.4956 68.4576 42.0118 68.5557C40.5671 67.7946 39.1789 66.9332 37.8578 65.978C30.6376 61.9519 28.7057 55.4074 28.0979 49.3787Z" fill="#D92D27"/>
<path d="M34.0382 56.6321C36.1114 59.8805 40.6312 64.9194 48.6083 64.9442C56.5854 64.9691 60.0909 63.1404 63.943 59.764C65.9542 58.0022 66.8737 56.2443 67.2956 54.964C65.9155 57.2092 63.552 59.8977 59.0534 61.8238C53.4089 64.2429 48.467 63.7882 45.5557 62.9016C41.3668 62.3283 37.4431 60.127 34.7293 55.7417C31.8392 51.0736 31.8257 46.8086 32.3309 42.6029C31.8314 43.7204 31.5717 44.9279 31.5682 46.1494C31.5431 49.0003 31.9631 53.3895 34.0382 56.6321Z" fill="#642D91"/>
<path d="M67.2957 54.964C66.8737 56.2443 65.9542 58.0022 63.943 59.764C60.091 63.1404 56.5873 64.9691 48.6083 64.9442C40.6293 64.9194 36.1133 59.8729 34.0382 56.6322C31.9632 53.3914 31.5431 49.0003 31.5683 46.1494C31.5717 44.9279 31.8314 43.7204 32.3309 42.6029C32.3968 42.0641 32.4684 41.5271 32.5439 40.9883C33.0878 37.1303 35.2539 32.3093 37.2806 29.0151C36.1042 30.2901 35.0359 31.6584 34.0866 33.1061C31.938 36.4214 29.5184 41.4927 29.2958 46.864C29.0731 52.2354 30.0855 55.8449 32.9736 60.9048C34.044 62.7812 35.8346 64.499 37.8632 65.9799C39.1851 66.9338 40.5739 67.7939 42.0192 68.5538C47.4392 69.6276 52.1778 69.2703 56.9241 66.899C62.1099 64.3022 65.6348 60.3525 67.2957 56.3302C67.7619 55.2161 68.1336 54.0657 68.4068 52.8908C68.0771 53.6024 67.7061 54.2946 67.2957 54.964Z" fill="#642D91"/>
<path d="M32.6542 33.2896C29.3945 38.2252 27.4278 42.7596 28.0975 49.3787C28.7054 55.4073 30.6372 61.9519 37.8651 65.9722C35.8365 64.4913 34.046 62.7735 32.9755 60.8971C30.0855 55.8277 29.0731 52.2181 29.2977 46.8564C29.5222 41.4946 31.9399 36.4214 34.0886 33.0985C35.0358 31.6536 36.1014 30.2879 37.2747 29.0151C37.7354 28.2679 38.1884 27.5972 38.6123 27.0374C40.91 24.0011 42.0966 23.3801 45.2073 18.7368C45.9958 17.5733 46.7071 16.3606 47.3366 15.1062C46.51 16.0865 45.4009 17.4202 44.2394 18.8533C41.9205 21.7387 35.9198 28.3539 32.6542 33.2896Z" fill="#D92D27"/>
<path d="M54.4851 45.773C56.651 45.773 58.4069 44.0149 58.4069 41.8462C58.4069 39.6776 56.651 37.9195 54.4851 37.9195C52.3192 37.9195 50.5634 39.6776 50.5634 41.8462C50.5634 44.0149 52.3192 45.773 54.4851 45.773Z" fill="#6AA342"/>
<path d="M42.0076 45.773C44.1735 45.773 45.9293 44.0149 45.9293 41.8462C45.9293 39.6776 44.1735 37.9195 42.0076 37.9195C39.8416 37.9195 38.0858 39.6776 38.0858 41.8462C38.0858 44.0149 39.8416 45.773 42.0076 45.773Z" fill="#6AA342"/>
<path d="M67.2821 29.8521C69.9173 29.8521 72.0536 27.7484 72.0536 25.1534C72.0536 22.5583 69.9173 20.4547 67.2821 20.4547C64.6468 20.4547 62.5106 22.5583 62.5106 25.1534C62.5106 27.7484 64.6468 29.8521 67.2821 29.8521Z" fill="#006847"/>
<path d="M30.9875 20.7469C33.9135 20.7469 36.2855 18.3729 36.2855 15.4444C36.2855 12.5159 33.9135 10.1418 30.9875 10.1418C28.0615 10.1418 25.6895 12.5159 25.6895 15.4444C25.6895 18.3729 28.0615 20.7469 30.9875 20.7469Z" fill="#D92D27"/>
<path d="M53.4186 29.2979C52.8598 27.9876 51.8278 26.929 50.5228 26.3276C49.2179 25.7263 47.7331 25.625 46.3567 26.0435C44.9804 26.4621 43.8107 27.3705 43.0748 28.5925C42.3388 29.8145 42.0891 31.2629 42.3741 32.6564C42.6591 34.0499 43.4585 35.2892 44.6171 36.1336C45.7756 36.978 47.2108 37.3674 48.6438 37.226C50.0768 37.0846 51.4055 36.4227 52.3719 35.3687C53.3383 34.3146 53.8735 32.9437 53.8735 31.5221C53.8741 30.7581 53.7194 30.0017 53.4186 29.2979ZM48.0838 36.7501C47.0355 36.7504 46.0106 36.4439 45.1387 35.8693C44.2669 35.2946 43.5873 34.4776 43.1859 33.5217C42.7844 32.5657 42.6792 31.5137 42.8835 30.4987C43.0878 29.4837 43.5924 28.5513 44.3335 27.8194C45.0747 27.0876 46.019 26.5891 47.0472 26.3871C48.0753 26.185 49.1411 26.2885 50.1096 26.6845C51.0782 27.0804 51.906 27.751 52.4885 28.6114C53.0709 29.4718 53.3818 30.4834 53.3818 31.5182C53.3813 32.9057 52.8231 34.2362 51.8298 35.2178C50.8366 36.1994 49.4893 36.7519 48.0838 36.7539V36.7501Z" fill="#D92D27"/>
<path d="M51.4151 30.3813H49.2335V28.2164C49.2335 28.129 49.1985 28.0452 49.1361 27.9833C49.0738 27.9214 48.9891 27.8863 48.9006 27.8858H47.2669C47.1784 27.8863 47.0937 27.9214 47.0313 27.9833C46.9689 28.0452 46.9339 28.129 46.9339 28.2164V30.3813H44.7524C44.6639 30.3818 44.5792 30.4169 44.5168 30.4788C44.4544 30.5408 44.4194 30.6246 44.4194 30.7119V32.3342C44.4194 32.4215 44.4544 32.5053 44.5168 32.5673C44.5792 32.6292 44.6639 32.6643 44.7524 32.6648H46.9339V34.8297C46.9339 34.9171 46.9689 35.0009 47.0313 35.0628C47.0937 35.1247 47.1784 35.1598 47.2669 35.1603H48.9006C48.9891 35.1598 49.0738 35.1247 49.1361 35.0628C49.1985 35.0009 49.2335 34.9171 49.2335 34.8297V32.6648H51.4151C51.5036 32.6643 51.5883 32.6292 51.6506 32.5673C51.713 32.5053 51.748 32.4215 51.748 32.3342V30.7195C51.7491 30.6757 51.7412 30.632 51.725 30.5911C51.7087 30.5503 51.6844 30.513 51.6534 30.4815C51.6224 30.45 51.5854 30.425 51.5445 30.4078C51.5035 30.3906 51.4596 30.3816 51.4151 30.3813Z" fill="#D92D27"/>
<path d="M25.5695 73.3595C25.4824 73.5009 25.3643 73.7149 25.2133 74.0015C25.1385 74.1969 25.0532 74.3883 24.9578 74.5748C24.9473 74.5923 24.9323 74.6069 24.9143 74.617C24.8963 74.627 24.8759 74.6322 24.8552 74.6321L24.2261 74.4047C23.8936 74.272 23.541 74.1952 23.1828 74.1773C22.3853 74.1773 21.9865 74.5238 21.9865 75.2168C21.9865 75.5989 22.2659 75.9353 22.8247 76.2257C23.7654 76.7085 24.2861 76.9862 24.3868 77.0588C24.6595 77.2701 24.8776 77.5422 25.0233 77.8527C25.169 78.1633 25.2381 78.5034 25.2249 78.8454C25.2388 79.2889 25.1398 79.7288 24.9369 80.1247C24.734 80.5206 24.4337 80.86 24.0635 81.1117C23.3196 81.6251 22.4272 81.8865 21.52 81.8569C21.0516 81.8569 20.8018 81.8053 20.767 81.7021C20.7496 81.5397 20.7109 81.3027 20.6489 80.9894C20.6141 80.8613 20.5599 80.6683 20.4863 80.4161C20.4738 80.3811 20.4673 80.3443 20.467 80.3072C20.467 80.2461 20.4999 80.2155 20.5638 80.2155C20.6683 80.2155 20.8289 80.227 21.0419 80.248C21.2032 80.2669 21.3653 80.2777 21.5277 80.2805C22.8711 80.2805 23.5435 79.8524 23.5447 78.9964C23.5447 78.576 23.2737 78.2123 22.7317 77.9053C21.742 77.3473 21.2367 77.0582 21.2161 77.0378C20.9488 76.8287 20.7352 76.5605 20.5926 76.2547C20.45 75.9489 20.3824 75.6143 20.3953 75.2779C20.3811 74.9219 20.4445 74.5669 20.5815 74.2372C20.7184 73.9075 20.9256 73.6108 21.189 73.3671C21.7424 72.8915 22.4593 72.6433 23.1924 72.6735C23.5971 72.6813 23.9994 72.7372 24.3906 72.8397C24.783 72.9239 25.1572 73.0759 25.4959 73.2888C25.5245 73.3079 25.5494 73.3318 25.5695 73.3595Z" fill="#D92D27"/>
<path d="M32.5884 75.8971C32.5884 76.2085 32.5767 76.6805 32.5496 77.313C32.5225 77.9455 32.5109 78.4175 32.5109 78.7346C32.5109 79.0518 32.5109 79.5143 32.54 80.1372C32.569 80.7601 32.569 81.2283 32.569 81.5416C32.5718 81.5794 32.5609 81.6169 32.5382 81.6474C32.5155 81.6779 32.4825 81.6993 32.4451 81.7079C32.4122 81.7079 31.9709 81.7213 31.125 81.7213C31.0727 81.7213 31.0417 81.5608 31.0321 81.2378C31.0224 80.9149 30.9953 80.7582 30.9566 80.7582C30.9185 80.767 30.8841 80.787 30.8578 80.8155C30.1339 81.4308 29.419 81.7385 28.7131 81.7385C27.753 81.7385 27.1193 81.3958 26.8122 80.7104C26.6225 80.2875 26.527 79.5232 26.5257 78.4175C26.5114 77.5698 26.5925 76.7232 26.7677 75.8933C26.8064 75.727 26.878 75.6429 26.9825 75.6429C27.0871 75.6429 27.2961 75.6429 27.5478 75.6429H28.113C28.2001 75.6429 28.2446 75.6907 28.2446 75.7843C28.2335 76.0641 28.205 76.343 28.1595 76.6194C28.0975 77.034 28.0665 77.3283 28.0607 77.4983C28.0491 77.7563 28.0414 78.0391 28.0414 78.3468C28.0414 79.0958 28.0956 79.599 28.204 79.8563C28.3911 80.3162 28.8053 80.5467 29.4467 80.548C29.8028 80.5158 30.1404 80.3771 30.4146 80.1506C30.8094 79.8716 31.0133 79.6041 31.0262 79.348C31.0482 79.027 31.0592 77.8971 31.0592 75.9582C31.0592 75.748 31.1482 75.6429 31.3243 75.6429H32.3987C32.5264 75.6716 32.5884 75.7461 32.5884 75.8971Z" fill="#D92D27"/>
<path d="M39.1388 73.3595C39.0517 73.5009 38.9336 73.7149 38.7827 74.0015C38.7078 74.1969 38.6226 74.3883 38.5271 74.5747C38.5166 74.5923 38.5016 74.6069 38.4836 74.6169C38.4656 74.627 38.4452 74.6322 38.4245 74.6321L37.7954 74.4047C37.4629 74.272 37.1103 74.1952 36.7521 74.1773C35.9546 74.1773 35.5558 74.5238 35.5558 75.2168C35.5558 75.5989 35.8352 75.9352 36.394 76.2257C37.3347 76.7085 37.8554 76.9862 37.9561 77.0588C38.2288 77.2701 38.4469 77.5422 38.5926 77.8527C38.7383 78.1633 38.8074 78.5034 38.7943 78.8454C38.8092 79.288 38.7117 79.7273 38.5105 80.1232C38.3093 80.519 38.0109 80.8589 37.6425 81.1116C36.8986 81.625 36.0062 81.8865 35.099 81.8569C34.6306 81.8569 34.3809 81.8053 34.346 81.7021C34.3286 81.5397 34.2899 81.3027 34.2279 80.9894C34.1931 80.8613 34.1389 80.6683 34.0653 80.4161C34.0528 80.3811 34.0463 80.3443 34.046 80.3072C34.046 80.246 34.0789 80.2155 34.1428 80.2155C34.2473 80.2155 34.408 80.2269 34.6209 80.248C34.7822 80.2669 34.9443 80.2777 35.1067 80.2804C36.4501 80.2804 37.1225 79.8524 37.1238 78.9964C37.1238 78.576 36.8528 78.2123 36.3108 77.9053C35.321 77.3473 34.8157 77.0582 34.7951 77.0378C34.528 76.8266 34.3153 76.556 34.1743 76.2482C34.0333 75.9403 33.9681 75.6039 33.984 75.2665C33.9697 74.9104 34.0332 74.5555 34.1702 74.2258C34.3071 73.8961 34.5143 73.5993 34.7777 73.3556C35.3311 72.88 36.048 72.6318 36.7811 72.662C37.1858 72.6699 37.5881 72.7257 37.9793 72.8283C38.3717 72.9124 38.7459 73.0645 39.0846 73.2773C39.1073 73.3015 39.1256 73.3292 39.1388 73.3595Z" fill="#006847"/>
<path d="M46.4577 75.9085C46.4546 75.9478 46.4481 75.9868 46.4383 76.025C46.2815 76.8618 46.1947 77.7099 46.179 78.5607C46.179 78.6053 46.2332 79.5664 46.3416 81.4441V81.5339C46.3416 81.6581 46.2893 81.725 46.1693 81.725C45.9887 81.7294 45.8084 81.7428 45.6292 81.7651C45.4514 81.7888 45.2724 81.8029 45.093 81.8072C45.0098 81.8072 44.9479 81.6581 44.8995 81.3581C44.8511 81.0581 44.8143 80.9091 44.7756 80.9091C44.6522 80.9801 44.5384 81.0661 44.4368 81.1651C44.217 81.3467 43.9774 81.5037 43.7225 81.6333C43.4057 81.7989 43.0532 81.8874 42.6947 81.8912C42.2866 81.895 41.883 81.8074 41.5142 81.635C41.1453 81.4625 40.821 81.2098 40.5654 80.8957C40.0252 80.2815 39.733 79.4925 39.7447 78.6791C39.7131 77.8196 40.0079 76.9793 40.5712 76.3231C40.854 76.0049 41.205 75.7529 41.5988 75.5854C41.9925 75.4178 42.4191 75.3389 42.8476 75.3543C43.4963 75.3462 44.1222 75.5906 44.5897 76.0346C44.6633 76.1206 44.7833 76.2448 44.9343 76.4072C44.9389 76.413 44.9448 76.4177 44.9515 76.4211C44.9582 76.4244 44.9655 76.4262 44.973 76.4263C44.9982 76.4263 45.035 76.2906 45.0834 76.0212C45.1317 75.7518 45.1918 75.6161 45.2653 75.6161C45.4864 75.6305 45.7059 75.6631 45.9215 75.7136C46.2796 75.7804 46.4577 75.8492 46.4577 75.9085ZM44.7988 78.5932C44.8101 78.1001 44.6418 77.6194 44.3246 77.2384C44.1743 77.0447 43.9801 76.8886 43.7575 76.7827C43.5349 76.6769 43.2902 76.6241 43.0431 76.6288C42.794 76.6251 42.5474 76.6775 42.3219 76.7821C42.0965 76.8868 41.8982 77.0409 41.7423 77.2327C41.4106 77.6094 41.232 78.0941 41.241 78.5932C41.2325 79.0887 41.4112 79.5696 41.7423 79.9422C41.8995 80.132 42.0982 80.2843 42.3235 80.3876C42.5487 80.4908 42.7948 80.5424 43.0431 80.5384C43.2887 80.5407 43.5314 80.4869 43.7524 80.3811C43.9734 80.2754 44.1666 80.1206 44.3168 79.9288C44.6356 79.5556 44.8068 79.0812 44.7988 78.5932Z" fill="#006847"/>
<path d="M50.5614 79.7435C50.5679 80.0413 50.5008 80.3361 50.3659 80.6024C50.231 80.8688 50.0323 81.0987 49.7872 81.2722C49.292 81.6306 48.6897 81.8155 48.076 81.7977C47.9279 81.8048 47.7796 81.7984 47.6327 81.7785C47.5592 81.7441 47.5224 81.6391 47.5224 81.4652C47.5188 81.3232 47.5071 81.1816 47.4875 81.041C47.4669 80.9023 47.4546 80.7626 47.4508 80.6225C47.4508 80.5671 47.4895 80.5308 47.5688 80.5136C47.6482 80.4999 47.7295 80.4999 47.8089 80.5136L48.0024 80.5327C48.8206 80.5327 49.2303 80.2843 49.2316 79.7875C49.2316 79.5518 49.0516 79.3359 48.6915 79.1397C48.3445 78.9636 48.0078 78.7684 47.683 78.555C47.5072 78.4094 47.3672 78.2262 47.2736 78.0193C47.1801 77.8124 47.1354 77.5872 47.143 77.3607C47.1307 77.0699 47.1914 76.7806 47.3197 76.5186C47.4481 76.2566 47.64 76.0299 47.8785 75.8588C48.3702 75.5227 48.9593 75.3537 49.5568 75.3773C49.5851 75.3763 49.613 75.3838 49.6369 75.3988C49.6607 75.4138 49.6794 75.4356 49.6904 75.4614C49.7548 75.6314 49.809 75.8049 49.853 75.9811C49.9072 76.1528 49.9473 76.3285 49.973 76.5066C49.973 76.5544 49.9323 76.5849 49.8491 76.5964C49.5723 76.6346 49.2916 76.6709 49.0109 76.7053C48.6761 76.7951 48.5096 76.9767 48.5096 77.2461C48.5096 77.4372 48.6857 77.6282 49.0361 77.8289C49.3847 78.0057 49.7159 78.2142 50.0252 78.4518C50.2024 78.6172 50.3419 78.8179 50.4343 79.0406C50.5268 79.2634 50.5701 79.503 50.5614 79.7435Z" fill="#006847"/>
<path d="M55.122 80.5385C55.1201 80.6662 55.1117 80.7937 55.0968 80.9206C55.0736 81.1213 55.062 81.2531 55.0581 81.3123C55.058 81.3602 55.0508 81.4079 55.0368 81.4537C55.006 81.4949 54.9636 81.5261 54.9149 81.5436C54.5587 81.7104 53.9993 81.7939 53.2366 81.7939C52.221 81.7939 51.7132 81.3397 51.7132 80.4315C51.7132 80.0684 51.7222 79.5219 51.7403 78.792C51.7584 78.062 51.7668 77.5149 51.7655 77.1506C51.77 77.114 51.7664 77.0769 51.7549 77.0418C51.7434 77.0067 51.7242 76.9746 51.6988 76.9476C51.6733 76.9207 51.6422 76.8996 51.6075 76.8858C51.5729 76.872 51.5356 76.8658 51.4983 76.8678C51.3377 76.8678 51.1809 76.8678 51.0241 76.8678C50.9331 76.8468 50.8867 76.6767 50.8867 76.3423C50.8875 76.2107 50.8965 76.0792 50.9138 75.9487C50.9193 75.8976 50.9433 75.8502 50.9813 75.8151C51.0193 75.78 51.0689 75.7596 51.1209 75.7576C51.2293 75.7576 51.3357 75.7576 51.4403 75.7576C51.6338 75.748 51.7403 75.6601 51.7403 75.4939C51.7403 75.3277 51.7403 75.0621 51.7229 74.7105C51.7055 74.3589 51.7074 74.0971 51.7074 73.9213C51.7074 73.6079 51.7674 73.4512 51.8894 73.4512C51.9281 73.4512 52.3359 73.5149 53.1127 73.6423C53.2114 73.6557 53.2618 73.7035 53.2618 73.7837C53.2618 73.9748 53.2482 74.2557 53.2192 74.6321C53.1902 75.0085 53.1766 75.2914 53.1766 75.4805C53.1766 75.6047 53.2366 75.6716 53.3528 75.6716H54.9149C54.9884 75.6716 55.0252 75.6964 55.0252 75.748C55.0224 75.8312 55.0147 75.9142 55.002 75.9964C54.989 76.08 54.9813 76.1642 54.9788 76.2487C54.9788 76.3136 54.9788 76.413 54.9788 76.5449C54.9788 76.6767 54.9788 76.7761 54.9788 76.841C54.9788 76.906 54.9187 76.9614 54.7968 76.9614C54.6226 76.9614 54.3613 76.9499 54.009 76.927C53.6567 76.9041 53.3953 76.8907 53.2231 76.8907C53.1882 76.8907 53.1611 77.013 53.1437 77.2576C53.1218 77.5608 53.1108 77.9869 53.1108 78.5359V79.4913C53.0951 79.7504 53.1306 80.01 53.2153 80.2557C53.3198 80.4773 53.5347 80.5901 53.8599 80.5901C54.0598 80.5801 54.2582 80.5507 54.4522 80.5022C54.6424 80.4545 54.837 80.4257 55.033 80.4162C55.0968 80.4238 55.122 80.462 55.122 80.5385Z" fill="#006847"/>
<path d="M61.7305 81.4957C61.7305 81.6543 61.686 81.7326 61.595 81.7326H60.9833H60.3716C60.2632 81.7326 60.209 81.6619 60.209 81.5205C60.209 81.3142 60.209 81.0046 60.2322 80.588C60.2555 80.1715 60.2555 79.8619 60.2555 79.6517C60.2555 79.4416 60.2555 79.1549 60.2322 78.7556C60.209 78.3562 60.209 78.0543 60.209 77.8537C60.209 77.0893 59.8406 76.704 59.1037 76.6976C58.7656 76.7329 58.4426 76.8548 58.1668 77.0511C57.7552 77.3059 57.5493 77.5371 57.5493 77.7447V81.5664C57.5493 81.6906 57.5029 81.7575 57.4119 81.7575H56.808H56.2021C56.1014 81.7575 56.053 81.6982 56.053 81.5836V78.446C56.053 77.9365 56.0247 76.8619 55.9679 75.2225C55.9601 74.7129 55.9233 73.9594 55.8575 72.962C55.8503 72.928 55.8458 72.8935 55.844 72.8588C55.8395 72.8309 55.845 72.8023 55.8595 72.7779C55.8739 72.7535 55.8965 72.7348 55.9233 72.725C56.1657 72.6859 56.4117 72.6725 56.657 72.6849C56.7949 72.6801 56.9321 72.6641 57.0674 72.6371C57.1981 72.6107 57.3308 72.5947 57.4642 72.5894C57.5203 72.5894 57.5493 72.6295 57.5493 72.7117C57.5493 73.1129 57.5319 73.7187 57.499 74.525C57.4661 75.3314 57.4506 75.9371 57.4506 76.3403C57.4506 76.4377 57.468 76.4893 57.5029 76.4932C57.7236 76.3021 58.01 76.0862 58.3623 75.8263C58.7637 75.5715 59.2305 75.4356 59.7077 75.4346C60.522 75.4346 61.084 75.6741 61.3937 76.153C61.6143 76.5046 61.7247 77.0613 61.7247 77.8231C61.7247 77.9549 61.7247 78.1594 61.715 78.4365C61.7053 78.7135 61.715 78.9161 61.715 79.0498C61.715 79.3237 61.7195 79.732 61.7285 80.2747C61.7376 80.8173 61.7382 81.2244 61.7305 81.4957Z" fill="#006847"/>
<path d="M68.8733 78.5932C68.8919 79.4431 68.5722 80.2663 67.9829 80.8862C67.6951 81.1949 67.3456 81.4414 66.9565 81.61C66.5673 81.7786 66.147 81.8656 65.722 81.8656C65.297 81.8656 64.8766 81.7786 64.4874 81.61C64.0983 81.4414 63.7488 81.1949 63.461 80.8862C62.8878 80.2591 62.5706 79.4445 62.5706 78.5999C62.5706 77.7552 62.8878 76.9406 63.461 76.3136C63.7507 76.009 64.1005 75.7663 64.4888 75.6003C64.8772 75.4344 65.2959 75.3488 65.7191 75.3488C66.1422 75.3488 66.5609 75.4344 66.9493 75.6003C67.3376 75.7663 67.6874 76.009 67.9771 76.3136C68.2708 76.6168 68.5012 76.9742 68.655 77.3653C68.8088 77.7565 68.883 78.1737 68.8733 78.5932ZM67.5009 78.6065C67.5135 78.1161 67.3395 77.6389 67.0131 77.269C66.8574 77.0816 66.6606 76.9316 66.4376 76.8303C66.2146 76.729 65.9712 76.6791 65.7258 76.6843C65.4804 76.6789 65.2368 76.7276 65.0128 76.8267C64.7888 76.9259 64.59 77.073 64.4308 77.2575C64.1162 77.634 63.9441 78.1069 63.9441 78.5951C63.9441 79.0832 64.1162 79.5561 64.4308 79.9326C64.5882 80.1192 64.7851 80.2692 65.0077 80.3722C65.2304 80.4752 65.4732 80.5286 65.7191 80.5286C65.9649 80.5286 66.2078 80.4752 66.4304 80.3722C66.653 80.2692 66.85 80.1192 67.0073 79.9326C67.3303 79.5649 67.5059 79.0932 67.5009 78.6065Z" fill="#006847"/>
</g>
<defs>
<clipPath id="clip0_6173_70427">
<rect width="56.5" height="74.5319" fill="white" transform="translate(16.75 7.73407)"/>
</clipPath>
</defs>
</svg>
