<svg width="20" height="20" viewBox="0 0 20 20" fill="none" xmlns="http://www.w3.org/2000/svg">
<path d="M4.265 1.807L5.412 3.446C4.01818 4.42177 2.97176 5.8165 2.42474 7.4276C1.87772 9.03869 1.8586 10.7822 2.37015 12.4049C2.88171 14.0276 3.89729 15.445 5.26937 16.4511C6.64146 17.4572 8.29858 17.9996 10 17.9996C11.7014 17.9996 13.3585 17.4572 14.7306 16.4511C16.1027 15.445 17.1183 14.0276 17.6299 12.4049C18.1414 10.7822 18.1223 9.03869 17.5753 7.4276C17.0282 5.8165 15.9818 4.42177 14.588 3.446L15.735 1.807C17.053 2.72843 18.1289 3.95446 18.8715 5.38087C19.614 6.80728 20.0012 8.39189 20 10C20 15.523 15.523 20 10 20C4.477 20 2.59023e-06 15.523 2.59023e-06 10C-0.00115543 8.39189 0.385992 6.80728 1.12853 5.38087C1.87107 3.95446 2.94705 2.72843 4.265 1.807ZM9 10V0H11V10H9Z" fill="#F80032"/>
</svg>
