<svg width="12" height="12" viewBox="0 0 12 12" fill="none" xmlns="http://www.w3.org/2000/svg">
<path d="M6.05514 11.9999H5.57125C4.6369 11.9999 3.87547 11.24 3.87547 10.3042V8.12448H1.69579C0.761434 8.12448 0 7.3645 0 6.42869V5.9448C0 5.01045 0.75998 4.24901 1.69579 4.24901H3.87547V2.06934C3.87547 1.13498 4.63545 0.375 5.5698 0.375H6.05369C6.98805 0.375 7.74948 1.13498 7.74948 2.07079V4.25047H9.92916C10.8635 4.25047 11.6249 5.01045 11.6249 5.94625V6.43014C11.6249 7.3645 10.865 8.12593 9.92916 8.12593H7.74948V10.3056C7.74948 11.24 6.9895 11.9999 6.05514 11.9999Z" fill="#A3AED0"/>
</svg>
