<svg xmlns="http://www.w3.org/2000/svg" xmlns:xlink="http://www.w3.org/1999/xlink" width="1920" height="1080" viewBox="0 0 1920 1080"><defs><style>.a{fill:#fff;stroke:#707070;}.b{fill:#eef8fb;}.c{clip-path:url(#a);}.d{clip-path:url(#b);}.e{fill:url(#c);}.f{fill:url(#d);}.g{fill:url(#e);}.h{fill:url(#f);}.i{fill:url(#g);}.j{fill:url(#h);}.k{fill:url(#i);}.l{fill:url(#j);}.m{fill:url(#k);}.n{fill:url(#l);}.o{fill:url(#m);}.p{fill:url(#n);}.q{fill:url(#o);}.r{fill:url(#p);}.s{fill:url(#q);}.t{fill:url(#r);}.u{fill:url(#s);}.v{fill:url(#t);}.w{fill:url(#u);}.x{fill:url(#v);}.y{fill:url(#w);}.z{fill:url(#x);}.aa{fill:url(#y);}.ab{fill:url(#z);}.ac{fill:url(#aa);}.ad{fill:url(#ab);}.ae{fill:url(#ac);}.af{fill:url(#ad);}.ag{fill:url(#ae);}.ah{fill:url(#af);}.ai{fill:url(#ag);}.aj{fill:url(#ah);}.ak{fill:url(#ai);}.al{fill:url(#aj);}.am{fill:url(#ak);}.an{fill:url(#al);}.ao{fill:url(#am);}.ap{fill:url(#an);}.aq{fill:url(#ao);}.ar{fill:url(#ap);}.as{fill:url(#aq);}.at{fill:url(#ar);}.au{fill:url(#as);}.av{fill:url(#at);}.aw{fill:url(#au);}.ax{fill:url(#av);}.ay{fill:url(#aw);}.az{fill:url(#ax);}.ba{fill:url(#ay);}.bb{fill:url(#az);}.bc{fill:url(#ba);}.bd{fill:url(#bb);}.be{fill:url(#bc);}.bf{fill:url(#bd);}.bg{fill:url(#be);}.bh{fill:url(#bf);}.bi{fill:url(#bg);}.bj{fill:url(#bh);}.bk{fill:url(#bi);}.bl{fill:url(#bj);}.bm{fill:url(#bk);}.bn{fill:url(#bl);}.bo{fill:url(#bm);}.bp{fill:url(#bn);}.bq{fill:url(#bo);}.br{fill:url(#bp);}.bs{fill:url(#bq);}.bt{fill:url(#br);}.bu{fill:url(#bs);}.bv{fill:url(#bt);}.bw{fill:url(#bu);}.bx{fill:url(#bv);}.by{fill:url(#bw);}.bz{fill:url(#bx);}.ca{fill:url(#by);}.cb{fill:url(#bz);}.cc{fill:url(#ca);}.cd{fill:url(#cb);}.ce{fill:url(#cc);}.cf{fill:url(#cd);}.cg{fill:url(#ce);}.ch{fill:url(#cf);}.ci{fill:url(#cg);}.cj{fill:url(#ch);}.ck{fill:url(#ci);}.cl{fill:url(#cj);}.cm{fill:url(#ck);}.cn{fill:url(#cl);}.co{fill:url(#cm);}.cp{fill:url(#cn);}.cq{fill:url(#co);}.cr{fill:url(#cp);}.cs{fill:url(#cq);}.ct{fill:url(#cr);}.cu{fill:url(#cs);}.cv{fill:url(#ct);}.cw{fill:url(#cu);}.cx{fill:url(#cv);}.cy{fill:url(#cw);}.cz{fill:url(#cx);}.da{fill:url(#cy);}.db{fill:url(#cz);}.dc{fill:url(#da);}.dd{fill:url(#db);}.de{fill:url(#dc);}.df{fill:url(#dd);}.dg{fill:url(#de);}.dh{fill:url(#df);}.di{fill:url(#dg);}.dj{fill:url(#dh);}.dk{fill:url(#di);}.dl{fill:url(#dj);}.dm{fill:url(#dk);}.dn{fill:url(#dl);}.do{fill:url(#dm);}.dp{fill:url(#dn);}.dq{fill:url(#do);}.dr{fill:url(#dp);}.ds{fill:url(#dq);}.dt{fill:url(#dr);}.du{fill:url(#ds);}.dv{fill:url(#dt);}.dw{fill:url(#du);}.dx{fill:url(#dv);}.dy{fill:url(#dw);}.dz{fill:url(#dx);}.ea{fill:url(#dy);}.eb{fill:url(#dz);}.ec{fill:url(#ea);}.ed{fill:url(#eb);}.ee{fill:url(#ec);}.ef{fill:url(#ed);}.eg{fill:url(#ee);}.eh{fill:url(#ef);}.ei{fill:url(#eg);}.ej{fill:url(#eh);}.ek{fill:url(#ei);}.el{fill:url(#ej);}.em{fill:url(#ek);}.en{fill:url(#el);}.eo{fill:url(#em);}.ep{fill:url(#en);}.eq{fill:url(#eo);}.er{fill:url(#ep);}.es{fill:url(#eq);}.et{fill:url(#er);}.eu{fill:url(#es);}.ev{fill:url(#et);}.ew{fill:url(#eu);}.ex{fill:url(#ev);}.ey{fill:url(#ew);}.ez{fill:url(#ex);}.fa{fill:url(#ey);}.fb{fill:url(#ez);}.fc{fill:url(#fa);}.fd{fill:url(#fb);}.fe{fill:url(#fc);}.ff{fill:url(#fd);}.fg{fill:url(#fe);}.fh{fill:url(#ff);}.fi{fill:url(#fg);}.fj{fill:url(#fh);}.fk{fill:url(#fi);}.fl{fill:url(#fj);}.fm{fill:url(#fk);}.fn{fill:url(#fl);}.fo{fill:url(#fm);}.fp{fill:url(#fn);}.fq{fill:url(#fo);}.fr{fill:url(#fp);}.fs{fill:url(#fq);}.ft{fill:url(#fr);}.fu{fill:url(#fs);}.fv{mix-blend-mode:color;isolation:isolate;fill:url(#ft);}</style><clipPath id="a"><rect class="a" width="1920" height="1080"/></clipPath><clipPath id="b"><rect class="b" width="2025" height="1080"/></clipPath><linearGradient id="c" x1="-10.299" y1="12.969" x2="12.523" y2="-13.383" gradientUnits="objectBoundingBox"><stop offset="0" stop-color="#0096ff"/><stop offset="0.632" stop-color="#35c1ff"/><stop offset="1" stop-color="#50d7ff"/></linearGradient><linearGradient id="d" x1="-14.689" y1="18.038" x2="6.943" y2="-6.94" xlink:href="#c"/><linearGradient id="e" x1="-1.445" y1="2.746" x2="2.174" y2="-1.432" xlink:href="#c"/><linearGradient id="f" x1="0.173" y1="0.877" x2="3.099" y2="-2.501" xlink:href="#c"/><linearGradient id="g" x1="-25.793" y1="30.861" x2="-2.61" y2="4.091" xlink:href="#c"/><linearGradient id="h" x1="-6.058" y1="8.073" x2="4.64" y2="-4.281" xlink:href="#c"/><linearGradient id="i" x1="-5.928" y1="7.923" x2="4.606" y2="-4.241" xlink:href="#c"/><linearGradient id="j" x1="-14.26" y1="17.544" x2="-0.544" y2="1.706" xlink:href="#c"/><linearGradient id="k" x1="-0.706" y1="1.892" x2="5.746" y2="-5.557" xlink:href="#c"/><linearGradient id="l" x1="-22.838" y1="27.448" x2="0.643" y2="0.335" xlink:href="#c"/><linearGradient id="m" x1="-17.47" y1="21.25" x2="2.81" y2="-2.168" xlink:href="#c"/><linearGradient id="n" x1="-2.737" y1="4.238" x2="1.29" y2="-0.412" xlink:href="#c"/><linearGradient id="o" x1="-1.03" y1="2.267" x2="1.759" y2="-0.953" xlink:href="#c"/><linearGradient id="p" x1="-6.296" y1="8.347" x2="1.194" y2="-0.301" xlink:href="#c"/><linearGradient id="q" x1="-2.056" y1="3.451" x2="1.065" y2="-0.153" xlink:href="#c"/><linearGradient id="r" x1="-4.848" y1="6.676" x2="11.269" y2="-11.935" xlink:href="#c"/><linearGradient id="s" x1="-4.266" y1="6.003" x2="2.218" y2="-1.484" xlink:href="#c"/><linearGradient id="t" x1="-6.468" y1="8.546" x2="3.871" y2="-3.393" xlink:href="#c"/><linearGradient id="u" x1="-2.796" y1="4.306" x2="6.16" y2="-6.036" xlink:href="#c"/><linearGradient id="v" x1="-0.667" y1="1.848" x2="2.2" y2="-1.463" xlink:href="#c"/><linearGradient id="w" x1="-12.083" y1="15.03" x2="7.696" y2="-7.81" xlink:href="#c"/><linearGradient id="x" x1="-0.905" y1="2.122" x2="2.387" y2="-1.679" xlink:href="#c"/><linearGradient id="y" x1="-12.126" y1="15.078" x2="12.195" y2="-13.004" xlink:href="#c"/><linearGradient id="z" x1="-9.814" y1="12.409" x2="7.705" y2="-7.82" xlink:href="#c"/><linearGradient id="aa" x1="-0.744" y1="1.936" x2="2.383" y2="-1.675" xlink:href="#c"/><linearGradient id="ab" x1="-14.737" y1="18.094" x2="6.726" y2="-6.689" xlink:href="#c"/><linearGradient id="ac" x1="-1.228" y1="2.495" x2="10.795" y2="-11.388" xlink:href="#c"/><linearGradient id="ad" x1="-3.451" y1="5.063" x2="2.381" y2="-1.672" xlink:href="#c"/><linearGradient id="ae" x1="-5.12" y1="6.989" x2="0.915" y2="0.021" xlink:href="#c"/><linearGradient id="af" x1="-20.626" y1="24.894" x2="3.576" y2="-3.051" xlink:href="#c"/><linearGradient id="ag" x1="-16.26" y1="19.852" x2="-1.454" y2="2.756" xlink:href="#c"/><linearGradient id="ah" x1="-2.697" y1="4.191" x2="6.157" y2="-6.032" xlink:href="#c"/><linearGradient id="ai" x1="-2.113" y1="3.518" x2="4.88" y2="-4.558" xlink:href="#c"/><linearGradient id="aj" x1="-2.783" y1="4.291" x2="9.939" y2="-10.399" xlink:href="#c"/><linearGradient id="ak" x1="-11.512" y1="14.37" x2="1.555" y2="-0.718" xlink:href="#c"/><linearGradient id="al" x1="-5.183" y1="7.062" x2="5.219" y2="-4.948" xlink:href="#c"/><linearGradient id="am" x1="-1.967" y1="3.349" x2="0.757" y2="0.204" xlink:href="#c"/><linearGradient id="an" x1="-2.417" y1="3.869" x2="4.224" y2="-3.801" xlink:href="#c"/><linearGradient id="ao" x1="-5.478" y1="7.403" x2="7.31" y2="-7.364" xlink:href="#c"/><linearGradient id="ap" x1="-6.597" y1="8.694" x2="8.215" y2="-8.408" xlink:href="#c"/><linearGradient id="aq" x1="-15.79" y1="19.31" x2="5.891" y2="-5.725" xlink:href="#c"/><linearGradient id="ar" x1="-0.388" y1="1.525" x2="2.766" y2="-2.116" xlink:href="#c"/><linearGradient id="as" x1="-8.118" y1="10.45" x2="15.529" y2="-16.853" xlink:href="#c"/><linearGradient id="at" x1="-14.205" y1="17.48" x2="3.574" y2="-3.05" xlink:href="#c"/><linearGradient id="au" x1="-3.994" y1="5.689" x2="0.307" y2="0.722" xlink:href="#c"/><linearGradient id="av" x1="-0.188" y1="1.294" x2="2.601" y2="-1.926" xlink:href="#c"/><linearGradient id="aw" x1="-6.062" y1="8.078" x2="18.204" y2="-19.944" xlink:href="#c"/><linearGradient id="ax" x1="-6.751" y1="8.873" x2="13.902" y2="-14.977" xlink:href="#c"/><linearGradient id="ay" x1="-17.185" y1="20.92" x2="2.366" y2="-1.654" xlink:href="#c"/><linearGradient id="az" x1="-5.916" y1="7.908" x2="5.337" y2="-5.085" xlink:href="#c"/><linearGradient id="ba" x1="-1.34" y1="2.625" x2="8.992" y2="-9.306" xlink:href="#c"/><linearGradient id="bb" x1="0.339" y1="0.686" x2="20.313" y2="-22.381" xlink:href="#c"/><linearGradient id="bc" x1="-1.857" y1="3.222" x2="1.244" y2="-0.359" xlink:href="#c"/><linearGradient id="bd" x1="-14.217" y1="17.494" x2="-1.919" y2="3.293" xlink:href="#c"/><linearGradient id="be" x1="-2.871" y1="4.393" x2="1.891" y2="-1.106" xlink:href="#c"/><linearGradient id="bf" x1="-14.666" y1="18.011" x2="6.432" y2="-6.349" xlink:href="#c"/><linearGradient id="bg" x1="-2.883" y1="4.406" x2="6.756" y2="-6.723" xlink:href="#c"/><linearGradient id="bh" x1="-13.974" y1="17.214" x2="4.213" y2="-3.787" xlink:href="#c"/><linearGradient id="bi" x1="-24.961" y1="29.902" x2="-2.829" y2="4.345" xlink:href="#c"/><linearGradient id="bj" x1="-205.504" y1="206.504" x2="14.331" y2="-13.331" xlink:href="#c"/><linearGradient id="bk" x1="-62.318" y1="63.318" x2="13.417" y2="-12.417" xlink:href="#c"/><linearGradient id="bl" x1="-4.846" y1="5.846" x2="52.483" y2="-51.483" xlink:href="#c"/><linearGradient id="bm" x1="-242.412" y1="243.412" x2="-47.198" y2="48.198" xlink:href="#c"/><linearGradient id="bn" x1="-33.488" y1="34.495" x2="0.075" y2="0.926" xlink:href="#c"/><linearGradient id="bo" x1="-111.963" y1="112.963" x2="23.861" y2="-22.861" xlink:href="#c"/><linearGradient id="bp" x1="-248.957" y1="249.956" x2="-15.645" y2="16.644" xlink:href="#c"/><linearGradient id="bq" x1="-0.618" y1="1.618" x2="39.067" y2="-38.056" xlink:href="#c"/><linearGradient id="br" x1="-97.758" y1="98.668" x2="34.828" y2="-33.797" xlink:href="#c"/><linearGradient id="bs" x1="-90.732" y1="91.734" x2="-1.662" y2="2.662" xlink:href="#c"/><linearGradient id="bt" x1="-113.929" y1="114.927" x2="135.902" y2="-134.901" xlink:href="#c"/><linearGradient id="bu" x1="-8.488" y1="9.491" x2="33.428" y2="-32.437" xlink:href="#c"/><linearGradient id="bv" x1="-83.471" y1="84.471" x2="11.908" y2="-10.908" xlink:href="#c"/><linearGradient id="bw" x1="-4.994" y1="5.994" x2="26.982" y2="-25.982" xlink:href="#c"/><linearGradient id="bx" x1="-72.632" y1="73.631" x2="91.186" y2="-90.183" xlink:href="#c"/><linearGradient id="by" x1="5.215" y1="-4.215" x2="107.37" y2="-106.369" xlink:href="#c"/><linearGradient id="bz" x1="-16.828" y1="17.828" x2="240.56" y2="-239.569" xlink:href="#c"/><linearGradient id="ca" x1="-28.254" y1="29.254" x2="80.671" y2="-79.671" xlink:href="#c"/><linearGradient id="cb" x1="-70.334" y1="71.364" x2="-9.273" y2="10.277" xlink:href="#c"/><linearGradient id="cc" x1="-32.636" y1="33.636" x2="26.575" y2="-25.574" xlink:href="#c"/><linearGradient id="cd" x1="-148.84" y1="149.84" x2="82.458" y2="-81.458" xlink:href="#c"/><linearGradient id="ce" x1="-114.549" y1="115.704" x2="80.401" y2="-79.509" xlink:href="#c"/><linearGradient id="cf" x1="-13.026" y1="14.026" x2="36.631" y2="-35.631" xlink:href="#c"/><linearGradient id="cg" x1="-320.26" y1="321.26" x2="-66.215" y2="67.215" xlink:href="#c"/><linearGradient id="ch" x1="-34.601" y1="35.601" x2="7.021" y2="-6.021" xlink:href="#c"/><linearGradient id="ci" x1="-10.497" y1="11.497" x2="27.62" y2="-26.62" xlink:href="#c"/><linearGradient id="cj" x1="-122.048" y1="123.05" x2="53.458" y2="-52.459" xlink:href="#c"/><linearGradient id="ck" x1="-240.228" y1="241.228" x2="5.532" y2="-4.532" xlink:href="#c"/><linearGradient id="cl" x1="8.251" y1="-8.45" x2="-8.222" y2="10.571" xlink:href="#c"/><linearGradient id="cm" x1="5.706" y1="-5.511" x2="-4.181" y2="5.905" xlink:href="#c"/><linearGradient id="cn" x1="2.203" y1="-1.467" x2="-1.882" y2="3.25" xlink:href="#c"/><linearGradient id="co" x1="4.066" y1="-3.618" x2="-8.383" y2="10.757" xlink:href="#c"/><linearGradient id="cp" x1="13.406" y1="-14.403" x2="0.118" y2="0.942" xlink:href="#c"/><linearGradient id="cq" x1="2.601" y1="-1.927" x2="-0.194" y2="1.302" xlink:href="#c"/><linearGradient id="cr" x1="8.086" y1="-8.259" x2="-5.803" y2="7.778" xlink:href="#c"/><linearGradient id="cs" x1="3.35" y1="-2.791" x2="-19.979" y2="24.147" xlink:href="#c"/><linearGradient id="ct" x1="24.695" y1="-27.439" x2="5.092" y2="-4.802" xlink:href="#c"/><linearGradient id="cu" x1="10.757" y1="-11.343" x2="-9.24" y2="11.747" xlink:href="#c"/><linearGradient id="cv" x1="4.741" y1="-4.397" x2="-0.071" y2="1.159" xlink:href="#c"/><linearGradient id="cw" x1="2.484" y1="-1.791" x2="-0.778" y2="1.976" xlink:href="#c"/><linearGradient id="cx" x1="2.065" y1="-1.307" x2="-2.349" y2="3.79" xlink:href="#c"/><linearGradient id="cy" x1="2.157" y1="-1.413" x2="-18.889" y2="22.889" xlink:href="#c"/><linearGradient id="cz" x1="2.376" y1="-1.666" x2="-0.714" y2="1.902" xlink:href="#c"/><linearGradient id="da" x1="6.355" y1="-6.26" x2="-7.352" y2="9.566" xlink:href="#c"/><linearGradient id="db" x1="1.48" y1="-0.631" x2="-1.479" y2="2.785" xlink:href="#c"/><linearGradient id="dc" x1="1.333" y1="-0.462" x2="-1.649" y2="2.981" xlink:href="#c"/><linearGradient id="dd" x1="2.855" y1="-2.219" x2="-2.511" y2="3.977" xlink:href="#c"/><linearGradient id="de" x1="2.925" y1="-2.3" x2="-2.622" y2="4.105" xlink:href="#c"/><linearGradient id="df" x1="2.115" y1="-1.365" x2="-1.419" y2="2.715" xlink:href="#c"/><linearGradient id="dg" x1="1.535" y1="-0.695" x2="-1.212" y2="2.477" xlink:href="#c"/><linearGradient id="dh" x1="4.527" y1="-4.15" x2="-11.983" y2="14.914" xlink:href="#c"/><linearGradient id="di" x1="9.23" y1="-9.581" x2="-0.45" y2="1.597" xlink:href="#c"/><linearGradient id="dj" x1="24.965" y1="-27.752" x2="1.84" y2="-1.048" xlink:href="#c"/><linearGradient id="dk" x1="1.039" y1="-0.122" x2="-2.268" y2="3.696" xlink:href="#c"/><linearGradient id="dl" x1="29.285" y1="-32.74" x2="8.329" y2="-8.541" xlink:href="#c"/><linearGradient id="dm" x1="7.71" y1="-7.825" x2="-11.096" y2="13.89" xlink:href="#c"/><linearGradient id="dn" x1="0.506" y1="0.493" x2="-17.321" y2="21.079" xlink:href="#c"/><linearGradient id="do" x1="10.304" y1="-10.82" x2="-3.276" y2="4.86" xlink:href="#c"/><linearGradient id="dp" x1="3.024" y1="-2.414" x2="-8.822" y2="11.264" xlink:href="#c"/><linearGradient id="dq" x1="2.772" y1="-2.124" x2="-13.487" y2="16.651" xlink:href="#c"/><linearGradient id="dr" x1="15.098" y1="-16.358" x2="0.359" y2="0.663" xlink:href="#c"/><linearGradient id="ds" x1="2.259" y1="-1.531" x2="-0.415" y2="1.557" xlink:href="#c"/><linearGradient id="dt" x1="2.179" y1="-1.439" x2="-1.189" y2="2.45" xlink:href="#c"/><linearGradient id="du" x1="9.43" y1="-9.812" x2="-0.506" y2="1.661" xlink:href="#c"/><linearGradient id="dv" x1="0.731" y1="0.234" x2="-2.068" y2="3.465" xlink:href="#c"/><linearGradient id="dw" x1="6.025" y1="-5.879" x2="1.081" y2="-0.171" xlink:href="#c"/><linearGradient id="dx" x1="7.396" y1="-7.462" x2="-14.029" y2="17.276" xlink:href="#c"/><linearGradient id="dy" x1="5.388" y1="-5.144" x2="-17.644" y2="21.449" xlink:href="#c"/><linearGradient id="dz" x1="2.293" y1="-1.571" x2="-0.469" y2="1.618" xlink:href="#c"/><linearGradient id="ea" x1="4.714" y1="-4.366" x2="-1.057" y2="2.297" xlink:href="#c"/><linearGradient id="eb" x1="10.312" y1="-10.831" x2="-5.585" y2="7.527" xlink:href="#c"/><linearGradient id="ec" x1="4.882" y1="-4.56" x2="-1.177" y2="2.437" xlink:href="#c"/><linearGradient id="ed" x1="2.906" y1="-2.278" x2="0.09" y2="0.973" xlink:href="#c"/><linearGradient id="ee" x1="2.285" y1="-1.561" x2="-2.302" y2="3.736" xlink:href="#c"/><linearGradient id="ef" x1="2.253" y1="-1.524" x2="-0.408" y2="1.549" xlink:href="#c"/><linearGradient id="eg" x1="0.578" y1="0.41" x2="-15.477" y2="18.947" xlink:href="#c"/><linearGradient id="eh" x1="2.313" y1="-1.593" x2="-0.859" y2="2.069" xlink:href="#c"/><linearGradient id="ei" x1="2.817" y1="-2.175" x2="-0.219" y2="1.33" xlink:href="#c"/><linearGradient id="ej" x1="94.263" y1="-93.263" x2="-23.953" y2="24.953" xlink:href="#c"/><linearGradient id="ek" x1="48.744" y1="-47.744" x2="-14.132" y2="15.132" xlink:href="#c"/><linearGradient id="el" x1="-3.392" y1="4.392" x2="-48.455" y2="49.454" xlink:href="#c"/><linearGradient id="em" x1="251.685" y1="-250.369" x2="39.081" y2="-38.032" xlink:href="#c"/><linearGradient id="en" x1="23.681" y1="-22.681" x2="-6.999" y2="7.999" xlink:href="#c"/><linearGradient id="eo" x1="95.097" y1="-94.139" x2="21.926" y2="-20.935" xlink:href="#c"/><linearGradient id="ep" x1="68.199" y1="-67.2" x2="-70.587" y2="71.588" xlink:href="#c"/><linearGradient id="eq" x1="93.628" y1="-92.498" x2="-134.713" y2="135.524" xlink:href="#c"/><linearGradient id="er" x1="29.982" y1="-28.982" x2="-125.886" y2="126.886" xlink:href="#c"/><linearGradient id="es" x1="112.064" y1="-111.064" x2="4.926" y2="-3.926" xlink:href="#c"/><linearGradient id="et" x1="154.992" y1="-153.77" x2="-84.157" y2="85.034" xlink:href="#c"/><linearGradient id="eu" x1="112.492" y1="-111.422" x2="8.053" y2="-7.049" xlink:href="#c"/><linearGradient id="ev" x1="70.937" y1="-69.845" x2="-145.257" y2="146.068" xlink:href="#c"/><linearGradient id="ew" x1="18.421" y1="-17.421" x2="-34.525" y2="35.525" xlink:href="#c"/><linearGradient id="ex" x1="15.538" y1="-14.538" x2="-62.644" y2="63.645" xlink:href="#c"/><linearGradient id="ey" x1="56.64" y1="-55.64" x2="-2.405" y2="3.405" xlink:href="#c"/><linearGradient id="ez" x1="94.704" y1="-93.705" x2="-71.813" y2="72.813" xlink:href="#c"/><linearGradient id="fa" x1="-0.007" y1="1.007" x2="-128.826" y2="129.821" xlink:href="#c"/><linearGradient id="fb" x1="51.936" y1="-50.936" x2="11.703" y2="-10.703" xlink:href="#c"/><linearGradient id="fc" x1="13.217" y1="-12.219" x2="-18.845" y2="19.848" xlink:href="#c"/><linearGradient id="fd" x1="103.656" y1="-102.656" x2="-46.241" y2="47.241" xlink:href="#c"/><linearGradient id="fe" x1="23.985" y1="-22.985" x2="-22.329" y2="23.329" xlink:href="#c"/><linearGradient id="ff" x1="105.188" y1="-104.184" x2="-109.342" y2="110.338" xlink:href="#c"/><linearGradient id="fg" x1="25.184" y1="-24.184" x2="-15.392" y2="16.392" xlink:href="#c"/><linearGradient id="fh" x1="57.004" y1="-56.001" x2="-174.512" y2="175.505" xlink:href="#c"/><linearGradient id="fi" x1="26.741" y1="-25.727" x2="-60.758" y2="61.725" xlink:href="#c"/><linearGradient id="fj" x1="29.335" y1="-28.335" x2="-15.705" y2="16.705" xlink:href="#c"/><linearGradient id="fk" x1="7.595" y1="-6.594" x2="-167.681" y2="168.679" xlink:href="#c"/><linearGradient id="fl" x1="23.449" y1="-22.448" x2="-173.165" y2="174.161" xlink:href="#c"/><linearGradient id="fm" x1="54.516" y1="-53.462" x2="-116.79" y2="117.671" xlink:href="#c"/><linearGradient id="fn" x1="-6.538" y1="7.538" x2="-92.485" y2="93.485" xlink:href="#c"/><linearGradient id="fo" x1="10.604" y1="-9.599" x2="-83.886" y2="84.84" xlink:href="#c"/><linearGradient id="fp" x1="138.428" y1="-137.428" x2="-115.662" y2="116.662" xlink:href="#c"/><linearGradient id="fq" x1="40.958" y1="-39.958" x2="-9.907" y2="10.907" xlink:href="#c"/><linearGradient id="fr" x1="50.706" y1="-49.705" x2="-157.082" y2="158.079" xlink:href="#c"/><linearGradient id="fs" x1="21.081" y1="-20.072" x2="-50.612" y2="51.59" xlink:href="#c"/><linearGradient id="ft" x2="1" y2="1" gradientUnits="objectBoundingBox"><stop offset="0" stop-color="#17db0a"/><stop offset="1" stop-color="#187a11"/></linearGradient></defs><g class="c"><g transform="translate(-52)"><rect class="b" width="2025" height="1080"/><g class="d"><g transform="translate(-37.47 629.982)"><path class="e" d="M43.336,178.1H31.451l-5.942,10.292,5.942,10.293H43.336l5.942-10.293Z" transform="translate(107.619 -140.21)"/><path class="f" d="M110.794,178.36H98.256l-6.269,10.858,6.269,10.859h12.538l6.269-10.859Z" transform="translate(290.435 -139.492)"/><path class="g" d="M190.191,213.99H115.246l-37.472,64.9,37.472,64.9h74.944l37.472-64.9Z" transform="translate(251.348 -41.509)"/><path class="h" d="M131.776,252.779h-92.7L-7.27,333.058l46.348,80.278h92.7l46.349-80.278Z" transform="translate(17.478 65.161)"/><path class="i" d="M348.11,291.924h-11.7l-5.85,10.132,5.85,10.132h11.7l5.85-10.132Z" transform="translate(946.514 172.81)"/><path class="j" d="M116.681,191.278H91.329L78.654,213.233l12.675,21.955h25.352l12.676-21.955Z" transform="translate(253.768 -103.967)"/><path class="k" d="M216.181,291H190.435l-12.873,22.3,12.873,22.3h25.747l12.873-22.3Z" transform="translate(525.763 170.256)"/><path class="l" d="M292.24,241.016H272.466l-9.887,17.125,9.887,17.125H292.24l9.887-17.125Z" transform="translate(759.564 32.812)"/><path class="m" d="M93.154,266.591H51.114L30.093,303l21.02,36.408H93.154L114.174,303Z" transform="translate(120.227 103.143)"/><path class="n" d="M277.662,262.258H266.111l-5.776,10,5.776,10h11.551l5.775-10Z" transform="translate(753.392 91.228)"/><path class="o" d="M179.877,193H166.5l-6.687,11.582,6.687,11.582h13.374l6.687-11.582Z" transform="translate(476.966 -99.221)"/><path class="p" d="M310.971,268.83H243.62l-33.676,58.328,33.676,58.328h67.352l33.675-58.328Z" transform="translate(614.816 109.3)"/><path class="q" d="M266.855,254.758H169.588l-48.633,84.236,48.633,84.235h97.267l48.633-84.235Z" transform="translate(370.095 70.602)"/><path class="r" d="M248.358,221.875H212.144l-18.107,31.362L212.144,284.6h36.213l18.107-31.362Z" transform="translate(571.073 -19.824)"/><path class="s" d="M323.393,248.314H236.5l-43.447,75.252L236.5,398.819h86.894l43.447-75.253Z" transform="translate(568.363 52.883)"/><path class="t" d="M69.292,237.709H52.464l-8.414,14.573,8.414,14.573H69.292l8.414-14.573Z" transform="translate(158.609 23.718)"/><path class="u" d="M225.114,240.292H183.285L162.37,276.518l20.915,36.225h41.829l20.915-36.225Z" transform="translate(483.987 30.821)"/><path class="v" d="M168.489,224.159H142.257l-13.116,22.717,13.116,22.717h26.232L181.6,246.876Z" transform="translate(392.609 -13.544)"/><path class="w" d="M137.588,275.844H107.3L92.163,302.07,107.3,328.3h30.283L152.73,302.07Z" transform="translate(290.917 128.589)"/><path class="x" d="M135.191,168H40.617L-6.67,249.9l47.287,81.9h94.574l47.287-81.9Z" transform="translate(19.127 -167.995)"/><path class="y" d="M93.495,178.427H79.782L72.926,190.3l6.856,11.875H93.495l6.856-11.875Z" transform="translate(238.017 -139.307)"/><path class="z" d="M168.972,213.935H86.589L45.4,285.281l41.192,71.346h82.383l41.192-71.346Z" transform="translate(162.311 -41.661)"/><path class="aa" d="M175.845,298.384H164.692l-5.576,9.658,5.576,9.658h11.153l5.576-9.658Z" transform="translate(475.04 190.575)"/><path class="ab" d="M156.855,252.926H141.373l-7.741,13.408,7.741,13.408h15.482l7.741-13.408Z" transform="translate(404.959 65.565)"/><path class="ac" d="M199.456,246.449H112.717l-43.37,75.118,43.37,75.119h86.739l43.37-75.119Z" transform="translate(228.175 47.753)"/><path class="ad" d="M214.519,279.691H201.882l-6.319,10.944,6.319,10.944h12.637l6.318-10.944Z" transform="translate(575.269 139.169)"/><path class="ae" d="M35.192,249.64H12.634L1.354,269.176l11.279,19.536H35.192l11.279-19.536Z" transform="translate(41.194 56.528)"/><path class="af" d="M237.2,262.177H190.7l-23.25,40.27,23.25,40.27h46.5l23.25-40.27Z" transform="translate(497.945 91.006)"/><path class="ag" d="M321.527,275.353H276.582L254.11,314.276,276.582,353.2h44.944L344,314.276Z" transform="translate(736.272 127.239)"/><path class="ah" d="M278.2,298.3H266.988l-5.6,9.706,5.6,9.705H278.2l5.6-9.705Z" transform="translate(756.279 190.355)"/><path class="ai" d="M321.96,256.718H303.642l-9.159,15.864,9.159,15.864H321.96l9.159-15.864Z" transform="translate(847.298 75.993)"/><path class="aj" d="M77.447,217.185H46.812L31.494,243.716l15.318,26.531H77.447l15.318-26.531Z" transform="translate(124.078 -32.724)"/><path class="ak" d="M49.1,173.263H10.318L-9.073,206.85l19.391,33.586H49.1L68.491,206.85Z" transform="translate(12.519 -153.508)"/><path class="al" d="M88.562,271.747H67.242L56.582,290.21l10.66,18.464H88.562l10.66-18.464Z" transform="translate(193.07 117.322)"/><g transform="translate(882.154 304.162)"><path class="am" d="M255.661,250.357l9.652,16.721L255.661,283.8H236.353L226.7,267.079l9.653-16.721h19.309m.724-1.253H235.629l-10.38,17.974,10.38,17.977h20.756l10.376-17.977L256.385,249.1Z" transform="translate(-225.249 -249.105)"/></g><g transform="translate(453.701 280.953)"><path class="an" d="M149.2,244.495l12.128,21-12.128,21H124.941l-12.127-21,12.127-21H149.2m.911-1.579H124.03L110.995,265.5l13.035,22.583h26.077L163.142,265.5l-13.035-22.583Z" transform="translate(-110.995 -242.916)"/></g><g transform="translate(848.55 295.702)"><path class="ao" d="M362.182,252.872l46.313,80.216L362.182,413.3H269.553L223.24,333.088l46.313-80.216h92.629m3.476-6.023H266.077l-49.789,86.239,49.789,86.235h99.581l49.789-86.235-49.789-86.239Z" transform="translate(-216.288 -246.849)"/></g><g transform="translate(466.785 412.271)"><path class="ap" d="M174.315,280.4l18.99,32.895-18.99,32.9H136.328l-18.99-32.9,18.99-32.895h37.987m1.425-2.468H134.9L114.484,313.3,134.9,348.663H175.74L196.159,313.3,175.74,277.934Z" transform="translate(-114.484 -277.934)"/></g><g transform="translate(180.337 92.542)"><path class="aq" d="M69.171,193.956l9.866,17.085-9.866,17.085H49.442L39.579,211.04l9.863-17.085H69.171m.742-1.283H48.7L38.1,211.04l10.6,18.367h21.21L80.518,211.04,69.913,192.673Z" transform="translate(-38.098 -192.673)"/></g><g transform="translate(469.766 368.928)"><path class="ar" d="M142.107,267.486l8.516,14.749-8.516,14.752H125.074l-8.516-14.752,8.516-14.749h17.033m.641-1.11H124.437l-9.158,15.859,9.158,15.859h18.311l9.154-15.859-9.154-15.859Z" transform="translate(-115.279 -266.376)"/></g><g transform="translate(445.432 48.491)"><path class="as" d="M127.12,181.68l5.816,10.08-5.816,10.076H115.48l-5.816-10.076,5.816-10.08h11.64m.435-.754h-12.51L108.79,191.76l6.255,10.834h12.51l6.255-10.834-6.255-10.834Z" transform="translate(-108.79 -180.926)"/></g><g transform="translate(144.236 266.906)"><path class="at" d="M154.482,244.371l40,69.285-40,69.285h-80l-40-69.285,40-69.285h80m3-5.2H71.476l-43,74.486,43,74.486h86.01l43.005-74.486L157.486,239.17Z" transform="translate(-28.471 -239.17)"/></g><g transform="translate(297.544 320.216)"><path class="au" d="M86.157,254.08l5.332,9.24-5.332,9.24H75.488l-5.336-9.24,5.336-9.24H86.157m.4-.694H75.087l-5.734,9.934,5.734,9.934H86.558l5.734-9.934-5.734-9.934Z" transform="translate(-69.353 -253.386)"/></g><g transform="translate(941.745 462.997)"><path class="av" d="M263.49,292.383l7.1,12.289-7.1,12.289H249.3l-7.1-12.289,7.1-12.289h14.19m.533-.922H248.767l-7.627,13.211,7.627,13.211h15.255l7.628-13.211-7.628-13.211Z" transform="translate(-241.14 -291.461)"/></g><g transform="translate(1060.099 351.596)"><path class="aw" d="M365.082,265.568l29.325,50.794-29.325,50.79h-58.65l-29.325-50.79,29.325-50.794h58.65m2.2-3.814H304.231L272.7,316.362l31.53,54.6h63.052l31.526-54.6-31.526-54.608Z" transform="translate(-272.701 -261.754)"/></g><g transform="translate(22.627 184.62)"><path class="ax" d="M138.508,223.111l45.225,78.33-45.225,78.334H48.058L2.833,301.441l45.225-78.33h90.45m3.394-5.884H44.661L-3.958,301.441l48.619,84.214H141.9l48.622-84.214L141.9,217.227Z" transform="translate(3.958 -217.227)"/></g><g transform="translate(313.886 438.517)"><path class="ay" d="M90.087,285.608l5.2,9-5.2,9h-10.4l-5.2-9,5.2-9h10.4m.39-.675H79.3l-5.587,9.679L79.3,304.29H90.477l5.587-9.679-5.587-9.679Z" transform="translate(-73.711 -284.933)"/></g><g transform="translate(121.77 159.18)"><path class="az" d="M41.718,211.238l6.109,10.579L41.718,232.4H29.5L23.4,221.817,29.5,211.238H41.718m.461-.795H29.046L22.48,221.817l6.566,11.37H42.179l6.566-11.37-6.566-11.374Z" transform="translate(-22.48 -210.443)"/></g><g transform="translate(828.664 265.668)"><path class="ba" d="M231.31,239.68l6.454,11.175L231.31,262.03h-12.9l-6.45-11.175,6.45-11.175h12.9m.484-.84H217.923l-6.938,12.015,6.938,12.015h13.871l6.938-12.015-6.937-12.015Z" transform="translate(-210.985 -238.84)"/></g><g transform="translate(622.526 423.701)"><path class="bb" d="M191.329,282.441l11.209,19.418-11.209,19.417H168.907L157.7,301.858l11.209-19.418h22.421m.84-1.459h-24.1l-12.052,20.876,12.052,20.872h24.1l12.052-20.872-12.052-20.876Z" transform="translate(-156.015 -280.982)"/></g><g transform="translate(0 226.83)"><path class="bc" d="M28.468,230.069l12.21,21.146-12.21,21.146H4.052l-12.21-21.146,12.21-21.146H28.468m.919-1.586H3.133L-9.992,251.216,3.133,273.948H29.387l13.125-22.732L29.387,228.483Z" transform="translate(9.992 -228.483)"/></g><g transform="translate(65.438 475.046)"><path class="bd" d="M27.352,295.491l6.315,10.939-6.315,10.939H14.722L8.407,306.43l6.315-10.939h12.63m.476-.817H14.249L7.458,306.43l6.791,11.76H27.828l6.788-11.76-6.788-11.756Z" transform="translate(-7.458 -294.674)"/></g><g transform="translate(568.155 171.836)"><path class="be" d="M269.623,219.105l40.665,70.44-40.665,70.436H188.29l-40.669-70.436,40.669-70.44h81.334m3.053-5.287H185.237l-43.721,75.727,43.721,75.724h87.439L316.4,289.545l-43.721-75.727Z" transform="translate(-141.516 -213.818)"/></g><g transform="translate(1346.67 467.861)"><path class="bf" d="M381.43,294.089l10.256,17.767L381.43,329.621H360.917l-10.256-17.764,10.256-17.767H381.43m.769-1.331H360.145l-11.025,19.1,11.025,19.1H382.2l11.029-19.1-11.029-19.1Z" transform="translate(-349.12 -292.758)"/></g><g transform="translate(435.405 91.541)"><path class="bg" d="M189.553,195.849l26.49,45.877L189.553,287.6H136.581l-26.49-45.878,26.49-45.877h52.973m1.991-3.443H134.59l-28.474,49.32L134.59,291.05h56.955l28.474-49.324-28.474-49.32Z" transform="translate(-106.116 -192.406)"/></g><g transform="translate(613.609 251.992)"><path class="bh" d="M172.473,235.969l5.977,10.357-5.977,10.357H160.514l-5.981-10.357,5.981-10.357h11.959m.446-.776H160.064l-6.427,11.134,6.427,11.134H172.92l6.427-11.134-6.427-11.134Z" transform="translate(-153.637 -235.193)"/></g><g transform="translate(426.664 466.2)"><path class="bi" d="M145.012,294.018,158.1,316.686l-13.087,22.669H118.838L105.75,316.686l13.088-22.669h26.175m.983-1.7h-28.14l-14.07,24.371,14.07,24.371h28.14l14.07-24.371-14.07-24.371Z" transform="translate(-103.785 -292.315)"/></g><g transform="translate(769.98 325.076)"><path class="bj" d="M217.187,255.582l6.934,12.015-6.934,12.011H203.312L196.378,267.6l6.934-12.015h13.875m.518-.9h-14.91L195.336,267.6l7.459,12.915H217.7l7.459-12.915L217.7,254.682Z" transform="translate(-195.336 -254.682)"/></g><g transform="translate(1218.983 389.04)"><path class="bk" d="M333.025,272.478l5.7,9.874-5.7,9.874h-11.4l-5.7-9.874,5.7-9.874h11.4m.427-.739H321.2l-6.127,10.612,6.127,10.612h12.255l6.128-10.612-6.128-10.612Z" transform="translate(-315.07 -271.739)"/></g><g transform="translate(637.105 36.987)"><circle class="bl" cx="1.234" cy="1.234" r="1.234"/></g><g transform="translate(521.273 37.927)"><path class="bm" d="M136.176,181.69a3.581,3.581,0,1,1-3.581-3.581A3.581,3.581,0,0,1,136.176,181.69Z" transform="translate(-129.014 -178.109)"/></g><g transform="translate(156.621 471.979)"><circle class="bn" cx="4.731" cy="4.731" r="4.731"/></g><g transform="translate(1332.394 398.936)"><path class="bo" d="M348.092,275.765a1.389,1.389,0,1,1-1.387-1.387A1.39,1.39,0,0,1,348.092,275.765Z" transform="translate(-345.313 -274.378)"/></g><g transform="translate(962.059 279.933)"><path class="bp" d="M262.72,250.721a8.081,8.081,0,1,1-8.081-8.078A8.082,8.082,0,0,1,262.72,250.721Z" transform="translate(-246.557 -242.644)"/></g><g transform="translate(749.61 267.832)"><circle class="bq" cx="1.997" cy="1.997" r="1.997"/></g><g transform="translate(1192.073 448.627)"><path class="br" d="M310.219,288.792a1.162,1.162,0,1,1-1.162-1.162A1.163,1.163,0,0,1,310.219,288.792Z" transform="translate(-307.894 -287.629)"/></g><g transform="translate(36.247 422.193)"><path class="bs" d="M13.343,287.416A6.834,6.834,0,1,1,6.51,280.58,6.835,6.835,0,0,1,13.343,287.416Z" transform="translate(0.326 -280.58)"/></g><g transform="translate(884.46 496.976)"><path class="bt" d="M229.955,302.57a2.046,2.046,0,1,1-2.047-2.047A2.045,2.045,0,0,1,229.955,302.57Z" transform="translate(-225.864 -300.522)"/></g><g transform="translate(1193.239 498.532)"><path class="bu" d="M314.3,303.982a3.045,3.045,0,1,1-3.045-3.045A3.045,3.045,0,0,1,314.3,303.982Z" transform="translate(-308.205 -300.937)"/></g><g transform="translate(249.405 169.016)"><path class="bv" d="M58.687,214.15a1.086,1.086,0,1,1-1.084-1.084A1.088,1.088,0,0,1,58.687,214.15Z" transform="translate(-56.516 -213.066)"/></g><g transform="translate(143.663 327.543)"><path class="bw" d="M41.259,261.809a6.471,6.471,0,1,1-6.469-6.469A6.467,6.467,0,0,1,41.259,261.809Z" transform="translate(-28.318 -255.34)"/></g><g transform="translate(741.467 202.852)"><circle class="bx" cx="2.844" cy="2.844" r="2.844"/></g><g transform="translate(250.231 480.342)"><circle class="by" cx="8.482" cy="8.482" r="8.482"/></g><g transform="translate(557.287 489.483)"><path class="bz" d="M141.929,300.182a1.656,1.656,0,1,1-1.654-1.658A1.654,1.654,0,0,1,141.929,300.182Z" transform="translate(-138.618 -298.524)"/></g><g transform="translate(14.801 481.391)"><path class="ca" d="M-.735,299.021a2.655,2.655,0,0,1-2.655,2.655,2.655,2.655,0,0,1-2.655-2.655,2.655,2.655,0,0,1,2.655-2.655A2.655,2.655,0,0,1-.735,299.021Z" transform="translate(6.045 -296.366)"/></g><g transform="translate(16.834 360.315)"><path class="cb" d="M-3.4,265.133a1.055,1.055,0,0,1-1.054,1.054A1.055,1.055,0,0,1-5.5,265.133a1.055,1.055,0,0,1,1.054-1.054A1.055,1.055,0,0,1-3.4,265.133Z" transform="translate(5.503 -264.079)"/></g><g transform="translate(72.313 202.44)"><circle class="cc" cx="2.49" cy="2.49" r="2.49"/></g><g transform="translate(1116.326 274.308)"><path class="cd" d="M296.579,245.584a4.442,4.442,0,1,1-4.444-4.44A4.443,4.443,0,0,1,296.579,245.584Z" transform="translate(-287.695 -241.144)"/></g><g transform="translate(249.938 59.313)"><path class="ce" d="M65.819,188.395a4.581,4.581,0,1,1-4.579-4.583A4.578,4.578,0,0,1,65.819,188.395Z" transform="translate(-56.658 -183.812)"/></g><g transform="translate(628.191 344.236)"><circle class="cf" cx="1.173" cy="1.173" r="1.173"/></g><g transform="translate(400.639 176.913)"><path class="cg" d="M99.627,216.56a1.391,1.391,0,1,1-1.391-1.388A1.391,1.391,0,0,1,99.627,216.56Z" transform="translate(-96.845 -215.172)"/></g><g transform="translate(367.53 488.535)"><circle class="ch" cx="5.462" cy="5.462" r="5.462"/></g><g transform="translate(1447.034 493.755)"><circle class="ci" cx="1.068" cy="1.068" r="1.068"/></g><g transform="translate(566.755 68.35)"><circle class="cj" cx="6.516" cy="6.516" r="6.516"/></g><g transform="translate(24.641 128.156)"><path class="ck" d="M10.81,209.284A7.116,7.116,0,1,1,3.7,202.17,7.115,7.115,0,0,1,10.81,209.284Z" transform="translate(3.421 -202.17)"/></g><g transform="translate(821.618 480.606)"><circle class="cl" cx="1.545" cy="1.545" r="1.545"/></g><g transform="translate(1116.418 470.259)"><circle class="cm" cx="1.104" cy="1.104" r="1.104"/></g></g><g transform="translate(301.965 -38.044)"><path class="cn" d="M404.461-6.107H385.489L376,10.323l9.486,16.43h18.972l9.486-16.43Z" transform="translate(732.044 21.249)"/><path class="co" d="M478.8,68.392H447.19L431.385,95.768l15.805,27.376H478.8l15.805-27.376Z" transform="translate(884.344 226.123)"/><path class="cp" d="M570.41,57.733H493.9l-38.256,66.261L493.9,190.254H570.41l38.256-66.261Z" transform="translate(951.054 196.81)"/><path class="cq" d="M493.445,12.541h-25.1L455.788,34.282,468.34,56.024h25.1L506,34.282Z" transform="translate(951.453 72.531)"/><path class="cr" d="M244.143-6.166H220.624L208.864,14.2,220.624,34.57h23.519L255.9,14.2Z" transform="translate(272.412 21.088)"/><path class="cs" d="M483.441,30.689H371.652L315.757,127.5l55.895,96.812H483.441L539.336,127.5Z" transform="translate(566.368 122.439)"/><path class="ct" d="M386.432-4.087h-22.5L352.676,15.4,363.928,34.89h22.5L397.683,15.4Z" transform="translate(667.895 26.804)"/><path class="cu" d="M584.649,66.113h-13.4l-6.7,11.6,6.7,11.6h13.4l6.7-11.6Z" transform="translate(1250.557 219.856)"/><path class="cv" d="M165.265,13.726H149.323l-7.971,13.807,7.971,13.806h15.942l7.971-13.806Z" transform="translate(86.752 75.791)"/><path class="cw" d="M407.064,15.519H391.436l-7.815,13.535,7.815,13.535h15.629l7.815-13.535Z" transform="translate(752.993 80.722)"/><path class="cx" d="M372.068,31.137H307.12L274.646,87.384l32.474,56.247h64.948l32.474-56.247Z" transform="translate(453.313 123.671)"/><path class="cy" d="M587.344,110.137H491.537l-47.9,82.971,47.9,82.972h95.807l47.9-82.972Z" transform="translate(918.025 340.921)"/><path class="cz" d="M609.371,84.237h-70.8l-35.4,61.319,35.4,61.319h70.8l35.4-61.319Z" transform="translate(1081.736 269.697)"/><path class="da" d="M528.809-6.335H513.959l-7.425,12.86,7.425,12.86h14.849l7.425-12.86Z" transform="translate(1091.005 20.622)"/><path class="db" d="M544.645,59.305H443.518l-50.564,87.579,50.564,87.579H544.645l50.563-87.579Z" transform="translate(778.659 201.133)"/><path class="dc" d="M550.837,120.2h-22.8l-11.4,19.747,11.4,19.747h22.8l11.4-19.747Z" transform="translate(1118.778 368.595)"/><path class="dd" d="M616.357,32.408H510.709L457.885,123.9,510.709,215.4H616.357L669.181,123.9Z" transform="translate(957.219 127.164)"/><path class="de" d="M653.291,53.285H548.474l-52.408,90.774,52.408,90.774H653.291L705.7,144.059Z" transform="translate(1062.217 184.578)"/><path class="df" d="M527.179,48.528H468.932L439.809,98.971l29.123,50.443h58.247L556.3,98.971Z" transform="translate(907.509 171.495)"/><path class="dg" d="M485.586,9.2H429.244L401.072,57.989l28.172,48.794h56.343l28.171-48.794Z" transform="translate(800.984 63.331)"/><g transform="translate(1494.713 394.204)"><path class="dh" d="M608.707,100.327l41.138,71.254-41.138,71.254H526.432l-41.138-71.254,41.138-71.254h82.275m3.09-5.351H523.341l-44.227,76.6,44.227,76.6H611.8l44.224-76.6L611.8,94.976Z" transform="translate(-479.114 -94.976)"/></g><g transform="translate(1465.177 267.735)"><path class="di" d="M637.911,68.132l52.9,91.639-52.9,91.639H532.093l-52.909-91.639,52.909-91.639H637.911m3.971-6.881H528.118l-56.88,98.52,56.88,98.52H641.882l56.88-98.52-56.88-98.52Z" transform="translate(-471.238 -61.251)"/></g><g transform="translate(1719.274 343.084)"><path class="dj" d="M566.732,82.488l8.8,15.247-8.8,15.247h-17.61l-8.8-15.247,8.8-15.247h17.61m.66-1.144h-18.93L539,97.735l9.465,16.395h18.93l9.465-16.395-9.465-16.391Z" transform="translate(-538.997 -81.344)"/></g><g transform="translate(574.676 22.736)"><path class="dk" d="M281.073-2.132l15.011,26.01L281.073,49.884H251.04L236.025,23.878,251.04-2.132h30.034m1.125-1.95H249.915l-16.144,27.96,16.144,27.96H282.2l16.144-27.96L282.2-4.082Z" transform="translate(-233.771 4.082)"/></g><g transform="translate(450.015 90.757)"><path class="dl" d="M220.328,14.875l6.285,10.886-6.285,10.886h-12.57l-6.285-10.886,6.285-10.886h12.57m.473-.818H207.285l-6.758,11.7,6.758,11.7H220.8l6.757-11.7-6.757-11.7Z" transform="translate(-200.528 -14.057)"/></g><g transform="translate(1474.039 6.851)"><path class="dm" d="M612.077-2.6l43.957,76.14-43.957,76.14H524.158L480.2,73.537,524.158-2.6h87.919m3.3-5.715H520.858L473.6,73.537l47.257,81.855h94.519l47.258-81.855L615.377-8.318Z" transform="translate(-473.601 8.318)"/></g><g transform="translate(0 35.524)"><path class="dn" d="M102.371.232l6.938,12.011-6.937,12.015H88.5L81.566,12.243,88.5.232h13.871m.521-.9H87.979L80.524,12.243l7.455,12.915h14.914l7.459-12.915L102.893-.672Z" transform="translate(-80.524 0.672)"/></g><g transform="translate(1319.861 117.709)"><path class="do" d="M456.832,22.249l7.729,13.388-7.729,13.387H441.375l-7.729-13.387,7.729-13.388h15.458m.581-1h-16.62l-8.306,14.393,8.306,14.392h16.62l8.31-14.392-8.31-14.393Z" transform="translate(-432.487 -21.244)"/></g><g transform="translate(1704.765 23.891)"><path class="dp" d="M560.812-2.717l8.153,14.123-8.153,14.122h-16.3l-8.153-14.122,8.153-14.123h16.3m.611-1.057H543.9l-8.768,15.18L543.9,26.59h17.527l8.768-15.184-8.768-15.18Z" transform="translate(-535.128 3.774)"/></g><g transform="translate(934.106 156.06)"><path class="dq" d="M363.339,32.866l10.7,18.54-10.7,18.54H341.93l-10.706-18.54,10.706-18.54h21.409m.8-1.4H341.128L329.619,51.406l11.509,19.931h23.014L375.65,51.406,364.142,31.471Z" transform="translate(-329.619 -31.471)"/></g><g transform="translate(1592.932 179.145)"><path class="dr" d="M543.961,39.221l12.27,21.255-12.27,21.251h-24.54l-12.27-21.251,12.27-21.255h24.54m.922-1.594H518.5L505.306,60.476,518.5,83.325h26.385l13.189-22.849L544.883,37.627Z" transform="translate(-505.306 -37.627)"/></g><g transform="translate(1853.674 347.287)"><path class="ds" d="M603,83.628l8.94,15.484L603,114.6H585.12l-8.94-15.484,8.94-15.484H603m.671-1.163H584.448l-9.611,16.646,9.611,16.646h19.222l9.611-16.646-9.611-16.646Z" transform="translate(-574.837 -82.465)"/></g><g transform="translate(553.886 111.206)"><path class="dt" d="M259.292,20.792l9.862,17.077-9.862,17.081H239.571L229.708,37.87l9.863-17.077h19.721m.739-1.283h-21.2l-10.6,18.36,10.6,18.364h21.2L270.636,37.87,260.031,19.51Z" transform="translate(-228.227 -19.51)"/></g><g transform="translate(1027.054 181.309)"><path class="du" d="M525.6,45.273,579.949,139.4,525.6,233.53H416.91L362.565,139.4,416.91,45.273H525.6m4.08-7.069H412.83L354.405,139.4,412.83,240.6H529.68l58.429-101.2L529.68,38.2Z" transform="translate(-354.405 -38.204)"/></g><g transform="translate(1357.601 309.641)"><path class="dv" d="M578.481,78.036l43.151,74.737-43.151,74.738h-86.3l-43.151-74.738,43.151-74.737h86.3m3.24-5.61H488.942l-46.391,80.347,46.391,80.351h92.779l46.387-80.351L581.721,72.426Z" transform="translate(-442.551 -72.426)"/></g><g transform="translate(642.701 86.827)"><path class="dw" d="M297.995,14.91l14.629,25.339L297.995,65.588H268.737L254.108,40.249,268.737,14.91h29.258m1.1-1.9H267.639l-15.728,27.24,15.728,27.24h31.455l15.727-27.24-15.727-27.24Z" transform="translate(-251.911 -13.009)"/></g><g transform="translate(1613.096 47.393)"><path class="dx" d="M674.284,9.247,726.218,99.2l-51.934,89.955H570.417L518.483,99.2,570.417,9.247H674.284m3.9-6.754H566.517L510.683,99.2l55.834,96.709H678.184L734.014,99.2l-55.83-96.7Z" transform="translate(-510.683 -2.493)"/></g><g transform="translate(278.344 0.203)"><path class="dy" d="M247.367-6.27l29.4,50.925-29.4,50.925h-58.8l-29.4-50.925,29.4-50.925h58.8m2.209-3.821H186.358L154.749,44.655l31.609,54.75h63.218l31.609-54.75L249.575-10.091Z" transform="translate(-154.749 10.091)"/></g><g transform="translate(1822.639 543.304)"><path class="dz" d="M587.932,135.617l6.783,11.753-6.783,11.749H574.365l-6.784-11.749,6.784-11.753h13.567m.51-.881H573.855l-7.294,12.634L573.855,160h14.587l7.294-12.634-7.294-12.634Z" transform="translate(-566.561 -134.736)"/></g><g transform="translate(1799.512 382.969)"><path class="ea" d="M580.276,92.8l6.312,10.931-6.312,10.931H567.654l-6.311-10.931L567.654,92.8h12.622m.473-.821H567.178l-6.784,11.752,6.784,11.753h13.571l6.784-11.753L580.749,91.98Z" transform="translate(-560.394 -91.98)"/></g><g transform="translate(856.777)"><path class="eb" d="M474.786-3.3l52.627,91.155-52.627,91.155H369.527L316.9,87.854,369.527-3.3H474.786m3.949-6.844H365.578l-56.58,98,56.58,98H478.734l56.58-98-56.58-98Z" transform="translate(-308.998 10.145)"/></g><g transform="translate(1126.804 363.311)"><path class="ec" d="M460.351,90.012l25.193,43.628-25.193,43.627H409.974l-25.189-43.627,25.189-43.628h50.377m1.894-3.274H408.084l-27.079,46.9,27.079,46.9h54.161l27.079-46.9-27.079-46.9Z" transform="translate(-381.005 -86.738)"/></g><g transform="translate(1038.094 128.685)"><path class="ed" d="M386.153,25.36,395.292,41.2l-9.139,15.836H367.864L358.722,41.2l9.143-15.836h18.289m.682-1.189H367.178L357.349,41.2l9.829,17.025h19.658L396.668,41.2l-9.833-17.025Z" transform="translate(-357.349 -24.171)"/></g><g transform="translate(1009.875 237.184)"><path class="ee" d="M425.394,56.224l23.989,41.55-23.989,41.55H377.417l-23.989-41.55,23.989-41.55h47.978m1.8-3.12H375.616l-25.792,44.67,25.792,44.666h51.578l25.789-44.666L427.194,53.1Z" transform="translate(-349.824 -53.104)"/></g><g transform="translate(634.639 34.133)"><path class="ef" d="M412.391,5.669l51.63,89.423-51.63,89.419H309.138L257.512,95.092,309.138,5.669H412.391m3.877-6.712h-111l-55.5,96.135,55.5,96.131h111l55.5-96.131-55.5-96.135Z" transform="translate(-249.761 1.043)"/></g><g transform="translate(1321.305 133.256)"><path class="eg" d="M532.689,29.511l31.684,54.881-31.684,54.885H469.314L437.631,84.393l31.684-54.881h63.375m2.378-4.121h-68.13l-34.065,59,34.065,59h68.13l34.065-59-34.065-59Z" transform="translate(-432.872 -25.39)"/></g><g transform="translate(1175.186 330.742)"><path class="eh" d="M565.991,85.159l54.63,94.616-54.63,94.62H456.738l-54.63-94.62,54.63-94.616H565.991m4.1-7.106H452.636L393.907,179.776,452.636,281.5H570.093l58.729-101.722L570.093,78.053Z" transform="translate(-393.907 -78.053)"/></g><g transform="translate(1781.726 106.747)"><path class="ei" d="M584.174,19.5l9.052,15.683-9.052,15.683H566.065l-9.056-15.683L566.065,19.5h18.109m.679-1.177H565.386l-9.735,16.86,9.735,16.86h19.466l9.731-16.86-9.731-16.86Z" transform="translate(-555.651 -18.321)"/></g><g transform="translate(1073.231 117.248)"><path class="ej" d="M511.072,27.08,556.9,106.452l-45.825,79.372H419.425L373.6,106.452,419.425,27.08h91.646m3.443-5.959H415.983l-49.264,85.331,49.264,85.331h98.531l49.264-85.331L514.514,21.121Z" transform="translate(-366.719 -21.121)"/></g><g transform="translate(716.7 0.945)"><path class="ek" d="M422.469-3.668l47.88,82.931-47.88,82.928H326.713l-47.88-82.928,47.88-82.931h95.756m3.6-6.225H323.116L271.644,79.263l51.472,89.156H426.065l51.473-89.156L426.065-9.893Z" transform="translate(-271.644 9.893)"/></g><g transform="translate(718.387 26.261)"><path class="el" d="M277.382-.5a2.643,2.643,0,0,1-2.644,2.644A2.641,2.641,0,0,1,272.094-.5a2.643,2.643,0,0,1,2.644-2.644A2.646,2.646,0,0,1,277.382-.5Z" transform="translate(-272.094 3.142)"/></g><g transform="translate(1092.371 367.92)"><path class="em" d="M381.764,92.939a4.971,4.971,0,1,1-4.969-4.973A4.968,4.968,0,0,1,381.764,92.939Z" transform="translate(-371.823 -87.967)"/></g><g transform="translate(1862.969 71.322)"><circle class="en" cx="6.936" cy="6.936" r="6.936"/></g><g transform="translate(228.487 21.81)"><path class="eo" d="M144.394-2.855a1.47,1.47,0,0,1-1.47,1.47,1.472,1.472,0,0,1-1.47-1.47,1.473,1.473,0,0,1,1.47-1.474A1.471,1.471,0,0,1,144.394-2.855Z" transform="translate(-141.454 4.329)"/></g><g transform="translate(1291.117 552.019)"><path class="ep" d="M445.2,147.245a10.187,10.187,0,1,1-10.189-10.185A10.187,10.187,0,0,1,445.2,147.245Z" transform="translate(-424.822 -137.06)"/></g><g transform="translate(90.405 22.931)"><path class="eq" d="M113.174.241A4.271,4.271,0,1,1,108.9-4.03,4.268,4.268,0,0,1,113.174.241Z" transform="translate(-104.632 4.03)"/></g><g transform="translate(1511.689 437.828)"><path class="er" d="M488.145,108.859a2.252,2.252,0,1,1-2.254-2.25A2.253,2.253,0,0,1,488.145,108.859Z" transform="translate(-483.641 -106.609)"/></g><g transform="translate(1215.866 42.06)"><path class="es" d="M407.492,2.44a1.369,1.369,0,1,1-1.369-1.369A1.37,1.37,0,0,1,407.492,2.44Z" transform="translate(-404.755 -1.071)"/></g><g transform="translate(1484.699 37.488)"><circle class="et" cx="2.005" cy="2.005" r="2.005"/></g><g transform="translate(402.046 20.163)"><circle class="eu" cx="2.917" cy="2.917" r="2.917"/></g><g transform="translate(1374.724 498.652)"><path class="ev" d="M449.731,124.138a1.307,1.307,0,1,1-1.309-1.309A1.308,1.308,0,0,1,449.731,124.138Z" transform="translate(-447.117 -122.829)"/></g><g transform="translate(529.901 186.78)"><path class="ew" d="M227.816,42.659a2.993,2.993,0,1,1-2.992-3A2.994,2.994,0,0,1,227.816,42.659Z" transform="translate(-221.831 -39.663)"/></g><g transform="translate(1468.669 192.296)"><path class="ex" d="M475.06,42.581a1.446,1.446,0,1,1-1.444-1.447A1.445,1.445,0,0,1,475.06,42.581Z" transform="translate(-472.169 -41.134)"/></g><g transform="translate(1276.88 16.352)"><circle class="ey" cx="5.903" cy="5.903" r="5.903"/></g><g transform="translate(1694.209 250.995)"><path class="ez" d="M540.308,60.785a4,4,0,1,1-4-4A4,4,0,0,1,540.308,60.785Z" transform="translate(-532.313 -56.787)"/></g><g transform="translate(799.759 304.717)"><path class="fa" d="M304.379,76.4a5.293,5.293,0,1,1-5.295-5.291A5.294,5.294,0,0,1,304.379,76.4Z" transform="translate(-293.793 -71.113)"/></g><g transform="translate(1373.235 396.81)"><path class="fb" d="M450.474,97.55a1.877,1.877,0,1,1-1.879-1.879A1.876,1.876,0,0,1,450.474,97.55Z" transform="translate(-446.72 -95.671)"/></g><g transform="translate(1858.373 169.785)"><path class="fc" d="M580.942,37.557a2.426,2.426,0,1,1-2.426-2.426A2.425,2.425,0,0,1,580.942,37.557Z" transform="translate(-576.09 -35.131)"/></g><g transform="translate(144.626 59.198)"><path class="fd" d="M134.627,13.411a7.768,7.768,0,1,1-7.77-7.77A7.768,7.768,0,0,1,134.627,13.411Z" transform="translate(-119.091 -5.641)"/></g><g transform="translate(1728.739 540.919)"><path class="fe" d="M561.017,143.846a9.748,9.748,0,1,1-9.75-9.746A9.746,9.746,0,0,1,561.017,143.846Z" transform="translate(-541.521 -134.1)"/></g><g transform="translate(880.946 57.596)"><path class="ff" d="M319.613,7.3a2.085,2.085,0,1,1-2.085-2.085A2.085,2.085,0,0,1,319.613,7.3Z" transform="translate(-315.443 -5.214)"/></g><g transform="translate(1282.56 232.804)"><path class="fg" d="M436.036,58.682a6.748,6.748,0,1,1-6.746-6.746A6.75,6.75,0,0,1,436.036,58.682Z" transform="translate(-422.54 -51.936)"/></g><g transform="translate(1648.241 574.624)"><path class="fh" d="M522.969,144.547a1.457,1.457,0,1,1-1.455-1.459A1.456,1.456,0,0,1,522.969,144.547Z" transform="translate(-520.055 -143.088)"/></g><g transform="translate(938.719 15.555)"><path class="fi" d="M346.254,1.706a7.7,7.7,0,1,1-7.7-7.7A7.7,7.7,0,0,1,346.254,1.706Z" transform="translate(-330.849 5.997)"/></g><g transform="translate(1853.336 474.776)"><path class="fj" d="M577.447,117.812a1.35,1.35,0,1,1-1.35-1.35A1.349,1.349,0,0,1,577.447,117.812Z" transform="translate(-574.747 -116.462)"/></g><g transform="translate(1588.703 279.953)"><path class="fk" d="M511.322,68.083a3.572,3.572,0,1,1-3.574-3.574A3.573,3.573,0,0,1,511.322,68.083Z" transform="translate(-504.178 -64.509)"/></g><g transform="translate(1197.949 314.627)"><circle class="fl" cx="6.939" cy="6.939" r="6.939"/></g><g transform="translate(1873.973 240.904)"><path class="fm" d="M583.816,55.881a1.783,1.783,0,1,1-1.781-1.785A1.783,1.783,0,0,1,583.816,55.881Z" transform="translate(-580.25 -54.096)"/></g><g transform="translate(1647.667 109.914)"><circle class="fn" cx="1.59" cy="1.59" r="1.59"/></g><g transform="translate(1747.961 458.486)"><path class="fo" d="M550.3,113.944a1.824,1.824,0,1,1-1.826-1.826A1.826,1.826,0,0,1,550.3,113.944Z" transform="translate(-546.647 -112.118)"/></g><g transform="translate(1815.261 29.221)"><circle class="fp" cx="3.636" cy="3.636" r="3.636"/></g><g transform="translate(1778.242 228.259)"><path class="fq" d="M561.337,54.031a3.307,3.307,0,1,1-3.307-3.307A3.309,3.309,0,0,1,561.337,54.031Z" transform="translate(-554.722 -50.724)"/></g><g transform="translate(1558.328 553.271)"><path class="fr" d="M498.538,138.624a1.23,1.23,0,1,1-1.23-1.23A1.231,1.231,0,0,1,498.538,138.624Z" transform="translate(-496.078 -137.394)"/></g><g transform="translate(871.003 181.687)"><circle class="fs" cx="6.144" cy="6.144" r="6.144"/></g><g transform="translate(1534.711 153.103)"><circle class="ft" cx="1.504" cy="1.504" r="1.504"/></g><g transform="translate(1357.999 33.206)"><path class="fu" d="M451.376,3.071a4.359,4.359,0,1,1-4.361-4.361A4.358,4.358,0,0,1,451.376,3.071Z" transform="translate(-442.657 1.29)"/></g></g></g></g></g><rect class="fv" width="1920" height="1080"/></svg>