<svg xmlns="http://www.w3.org/2000/svg" xmlns:xlink="http://www.w3.org/1999/xlink" width="243.434" height="42.004" viewBox="0 0 243.434 42.004"><defs><clipPath id="a"><rect width="40.039" height="42.004" fill="none"/></clipPath></defs><g transform="translate(-81.29 -32.18)"><path d="M124.447,52.789a9.515,9.515,0,0,1-3.488-.6,7.615,7.615,0,0,1-2.6-1.692,7.341,7.341,0,0,1-1.679-2.6,8.929,8.929,0,0,1-.586-3.293V33.55l.391-.39h4.334l.391.39V44.575a5.336,5.336,0,0,0,.234,1.653,3.28,3.28,0,0,0,.638,1.171,2.707,2.707,0,0,0,1.015.729,3.475,3.475,0,0,0,1.406.26,3.384,3.384,0,0,0,1.406-.26,2.72,2.72,0,0,0,1.015-.716,3.411,3.411,0,0,0,.651-1.171,5.337,5.337,0,0,0,.234-1.653V33.55l.391-.39h4.321l.391.39V44.588a8.93,8.93,0,0,1-.586,3.293,7.523,7.523,0,0,1-1.679,2.6,7.81,7.81,0,0,1-2.6,1.692,9.515,9.515,0,0,1-3.593.612Z" transform="translate(10.497 0.296)" fill="#f28321"/><path d="M124.368,48.689a3.9,3.9,0,0,0,1.562-.286,3.228,3.228,0,0,0,1.158-.82,3.67,3.67,0,0,0,.716-1.3,5.688,5.688,0,0,0,.26-1.77V33.46h4.321V44.5a8.474,8.474,0,0,1-.56,3.15,6.912,6.912,0,0,1-1.588,2.473,7.133,7.133,0,0,1-2.525,1.614,9.84,9.84,0,0,1-6.69,0,7.016,7.016,0,0,1-2.525-1.614,6.912,6.912,0,0,1-1.588-2.473,8.747,8.747,0,0,1-.56-3.15V33.46h4.334V44.485a5.7,5.7,0,0,0,.247,1.77,3.7,3.7,0,0,0,.729,1.3,3.111,3.111,0,0,0,1.158.833A3.9,3.9,0,0,0,124.368,48.689Z" transform="translate(10.576 0.386)" fill="#f28321"/><path d="M145.4,52.6a2.109,2.109,0,0,1-1.809-.859l-8.031-10.153V52.206l-.391.39h-3.814l-.391-.39V33.553l.391-.39h2.265a3.071,3.071,0,0,1,.521,0,1.625,1.625,0,0,1,.859.39,2.773,2.773,0,0,1,.351.39l8.083,10.2v-10.6l.391-.39h3.814l.39.39V52.206l-.39.39Z" transform="translate(14.983 0.293)" fill="#f28321"/><path d="M147.56,33.463V52.115h-2.252a1.757,1.757,0,0,1-.833-.169,1.965,1.965,0,0,1-.677-.547L135,40.27a4.733,4.733,0,0,0,.065.963,4.02,4.02,0,0,1,0,.885v10H131.25V33.463h2.278a2.524,2.524,0,0,1,.469,0,1,1,0,0,1,.351.091,1.3,1.3,0,0,1,.3.2l.312.351,8.877,11.194a9.641,9.641,0,0,1-.091-1.041V33.463Z" transform="translate(15.07 0.384)" fill="#f28321"/><path d="M146.654,52.594l-.4-.39V33.537l.4-.377H151l.391.377V52.2l-.391.39Z" transform="translate(19.595 0.296)" fill="#f28321"/><path d="M150.911,52.113H146.55V33.46h4.361Z" transform="translate(19.685 0.386)" fill="#f28321"/><path d="M156.929,52.594l-.4-.39V37.364h-4.855l-.391-.39V33.537l.391-.377H166.5l.391.377v3.436l-.391.39h-4.855V52.2l-.391.39Z" transform="translate(21.112 0.296)" fill="#f28321"/><path d="M166.418,36.883h-5.207V52.113h-4.334V36.883H151.67V33.46h14.748Z" transform="translate(21.23 0.386)" fill="#f28321"/><path d="M164.754,52.594l-.4-.39V33.537l.4-.377h12l.39.377V36.87l-.39.39h-7.263v3.58h5.467l.4.39v3.2l-.4.39h-5.467V48.48h7.263l.39.39V52.2l-.39.39Z" transform="translate(25.055 0.296)" fill="#f28321"/><path d="M169.008,36.766v4.361h5.87v3.2h-5.87v4.439h7.654V52.1h-12V33.46h12v3.306Z" transform="translate(25.148 0.386)" fill="#f28321"/><path d="M176.021,52.594l-.391-.39V33.551l.391-.39h7.25a11,11,0,0,1,4.1.729,9.489,9.489,0,0,1,3.189,2.031A9.112,9.112,0,0,1,192.6,39a10.127,10.127,0,0,1,.729,3.9,10.231,10.231,0,0,1-.729,3.9A8.995,8.995,0,0,1,187.4,51.93a11.259,11.259,0,0,1-4.1.729Zm7.25-4.113a5.363,5.363,0,0,0,2.057-.377,4.2,4.2,0,0,0,1.5-1.093,4.985,4.985,0,0,0,.963-1.757,8.552,8.552,0,0,0,0-4.764,5.207,5.207,0,0,0-.95-1.757,4.178,4.178,0,0,0-1.51-1.08,5.128,5.128,0,0,0-2.057-.39h-2.512v11.22Z" transform="translate(28.457 0.295)" fill="#f28321"/><path d="M192.839,42.78a9.918,9.918,0,0,1-.69,3.723,8.76,8.76,0,0,1-1.965,2.968,8.9,8.9,0,0,1-3.059,1.939,10.7,10.7,0,0,1-3.9.7h-7.25V33.46h7.25a10.7,10.7,0,0,1,3.9.7,9.111,9.111,0,0,1,3.059,1.939,8.708,8.708,0,0,1,1.965,2.955,9.918,9.918,0,0,1,.69,3.723Zm-4.426,0a7.889,7.889,0,0,0-.364-2.5,5.076,5.076,0,0,0-1.028-1.887,4.465,4.465,0,0,0-1.64-1.2,5.688,5.688,0,0,0-2.213-.417h-2.9v12h2.9a5.688,5.688,0,0,0,2.213-.417,4.438,4.438,0,0,0,1.64-1.184,5.207,5.207,0,0,0,1.028-1.9,7.888,7.888,0,0,0,.364-2.5Z" transform="translate(28.56 0.386)" fill="#f28321"/><path d="M199.1,52.594l-.39-.39V37.364H193.84l-.391-.39V33.537l.391-.377h14.826l.39.377v3.436l-.39.39h-4.855V52.2l-.391.39Z" transform="translate(33.833 0.296)" fill="#f28321"/><path d="M208.555,36.883h-5.207V52.113h-4.321V36.883H193.82V33.46h14.826Z" transform="translate(33.944 0.386)" fill="#f28321"/><path d="M218.258,52.594a2.07,2.07,0,0,1-1.9-1.015l-3.1-5.415a.95.95,0,0,0-.351-.364,1.041,1.041,0,0,0-.56-.1h-.716V52.2l-.391.39H206.92l-.391-.39V33.551l.391-.39h6.066a12.821,12.821,0,0,1,3.553.43,6.872,6.872,0,0,1,2.473,1.224,4.855,4.855,0,0,1,1.432,1.913,6.3,6.3,0,0,1,.43,2.343,6.012,6.012,0,0,1-.26,1.835,5.506,5.506,0,0,1-.768,1.6,6.26,6.26,0,0,1-1.3,1.3,7.236,7.236,0,0,1-1.028.638l.234.182a3.9,3.9,0,0,1,.729.859L222.462,52l-.338.6Zm-5.207-10.674a4.165,4.165,0,0,0,1.3-.2,2.3,2.3,0,0,0,.872-.534,1.952,1.952,0,0,0,.495-.768,3.333,3.333,0,0,0,.156-1.028,2.044,2.044,0,0,0-.664-1.627,3.449,3.449,0,0,0-2.226-.6h-1.3v4.751Z" transform="translate(37.778 0.295)" fill="#f28321"/><path d="M222.073,52.113h-3.9a1.653,1.653,0,0,1-1.562-.82l-3.059-5.415a1.393,1.393,0,0,0-.482-.508,1.575,1.575,0,0,0-.768-.156h-1.106v6.9H206.87V33.461h6.066a12.678,12.678,0,0,1,3.449.4,6.626,6.626,0,0,1,2.33,1.171,4.374,4.374,0,0,1,1.3,1.744,5.844,5.844,0,0,1,.4,2.2,6.09,6.09,0,0,1-.234,1.718,5.48,5.48,0,0,1-.716,1.5,6.118,6.118,0,0,1-1.172,1.224,6.613,6.613,0,0,1-1.614.885,3.593,3.593,0,0,1,.794.547,3.489,3.489,0,0,1,.664.768Zm-9.19-9.893a4.217,4.217,0,0,0,1.5-.221,2.6,2.6,0,0,0,1.028-.625,2.356,2.356,0,0,0,.573-.924,3.581,3.581,0,0,0,.169-1.08,2.382,2.382,0,0,0-.807-1.913,3.671,3.671,0,0,0-2.473-.7h-1.744v5.532Z" transform="translate(37.881 0.385)" fill="#f28321"/><path d="M227.537,52.789a9.593,9.593,0,0,1-3.5-.6,7.81,7.81,0,0,1-2.6-1.692,7.523,7.523,0,0,1-1.679-2.6,9.2,9.2,0,0,1-.573-3.293V33.55l.39-.39h4.321l.391.39V44.575a5.338,5.338,0,0,0,.234,1.653,3.111,3.111,0,0,0,.651,1.171,2.6,2.6,0,0,0,1.015.729,3.9,3.9,0,0,0,2.8,0,2.76,2.76,0,0,0,1.028-.716,3.384,3.384,0,0,0,.638-1.171,5.337,5.337,0,0,0,.234-1.653V33.55l.39-.39h4.322l.39.39V44.588a8.929,8.929,0,0,1-.586,3.293,7.341,7.341,0,0,1-1.679,2.6,7.81,7.81,0,0,1-2.6,1.692,9.5,9.5,0,0,1-3.58.612Z" transform="translate(41.594 0.296)" fill="#f28321"/><path d="M227.464,48.689a3.9,3.9,0,0,0,1.549-.286,3.228,3.228,0,0,0,1.158-.82,3.9,3.9,0,0,0,.729-1.3,6.119,6.119,0,0,0,.247-1.77V33.46h4.321V44.5a8.747,8.747,0,0,1-.547,3.15,7,7,0,0,1-4.126,4.087,8.994,8.994,0,0,1-3.332.586,9.111,9.111,0,0,1-3.384-.586,7.133,7.133,0,0,1-2.525-1.614,6.911,6.911,0,0,1-1.588-2.473,8.747,8.747,0,0,1-.547-3.15V33.46h4.321V44.485a6.117,6.117,0,0,0,.247,1.77,3.9,3.9,0,0,0,.729,1.3,3.111,3.111,0,0,0,1.158.833,3.9,3.9,0,0,0,1.588.3Z" transform="translate(41.666 0.386)" fill="#f28321"/><path d="M239.707,52.822a8.994,8.994,0,0,1-1.848-.182,10.817,10.817,0,0,1-1.822-.521,10.1,10.1,0,0,1-1.64-.807,6.678,6.678,0,0,1-1.367-1.054v-.482l1.3-2.031a1.757,1.757,0,0,1,.534-.495,1.51,1.51,0,0,1,.742-.2,1.861,1.861,0,0,1,.976.3l.885.534a6.819,6.819,0,0,0,1.067.508,3.905,3.905,0,0,0,1.38.221,2.6,2.6,0,0,0,1.588-.43,1.614,1.614,0,0,0,.495-1.3,1.12,1.12,0,0,0-.26-.807,2.277,2.277,0,0,0-.807-.586,8.333,8.333,0,0,0-1.3-.456c-.508-.13-1.015-.286-1.536-.456a10.413,10.413,0,0,1-1.588-.638,5.116,5.116,0,0,1-1.432-1.041,4.751,4.751,0,0,1-1.015-1.6,6.261,6.261,0,0,1-.391-2.343,5.727,5.727,0,0,1,1.783-4.113,6.508,6.508,0,0,1,2.135-1.3,7.979,7.979,0,0,1,2.877-.495,9.514,9.514,0,0,1,1.731.143,9.111,9.111,0,0,1,1.614.4,7.889,7.889,0,0,1,1.419.664,6.508,6.508,0,0,1,1.211.872l.078.469-1.08,2.018a1.8,1.8,0,0,1-.521.586,1.2,1.2,0,0,1-.768.234,1.718,1.718,0,0,1-.82-.234l-.768-.417a5.987,5.987,0,0,0-.911-.39,3.762,3.762,0,0,0-1.132-.169,2.33,2.33,0,0,0-1.562.43,1.38,1.38,0,0,0-.456,1.106.9.9,0,0,0,.247.664,2.837,2.837,0,0,0,.82.56,10.412,10.412,0,0,0,1.3.469l1.549.508a14.785,14.785,0,0,1,1.562.664,5.207,5.207,0,0,1,1.432,1.015,4.985,4.985,0,0,1,1.028,1.523,5.415,5.415,0,0,1,.391,2.148,6.911,6.911,0,0,1-.469,2.6,6.275,6.275,0,0,1-1.393,2.109,6.509,6.509,0,0,1-2.239,1.406A8.448,8.448,0,0,1,239.707,52.822Z" transform="translate(45.772 0.262)" fill="#f28321"/><path d="M245.021,37.314a1.757,1.757,0,0,1-.4.456.911.911,0,0,1-.547.156,1.445,1.445,0,0,1-.638-.182l-.768-.417a5.648,5.648,0,0,0-.976-.417,3.71,3.71,0,0,0-1.3-.2,2.707,2.707,0,0,0-1.809.521,1.77,1.77,0,0,0-.6,1.406,1.3,1.3,0,0,0,.351.937,3.28,3.28,0,0,0,.95.638,10.23,10.23,0,0,0,1.3.495c.495.143,1.015.312,1.536.495a13.015,13.015,0,0,1,1.523.651,4.842,4.842,0,0,1,1.3.95,4.478,4.478,0,0,1,.95,1.393,5.207,5.207,0,0,1,.351,1.992,6.4,6.4,0,0,1-.443,2.421,5.584,5.584,0,0,1-1.3,1.965,6.144,6.144,0,0,1-2.1,1.3,8.058,8.058,0,0,1-2.838.482,9.19,9.19,0,0,1-1.77-.182,10.074,10.074,0,0,1-1.757-.508,10.58,10.58,0,0,1-1.588-.781,6.743,6.743,0,0,1-1.3-.989l1.3-2.031a1.367,1.367,0,0,1,.4-.364,1.145,1.145,0,0,1,.547-.143,1.419,1.419,0,0,1,.781.247l.872.534a7.616,7.616,0,0,0,1.132.534,4.153,4.153,0,0,0,1.523.247,2.811,2.811,0,0,0,1.822-.521,1.966,1.966,0,0,0,.651-1.64,1.575,1.575,0,0,0-.351-1.067,2.851,2.851,0,0,0-.937-.677,9.2,9.2,0,0,0-1.3-.482c-.495-.13-1-.286-1.523-.443a11.012,11.012,0,0,1-1.523-.625,4.777,4.777,0,0,1-1.3-.95,4.438,4.438,0,0,1-.937-1.5,5.648,5.648,0,0,1-.365-2.187,5.428,5.428,0,0,1,.417-2.057,5.35,5.35,0,0,1,1.3-1.77,6.1,6.1,0,0,1,2-1.3,7.433,7.433,0,0,1,2.733-.469,9.932,9.932,0,0,1,1.666.13,8.446,8.446,0,0,1,1.549.4,7.563,7.563,0,0,1,1.3.625,6.949,6.949,0,0,1,1.145.82Z" transform="translate(45.808 0.319)" fill="#f28321"/><path d="M249.5,52.594l-.39-.39V37.364h-4.855l-.391-.39V33.537l.391-.377h14.826l.39.377v3.436l-.39.39h-4.855V52.2l-.391.39Z" transform="translate(49.039 0.296)" fill="#f28321"/><path d="M258.968,36.883h-5.207V52.113h-4.334V36.883H244.22V33.46h14.826Z" transform="translate(49.147 0.386)" fill="#f28321"/><path d="M9.307-4.119A3.918,3.918,0,0,0,5.142-7.6C2.153-7.6.395-5.364.395-2.5c0,2.786,1.758,5.017,4.747,5.017A4.078,4.078,0,0,0,9.388-1.428H7.333A2.175,2.175,0,0,1,5.142.736C3.235.736,2.518-.887,2.518-2.5c0-1.691.717-3.313,2.624-3.313a2.086,2.086,0,0,1,2.11,1.691ZM10.286-1.2A3.426,3.426,0,0,0,13.9,2.48,3.429,3.429,0,0,0,17.521-1.2,3.433,3.433,0,0,0,13.9-4.89,3.429,3.429,0,0,0,10.286-1.2Zm1.92,0c0-1.123.392-2.245,1.691-2.245S15.6-2.321,15.6-1.2s-.392,2.231-1.7,2.231S12.206-.089,12.206-1.2Zm6.559,3.489h1.92V-1.374c0-1.42.446-2,1.488-2,.893,0,1.231.568,1.231,1.718V2.291h1.92v-4.3c0-1.731-.514-2.881-2.556-2.881a2.494,2.494,0,0,0-2.137,1.163h-.041V-4.7H18.766ZM33.426-2.24C33.3-4.025,31.789-4.89,30.139-4.89A3.459,3.459,0,0,0,26.569-1.1,3.394,3.394,0,0,0,30.1,2.48,3.125,3.125,0,0,0,33.466-.387H31.614a1.478,1.478,0,0,1-1.528,1.42c-1.2,0-1.6-1.2-1.6-2.2,0-1.028.406-2.272,1.636-2.272a1.31,1.31,0,0,1,1.42,1.2Zm7.619,1.5c.135-2.15-1.014-4.152-3.395-4.152A3.507,3.507,0,0,0,34.08-1.2,3.415,3.415,0,0,0,37.65,2.48,3.145,3.145,0,0,0,40.923.127H39.233a1.581,1.581,0,0,1-1.515.906C36.65,1.033,36.055.479,36-.738ZM36-1.956a1.513,1.513,0,0,1,1.6-1.488c.933,0,1.352.514,1.528,1.488Zm6.181,4.247H44.1V-.86c0-1.231.487-2.245,1.893-2.245a3.5,3.5,0,0,1,.69.068V-4.823a1.432,1.432,0,0,0-.419-.068A2.472,2.472,0,0,0,44.034-3.4h-.027V-4.7H42.181Zm5.5,0h1.92V-1.374c0-1.42.446-2,1.488-2,.893,0,1.231.568,1.231,1.718V2.291h1.92v-4.3c0-1.731-.514-2.881-2.556-2.881a2.494,2.494,0,0,0-2.137,1.163h-.041V-4.7H47.685ZM59.248-1.2A3.426,3.426,0,0,0,62.859,2.48,3.429,3.429,0,0,0,66.484-1.2,3.433,3.433,0,0,0,62.859-4.89,3.429,3.429,0,0,0,59.248-1.2Zm1.92,0c0-1.123.392-2.245,1.691-2.245s1.7,1.122,1.7,2.245-.392,2.231-1.7,2.231S61.169-.089,61.169-1.2Zm6.978,3.489h1.92V-3.416h1.325V-4.7H70.068V-5.12c0-.582.216-.8.73-.8a5.958,5.958,0,0,1,.7.041V-7.311c-.325-.014-.676-.054-1.014-.054a2.055,2.055,0,0,0-2.34,2.123V-4.7H67v1.285h1.15ZM84.39-7.365H82.266v6c0,1.434-.487,2.1-2,2.1-1.718,0-1.988-1.041-1.988-2.1v-6H76.153v6c0,2.624,1.515,3.881,4.111,3.881S84.39,1.25,84.39-1.36Zm1.623,9.656h1.92V-1.374c0-1.42.446-2,1.488-2,.893,0,1.231.568,1.231,1.718V2.291h1.92v-4.3c0-1.731-.514-2.881-2.556-2.881a2.494,2.494,0,0,0-2.137,1.163h-.041V-4.7H86.013Zm8.074,0h1.92V-4.7h-1.92Zm1.92-9.656h-1.92v1.582h1.92Zm3.949.568h-1.92v2.1H96.872v1.285h1.163V.709c0,1.393,1.028,1.663,2.2,1.663a7.365,7.365,0,0,0,1.122-.068V.8a2.953,2.953,0,0,1-.6.054c-.649,0-.811-.162-.811-.811V-3.416h1.407V-4.7H99.956Zm8.823,6.059c.135-2.15-1.014-4.152-3.395-4.152a3.507,3.507,0,0,0-3.57,3.692,3.415,3.415,0,0,0,3.57,3.679A3.145,3.145,0,0,0,108.657.127h-1.691a1.581,1.581,0,0,1-1.515.906c-1.068,0-1.663-.554-1.718-1.772Zm-5.044-1.217a1.513,1.513,0,0,1,1.6-1.488c.933,0,1.352.514,1.528,1.488Zm11.171,4.247h1.826V-7.365h-1.92v3.516H114.8a2.446,2.446,0,0,0-2.083-1.041c-2.056,0-3.1,1.745-3.1,3.624,0,1.934,1.028,3.746,3.138,3.746A2.321,2.321,0,0,0,114.878,1.4h.027Zm-.027-3.516c0,1.15-.379,2.259-1.65,2.259-1.19,0-1.691-1.15-1.691-2.245,0-1.15.433-2.231,1.691-2.231S114.878-2.361,114.878-1.225Zm14.457,3.516h1.352v-5.22H126.63v1.582h2.137a2.091,2.091,0,0,1-2.3,2.083c-1.907,0-2.624-1.623-2.624-3.232,0-1.691.717-3.313,2.624-3.313a1.979,1.979,0,0,1,2.042,1.623h2.029A3.88,3.88,0,0,0,126.468-7.6c-2.989,0-4.747,2.231-4.747,5.1,0,2.786,1.758,5.017,4.747,5.017A3.268,3.268,0,0,0,129.119,1.2Zm2.867,0h1.92V-.86c0-1.231.487-2.245,1.893-2.245a3.5,3.5,0,0,1,.69.068V-4.823a1.432,1.432,0,0,0-.419-.068A2.472,2.472,0,0,0,134.055-3.4h-.027V-4.7H132.2ZM137.117-1.2a3.426,3.426,0,0,0,3.611,3.679A3.429,3.429,0,0,0,144.352-1.2a3.433,3.433,0,0,0-3.624-3.692A3.429,3.429,0,0,0,137.117-1.2Zm1.92,0c0-1.123.392-2.245,1.691-2.245s1.7,1.122,1.7,2.245-.392,2.231-1.7,2.231S139.037-.089,139.037-1.2Zm13.118-3.5h-1.92v3.665c0,1.42-.446,2-1.488,2-.893,0-1.231-.568-1.231-1.718V-4.7H145.6V-.4c0,1.731.514,2.881,2.556,2.881a2.494,2.494,0,0,0,2.137-1.163h.041v.974h1.826Zm1.461,9.453h1.92V1.425h.027a2.482,2.482,0,0,0,2.1,1.055c2.042,0,3.07-1.745,3.07-3.611,0-1.988-.987-3.76-3.178-3.76a2.326,2.326,0,0,0-2.083,1.082h-.027V-4.7h-1.826Zm3.53-3.719c-1.244,0-1.677-1.082-1.677-2.218s.406-2.259,1.663-2.259c1.231,0,1.677,1.15,1.677,2.259C158.809-.049,158.4,1.033,157.146,1.033Z" transform="translate(146.973 69.042)" fill="#3c3b3c"/><g transform="translate(81.29 32.18)" clip-path="url(#a)"><path d="M120.335,54.858V72.7a.859.859,0,0,1-.846.872H82.483c-.573,0-.833-.234-.833-.781V55.248h0a10.53,10.53,0,0,0,.456,2.382,20.553,20.553,0,0,0,4.061,8.383,17.351,17.351,0,0,0,8.148,5.4,22.492,22.492,0,0,0,11.324.9,11.9,11.9,0,0,0,2.6-.69,19.291,19.291,0,0,0,4.243-1.783,18.028,18.028,0,0,0,4.764-4.191h0l.182-.234a20.633,20.633,0,0,0,2.135-3.124h-.1a2.031,2.031,0,0,0-.208.26,11.793,11.793,0,0,1-6.183,4.491,17.065,17.065,0,0,1-12.743-1.106,11.064,11.064,0,0,1-5.675-6.508,14.748,14.748,0,0,1-.573-4.517c-.1-2.994-.078-6,0-8.994a7.159,7.159,0,0,0-4.113-6.99,11.363,11.363,0,0,0-3.957-1.067c-.221,0-.221.078-.221.247v2.746a13.3,13.3,0,0,0-4.139-.95V33.563a.625.625,0,0,1,.143-.417.742.742,0,0,1,.612-.286h37.1a.885.885,0,0,1,.872.885h0v5.207a10.491,10.491,0,0,0-4.256.937q0-.9,0-1.8c0-.234,0-.286-.273-.273a10.974,10.974,0,0,0-1.3.13,8.487,8.487,0,0,0-5.05,2.6,7.81,7.81,0,0,0-2.252,5.506v12.9a16.154,16.154,0,0,1-.247,2.864,3.775,3.775,0,0,1-1.08,2.421c-.117.1,0,.065.078.078h.3a.2.2,0,0,0,.091,0,13.9,13.9,0,0,0,7.445-.794,10.114,10.114,0,0,0,5.675-5.844A21.423,21.423,0,0,0,120.335,54.858Z" transform="translate(-81.181 -31.975)" fill="#02374b"/><path d="M110.383,38.5a10.491,10.491,0,0,1,4.256-.937V52.308a8.133,8.133,0,0,1-.078,1.132,21.427,21.427,0,0,1-.82,2.838,10.114,10.114,0,0,1-5.675,5.844,13.9,13.9,0,0,1-7.445.794.2.2,0,0,1-.091,0A10.413,10.413,0,0,0,104.175,62a9.932,9.932,0,0,0,5.115-5.532,12.834,12.834,0,0,0,1.08-5.207V38.588Z" transform="translate(-75.486 -30.557)" fill="#f68521"/><path d="M81.65,49.27a3.906,3.906,0,0,1,0,1.028h0Z" transform="translate(-81.181 -27.025)" fill="#0b3b50"/><path d="M84.84,39.695V36.948c0-.169,0-.273.221-.247a11.363,11.363,0,0,1,4.022,1.054A7.107,7.107,0,0,1,93.2,44.537c0,3.124-.078,6.261,0,9.4a14.319,14.319,0,0,0,.573,4.321,11.064,11.064,0,0,0,5.675,6.508,17.065,17.065,0,0,0,12.743,1.106,11.793,11.793,0,0,0,6.183-4.491,2.031,2.031,0,0,1,.208-.26h.1a20.633,20.633,0,0,1-2.135,3.124c-.221,0-.182.1-.182.234h0c-.143,0-.208.078-.3.169-.286.26-.547.534-.846.781a16.8,16.8,0,0,1-3.632,2.3,14.214,14.214,0,0,1-5.089,1.3,16.192,16.192,0,0,1-3.8-.169,19.525,19.525,0,0,1-5.792-1.835,15.021,15.021,0,0,1-4.92-4.165,14.318,14.318,0,0,1-2.942-8.851q0-4.393,0-8.76a4.048,4.048,0,0,0-.13-.794,6.652,6.652,0,0,0-1.38-2.8A7.029,7.029,0,0,0,84.84,39.695Z" transform="translate(-80.219 -30.817)" fill="#d8e0e3"/><path d="M84.852,39a7.029,7.029,0,0,1,2.6,1.939,6.651,6.651,0,0,1,1.38,2.8,4.047,4.047,0,0,1,.13.794c.078,2.916,0,5.831,0,8.76a14.318,14.318,0,0,0,2.942,8.8,15.021,15.021,0,0,0,5.011,4.243,19.524,19.524,0,0,0,5.74,1.874,16.193,16.193,0,0,0,3.8.169,14.214,14.214,0,0,0,5.089-1.3,16.8,16.8,0,0,0,3.632-2.3c.3-.247.56-.521.846-.781.091-.091.156-.208.3-.169a18.028,18.028,0,0,1-4.855,4.191,19.29,19.29,0,0,1-4.282,1.757c-.7.091-1.393.286-2.1.377a19.134,19.134,0,0,1-9.437-1.119,18.5,18.5,0,0,1-6.69-4.152,14.006,14.006,0,0,1-4.087-7.9,7.015,7.015,0,0,1-.078-1.041V39.208A.758.758,0,0,0,84.852,39Z" transform="translate(-80.231 -30.123)" fill="#ffecda"/><path d="M110.468,38.769v.078a1.106,1.106,0,0,0-.221.078,7.354,7.354,0,0,0-3.2,3.1,6.508,6.508,0,0,0-.963,3.085c0,3.2,0,6.4-.091,9.593V56.51a10,10,0,0,1-.859,3.241,5.376,5.376,0,0,1-3.554,3.137,11.717,11.717,0,0,0-1.211.247s-.2,0-.078-.078a4.087,4.087,0,0,0,1.119-2.6,17.1,17.1,0,0,0,.208-3.059V44.912a7.81,7.81,0,0,1,2.213-5.519,8.487,8.487,0,0,1,5.05-2.6,10.975,10.975,0,0,1,1.3-.13c.208,0,.273,0,.273.273C110.455,37.571,110.468,38.17,110.468,38.769Z" transform="translate(-75.57 -30.829)" fill="#d8e0e3"/><path d="M100.36,62.629a11.714,11.714,0,0,1,1.211-.247,5.376,5.376,0,0,0,3.527-3.137A10,10,0,0,0,105.866,56V54.194c.13-3.189,0-6.391.091-9.593a6.508,6.508,0,0,1,.963-3.085,7.354,7.354,0,0,1,3.2-3.1,1.106,1.106,0,0,1,.221-.078V51.018a12.835,12.835,0,0,1-1.08,5.207,9.932,9.932,0,0,1-5.115,5.532,10.413,10.413,0,0,1-3.645.911Z" transform="translate(-75.538 -30.322)" fill="#ffecda"/><path d="M109.06,58.058c0-.13,0-.3.182-.234Z" transform="translate(-72.913 -24.449)" fill="#ffecda"/><path d="M81.65,38.24a13.3,13.3,0,0,1,4.139.95h0V56.112a7.016,7.016,0,0,0,.078,1.041,14.006,14.006,0,0,0,4.048,7.953,18.5,18.5,0,0,0,6.677,4.152,19.134,19.134,0,0,0,9.437,1.119c.7-.091,1.393-.286,2.1-.377a11.9,11.9,0,0,1-2.6.69,22.492,22.492,0,0,1-11.324-.9,17.351,17.351,0,0,1-8.148-5.4,20.553,20.553,0,0,1-3.944-8.383,11.376,11.376,0,0,1-.391-2.382V38.279Z" transform="translate(-81.181 -30.352)" fill="#f68521"/><path d="M83.41,68.819a.664.664,0,0,0,.325,0,.56.56,0,0,0,.247-.169,1.015,1.015,0,0,0,.156-.286,1.3,1.3,0,0,0,0-.391V65.5h.924v2.408a1.965,1.965,0,0,1-.117.69,1.5,1.5,0,0,1-.338.534,1.3,1.3,0,0,1-.534.351,2.07,2.07,0,0,1-1.445,0,1.3,1.3,0,0,1-.534-.351,1.5,1.5,0,0,1-.338-.534,1.965,1.965,0,0,1-.117-.69V65.5h.924v2.408a1.106,1.106,0,0,0,0,.377,1.094,1.094,0,0,0,.156.3.56.56,0,0,0,.247.169A.69.69,0,0,0,83.41,68.819Z" transform="translate(-81.184 -22.129)" fill="#f68521"/><path d="M83.41,69.677a1.926,1.926,0,0,1-.742-.13,1.5,1.5,0,0,1-.56-.364,1.458,1.458,0,0,1-.351-.56,1.991,1.991,0,0,1-.117-.7V65.46h1.028v2.46a1.028,1.028,0,0,0,0,.364.911.911,0,0,0,.143.273.768.768,0,0,0,.234.169,1.119,1.119,0,0,0,.364.039,1.211,1.211,0,0,0,.312,0,.911.911,0,0,0,.221-.169.69.69,0,0,0,.143-.273,1.028,1.028,0,0,0,0-.364v-2.5h1.041v2.46a1.992,1.992,0,0,1-.13.7,1.458,1.458,0,0,1-.351.56,1.5,1.5,0,0,1-.56.364A1.913,1.913,0,0,1,83.41,69.677Zm-1.666-4.1V67.92a1.77,1.77,0,0,0,.117.664,1.419,1.419,0,0,0,.325.521,1.445,1.445,0,0,0,.521.338,1.926,1.926,0,0,0,1.393,0,1.445,1.445,0,0,0,.521-.338,1.419,1.419,0,0,0,.325-.521,1.77,1.77,0,0,0,.117-.664V65.577h-.872V67.92a1.3,1.3,0,0,1,0,.4.755.755,0,0,1-.169.3.56.56,0,0,1-.26.2.781.781,0,0,1-.351.078.794.794,0,0,1-.364-.078.56.56,0,0,1-.26-.2.755.755,0,0,1-.169-.3,1.3,1.3,0,0,1,0-.4V65.577Z" transform="translate(-81.184 -22.141)" fill="#f28321"/><path d="M88.324,65.5v4.061h-.482a.39.39,0,0,1-.182,0,.339.339,0,0,1-.143-.13L85.63,67.01a1.3,1.3,0,0,1,0,.221.923.923,0,0,1,0,.182v2.174h-.82V65.5h.664v.078l1.9,2.434V65.5Z" transform="translate(-80.228 -22.129)" fill="#f68521"/><path d="M88.386,69.638h-.534a.5.5,0,0,1-.208,0,.52.52,0,0,1-.156-.143L85.7,67.217v2.46H84.78V65.46h.82v.078l1.783,2.291V65.46h.924Zm-2.812-2.825,1.992,2.6a.456.456,0,0,0,.13.1h.586v-3.9h-.716v2.1a1.056,1.056,0,0,0,0,.2,1.186,1.186,0,0,0,0,.221v.2l-2.018-2.6h-.586v3.9h.7V67.217a1.121,1.121,0,0,0,0-.208Z" transform="translate(-80.237 -22.141)" fill="#f28321"/><path d="M89.037,69.561H88.1V65.5h.937Z" transform="translate(-79.236 -22.129)" fill="#f68521"/><path d="M89.1,69.638H88.06V65.46H89.1Zm-.937-.117h.82v-3.9h-.82Z" transform="translate(-79.248 -22.141)" fill="#f28321"/><path d="M92.355,66.255H91.236v3.306h-.976V66.255H89.14V65.5H92.3Z" transform="translate(-78.922 -22.129)" fill="#f68521"/><path d="M91.291,69.638H90.262V66.319H89.13V65.46h3.293v.859H91.291Zm-.924-.117h.82V66.163h1.119v-.638H89.247v.638h1.119Z" transform="translate(-78.925 -22.141)" fill="#f28321"/><path d="M92.9,66.229v.95h1.3v.69H92.9v.976H94.6v.716H92V65.5h2.6v.729Z" transform="translate(-78.059 -22.129)" fill="#f68521"/><path d="M94.624,69.638H91.93V65.46h2.694v.833H92.971v.846h1.3v.807h-1.3v.82h1.653Zm-2.6-.117h2.46v-.612H92.867v-1.08h1.3v-.586h-1.3v-1.08h1.64v-.612H92.021Z" transform="translate(-78.08 -22.141)" fill="#f28321"/><path d="M98.009,67.531a2.356,2.356,0,0,1-.143.82,1.966,1.966,0,0,1-.43.638,1.888,1.888,0,0,1-.651.43,2.226,2.226,0,0,1-.846.143H94.39V65.5h1.549a2.226,2.226,0,0,1,.846.156,1.887,1.887,0,0,1,.651.43,1.965,1.965,0,0,1,.43.638A2.343,2.343,0,0,1,98.009,67.531Zm-.95,0A1.7,1.7,0,0,0,96.98,67a1.067,1.067,0,0,0-.221-.417.885.885,0,0,0-.351-.26,1.041,1.041,0,0,0-.469-.091h-.625v2.6h.625a1.3,1.3,0,0,0,.469-.091.885.885,0,0,0,.351-.26,1.067,1.067,0,0,0,.221-.417,1.731,1.731,0,0,0,.078-.534Z" transform="translate(-77.338 -22.129)" fill="#f68521"/><path d="M95.951,69.638h-1.6V65.46h1.6a2.356,2.356,0,0,1,.872.156,1.979,1.979,0,0,1,.664.443,1.77,1.77,0,0,1,.43.664,2.1,2.1,0,0,1,.156.82,2.161,2.161,0,0,1-.156.833,1.77,1.77,0,0,1-.43.664,1.809,1.809,0,0,1-.664.443,2.356,2.356,0,0,1-.872.156Zm-1.5-.117h1.5a2.434,2.434,0,0,0,.833-.143,1.874,1.874,0,0,0,.625-.417,1.757,1.757,0,0,0,.417-.625,2.239,2.239,0,0,0,0-1.575,1.757,1.757,0,0,0-.417-.6,1.875,1.875,0,0,0-.625-.417,2.434,2.434,0,0,0-.833-.143h-1.5Zm1.5-.612h-.677V66.163h.677a1.2,1.2,0,0,1,.495.091,1.119,1.119,0,0,1,.377.273,1.3,1.3,0,0,1,.221.43,1.94,1.94,0,0,1,.078.56,1.966,1.966,0,0,1-.078.573,1.3,1.3,0,0,1-.221.43,1.119,1.119,0,0,1-.325.247A1.2,1.2,0,0,1,95.951,68.909Zm-.56-.143h.56a1.3,1.3,0,0,0,.456-.078.872.872,0,0,0,.325-.247.937.937,0,0,0,.208-.39,1.705,1.705,0,0,0,.078-.534A1.627,1.627,0,0,0,96.94,67a.937.937,0,0,0-.208-.39.872.872,0,0,0-.325-.247,1.3,1.3,0,0,0-.456-.091h-.56Z" transform="translate(-77.351 -22.141)" fill="#f28321"/><path d="M101.376,66.255h-1.119v3.306h-.924V66.255H98.2V65.5h3.176Z" transform="translate(-76.189 -22.129)" fill="#f68521"/><path d="M100.327,69.638H99.259V66.319H98.14V65.46h3.28v.859H100.3Zm-.924-.117h.807V66.163h1.132v-.638H98.27v.638H99.4Z" transform="translate(-76.207 -22.141)" fill="#f28321"/><path d="M104.267,69.561h-.833a.351.351,0,0,1-.338-.169l-.664-1.185a.2.2,0,0,0-.1-.1.3.3,0,0,0-.169,0h-.234v1.5H101V65.5h1.3a3.046,3.046,0,0,1,.742.091,1.614,1.614,0,0,1,.495.26.859.859,0,0,1,.273.377,1.172,1.172,0,0,1,.091.482,1.2,1.2,0,0,1,0,.377.833.833,0,0,1-.156.325,1.159,1.159,0,0,1-.247.26,1.432,1.432,0,0,1-.338.2.663.663,0,0,1,.169.117l.143.169ZM102.3,67.452a.859.859,0,0,0,.325,0,.573.573,0,0,0,.208-.13.443.443,0,0,0,.13-.208.7.7,0,0,0,0-.247.573.573,0,0,0-.169-.417.794.794,0,0,0-.534-.143h-.377v1.145Z" transform="translate(-75.345 -22.129)" fill="#f68521"/><path d="M104.37,69.638h-.924a.43.43,0,0,1-.39-.208l-.664-1.185-.078-.091h-.325v1.51h-.976v-4.2h1.3a3.15,3.15,0,0,1,.755.091,1.77,1.77,0,0,1,.521.26,1,1,0,0,1,.286.417,1.2,1.2,0,0,1,.091.495,1.3,1.3,0,0,1,0,.391,1.6,1.6,0,0,1-.156.338,1.3,1.3,0,0,1-.26.273,1.782,1.782,0,0,1-.26.169h.091a.69.69,0,0,1,.143.182Zm-2.486-1.614h.286a.4.4,0,0,1,.2,0,.234.234,0,0,1,.117.13l.677,1.185a.3.3,0,0,0,.286.143h.729l-.794-1.3-.13-.156-.156-.1h0a2.068,2.068,0,0,0,.338-.182,1.457,1.457,0,0,0,.234-.26.859.859,0,0,0,.143-.312,1,1,0,0,0,0-.351,1.3,1.3,0,0,0-.078-.456,1.08,1.08,0,0,0-.273-.364,1.184,1.184,0,0,0-.482-.234,2.33,2.33,0,0,0-.716-.091h-1.3v3.9h.82Zm.43-.56h-.43v-1.3h.43a.846.846,0,0,1,.56.169.56.56,0,0,1,.2.456.924.924,0,0,1,0,.273.585.585,0,0,1-.143.221.547.547,0,0,1-.234.143.885.885,0,0,1-.377.039Zm-.325-.1h.325a.69.69,0,0,0,.3,0,.494.494,0,0,0,.2-.117.547.547,0,0,0,.117-.182.651.651,0,0,0,0-.234.469.469,0,0,0-.143-.377.755.755,0,0,0-.495-.13h-.325Z" transform="translate(-75.357 -22.141)" fill="#f28321"/><path d="M105.41,68.819a.664.664,0,0,0,.325,0,.56.56,0,0,0,.247-.169.768.768,0,0,0,.156-.286,1.3,1.3,0,0,0,0-.391V65.5h.924v2.408a1.965,1.965,0,0,1-.117.69,1.5,1.5,0,0,1-.338.534,1.3,1.3,0,0,1-.534.351,1.848,1.848,0,0,1-.716.13,1.757,1.757,0,0,1-.716-.13,1.3,1.3,0,0,1-.547-.351,1.5,1.5,0,0,1-.338-.534,1.965,1.965,0,0,1-.117-.69V65.5h.924v2.408a1.106,1.106,0,0,0,0,.377,1.094,1.094,0,0,0,.156.3.651.651,0,0,0,.247.169A.716.716,0,0,0,105.41,68.819Z" transform="translate(-74.548 -22.129)" fill="#f68521"/><path d="M105.41,69.677a1.926,1.926,0,0,1-.742-.13,1.5,1.5,0,0,1-.56-.364,1.458,1.458,0,0,1-.351-.56,1.991,1.991,0,0,1-.117-.7V65.46h1.028v2.46a1.444,1.444,0,0,0,0,.364.911.911,0,0,0,.143.273.768.768,0,0,0,.234.169.963.963,0,0,0,.625,0,.716.716,0,0,0,.221-.169.69.69,0,0,0,.143-.273,1.028,1.028,0,0,0,0-.364V65.46h1.041v2.46a1.731,1.731,0,0,1-.13.7,1.458,1.458,0,0,1-.351.56,1.5,1.5,0,0,1-.56.364A1.914,1.914,0,0,1,105.41,69.677Zm-1.666-4.1V67.92a1.77,1.77,0,0,0,.117.664,1.419,1.419,0,0,0,.325.521,1.445,1.445,0,0,0,.521.338,1.926,1.926,0,0,0,1.393,0,1.445,1.445,0,0,0,.521-.338,1.3,1.3,0,0,0,.325-.521,1.77,1.77,0,0,0,.117-.664V65.577h-.807V67.92a1.3,1.3,0,0,1,0,.4.755.755,0,0,1-.169.3.56.56,0,0,1-.26.2.781.781,0,0,1-.351.078.833.833,0,0,1-.364-.078.56.56,0,0,1-.26-.2.755.755,0,0,1-.169-.3,1.3,1.3,0,0,1,0-.4V65.577Z" transform="translate(-74.548 -22.141)" fill="#f28321"/><path d="M109.205,66.345l-.091.1H109a.247.247,0,0,1-.13,0l-.169-.091-.208-.091a.859.859,0,0,0-.273,0,.586.586,0,0,0-.39.117.377.377,0,0,0-.117.3.365.365,0,0,0,0,.208.807.807,0,0,0,.208.13l.286.117.325.1.325.143a.9.9,0,0,1,.286.208,1.029,1.029,0,0,1,.208.3,1.3,1.3,0,0,1,0,.43,1.432,1.432,0,0,1-.091.534,1.5,1.5,0,0,1-.273.43,1.3,1.3,0,0,1-.456.286,1.744,1.744,0,0,1-.6.1,1.991,1.991,0,0,1-.39,0,1.706,1.706,0,0,1-.364-.117,1.367,1.367,0,0,1-.338-.169,1.3,1.3,0,0,1-.286-.208l.273-.443.091-.078a.208.208,0,0,1,.117,0,.5.5,0,0,1,.169,0l.182.117a.859.859,0,0,0,.247.117.807.807,0,0,0,.325,0,.586.586,0,0,0,.482-.13.443.443,0,0,0,.13-.364.3.3,0,0,0,0-.221.521.521,0,0,0-.208-.156l-.286-.1-.325-.091-.325-.143a1.067,1.067,0,0,1-.286-.221.99.99,0,0,1-.2-.325,1.211,1.211,0,0,1-.078-.469,1.132,1.132,0,0,1,.091-.456,1.093,1.093,0,0,1,.26-.377,1.211,1.211,0,0,1,.43-.273,1.679,1.679,0,0,1,.586-.1h.364l.325.091.3.13a1.12,1.12,0,0,1,.234.182Z" transform="translate(-73.67 -22.141)" fill="#f68521"/><path d="M108.039,69.7a1.991,1.991,0,0,1-.39,0,1.939,1.939,0,0,1-.391-.117,2.161,2.161,0,0,1-.351-.169,2.4,2.4,0,0,1-.286-.221h0l.3-.469a.391.391,0,0,1,.1-.1.325.325,0,0,1,.338,0l.182.117.234.1a.794.794,0,0,0,.312,0,.469.469,0,0,0,.325-.052.364.364,0,0,0,.117-.312.26.26,0,0,0,0-.2.508.508,0,0,0-.182-.13l-.273-.1-.325-.091-.338-.143a1.184,1.184,0,0,1-.3-.325,1.144,1.144,0,0,1-.286-.833,1.158,1.158,0,0,1,.091-.469,1.093,1.093,0,0,1,.286-.4,1.184,1.184,0,0,1,.443-.286,1.445,1.445,0,0,1,.6-.1h.364l.351.091.3.143a1.73,1.73,0,0,1,.247.182h0l-.247.482a.312.312,0,0,1-.1.117.273.273,0,0,1-.3,0l-.169-.091-.208-.091a.7.7,0,0,0-.247,0,.534.534,0,0,0-.351.1.338.338,0,0,0-.1.26.221.221,0,0,0,0,.169.729.729,0,0,0,.182.13l.273.1.325.1.338.143a.989.989,0,0,1,.3.221.872.872,0,0,1,.208.312,1.015,1.015,0,0,1,.091.456,1.64,1.64,0,0,1-.1.56,1.3,1.3,0,0,1-.755.742A1.9,1.9,0,0,1,108.039,69.7Zm-1.3-.6a1.119,1.119,0,0,0,.234.182,1.5,1.5,0,0,0,.325.156,1.979,1.979,0,0,0,.364.117,1.809,1.809,0,0,0,.963,0,1.21,1.21,0,0,0,.43-.273,1.33,1.33,0,0,0,.351-.924,1.185,1.185,0,0,0-.065-.4.924.924,0,0,0-.2-.286,1.042,1.042,0,0,0-.273-.2l-.312-.143-.325-.1-.3-.117a.924.924,0,0,1-.221-.143.378.378,0,0,1-.091-.247.443.443,0,0,1,.156-.351.638.638,0,0,1,.417-.117.95.95,0,0,1,.286,0l.221.091.169.091a.156.156,0,0,0,.182,0,.221.221,0,0,0,.078-.078l.208-.4-.2-.143-.286-.13-.325-.091h-.351a1.536,1.536,0,0,0-.56.1,1.51,1.51,0,0,0-.417.26,1.132,1.132,0,0,0-.247.364,1.3,1.3,0,0,0-.091.43,1.184,1.184,0,0,0,.078.456.963.963,0,0,0,.169.286.846.846,0,0,0,.273.208l.325.13.312.091a1.6,1.6,0,0,1,.3.1.99.99,0,0,1,.221.169.416.416,0,0,1,.091.26.456.456,0,0,1-.169.4.612.612,0,0,1-.417.13.989.989,0,0,1-.351,0,1.445,1.445,0,0,1-.247-.117l-.2-.117a.2.2,0,0,0-.221,0Z" transform="translate(-73.649 -22.163)" fill="#f28321"/><path d="M112.163,66.255h-1.132v3.306h-.924V66.255H109V65.5h3.176Z" transform="translate(-72.931 -22.129)" fill="#f68521"/><path d="M111.1,69.638h-1.041V66.319H109V65.46h3.28v.859h-1.119Zm-.937-.117h.82V66.163h1.132v-.638H109v.638h1.119Z" transform="translate(-72.931 -22.141)" fill="#f28321"/><text transform="translate(8.435 51.046)" fill="#f28321" font-size="2" font-family="Poppins-Light, Poppins" font-weight="300"><tspan x="0" y="0" letter-spacing="-0.009em">T</tspan><tspan y="0">he Smile </tspan><tspan y="0" letter-spacing="0.009em">M</tspan><tspan y="0">aker</tspan></text><ellipse cx="0.677" cy="0.69" rx="0.677" ry="0.69" transform="translate(5.922 50.061)" fill="#f68521"/><ellipse cx="0.677" cy="0.69" rx="0.677" ry="0.69" transform="translate(3.567 50.061)" fill="#f68521"/><ellipse cx="0.677" cy="0.69" rx="0.677" ry="0.69" transform="translate(34.585 50.113)" fill="#f68521"/><ellipse cx="0.677" cy="0.69" rx="0.677" ry="0.69" transform="translate(32.229 50.113)" fill="#f68521"/></g><circle cx="2.681" cy="2.681" r="2.681" transform="translate(139.343 63.758)" fill="#3c3b3c"/><circle cx="2.681" cy="2.681" r="2.681" transform="translate(129.321 63.784)" fill="#3c3b3c"/><circle cx="2.681" cy="2.681" r="2.681" transform="translate(319.361 63.758)" fill="#3c3b3c"/><circle cx="2.681" cy="2.681" r="2.681" transform="translate(310.406 63.771)" fill="#3c3b3c"/></g></svg>