<svg id="Layer_1" data-name="Layer 1" xmlns="http://www.w3.org/2000/svg" xmlns:xlink="http://www.w3.org/1999/xlink" viewBox="0 0 386 96.63"><defs><style>.cls-1{fill:none;}.cls-15,.cls-2{fill:#f28321;}.cls-3{font-size:10.39px;font-family:Lobster1.3;}.cls-18,.cls-3{fill:#3c3b3c;}.cls-4{letter-spacing:-0.01em;}.cls-5{letter-spacing:-0.01em;}.cls-6{letter-spacing:0em;}.cls-7{letter-spacing:0em;}.cls-8{letter-spacing:-0.01em;}.cls-9{clip-path:url(#clip-path);}.cls-10{fill:#02374b;}.cls-11{fill:#f68521;}.cls-12{fill:#0b3b50;}.cls-13{fill:#d8e0e3;}.cls-14{fill:#ffecda;}.cls-15{font-size:2.24px;font-family:Poppins-Light, Poppins Light;font-weight:300;}.cls-16{letter-spacing:-0.01em;}.cls-17{letter-spacing:0.01em;}</style><clipPath id="clip-path"><rect class="cls-1" x="81.29" y="32.18" width="30.76" height="32.27"/></clipPath></defs><title>Letterhead Modified</title><path class="cls-2" d="M122.51,48.24a7.31,7.31,0,0,1-2.68-.46,5.85,5.85,0,0,1-2-1.3,5.64,5.64,0,0,1-1.29-2,6.86,6.86,0,0,1-.45-2.53V33.46l.3-.3h3.33l.3.3v8.47a4.1,4.1,0,0,0,.18,1.27,2.52,2.52,0,0,0,.49.9,2.08,2.08,0,0,0,.78.56,2.67,2.67,0,0,0,1.08.2,2.6,2.6,0,0,0,1.08-.2,2.09,2.09,0,0,0,.78-.55,2.62,2.62,0,0,0,.5-.9,4.1,4.1,0,0,0,.18-1.27V33.46l.3-.3h3.32l.3.3v8.48a6.86,6.86,0,0,1-.45,2.53,5.78,5.78,0,0,1-1.29,2,6,6,0,0,1-2,1.3A7.31,7.31,0,0,1,122.51,48.24Z"/><path class="cls-2" d="M122.51,45.16a3,3,0,0,0,1.2-.22,2.48,2.48,0,0,0,.89-.63,2.82,2.82,0,0,0,.55-1,4.37,4.37,0,0,0,.2-1.36V33.46h3.32v8.48a6.51,6.51,0,0,1-.43,2.42,5.31,5.31,0,0,1-1.22,1.9,5.48,5.48,0,0,1-1.94,1.24,7.56,7.56,0,0,1-5.14,0A5.39,5.39,0,0,1,118,46.26a5.31,5.31,0,0,1-1.22-1.9,6.72,6.72,0,0,1-.43-2.42V33.46h3.33v8.47a4.38,4.38,0,0,0,.19,1.36,2.84,2.84,0,0,0,.56,1,2.39,2.39,0,0,0,.89.64A3,3,0,0,0,122.51,45.16Z"/><path class="cls-2" d="M142.05,48.09a1.62,1.62,0,0,1-1.39-.66l-6.17-7.8c0,.16,0,.32,0,.48v7.68l-.3.3h-2.93l-.3-.3V33.46l.3-.3H133a2.36,2.36,0,0,1,.4,0,1,1,0,0,1,.35.1,1,1,0,0,1,.31.2,2.13,2.13,0,0,1,.27.3l6.21,7.84c0-.2,0-.4,0-.58V33.46l.3-.3h2.93l.3.3V47.79l-.3.3Z"/><path class="cls-2" d="M143.78,33.46V47.79h-1.73a1.35,1.35,0,0,1-.64-.13,1.51,1.51,0,0,1-.52-.42l-6.76-8.55c0,.25,0,.5.05.74s0,.47,0,.68v7.68h-2.93V33.46H133a1.94,1.94,0,0,1,.36,0,.77.77,0,0,1,.27.07,1,1,0,0,1,.23.15l.24.27,6.82,8.6a7.41,7.41,0,0,1-.07-.8c0-.26,0-.5,0-.73V33.46Z"/><polygon class="cls-2" points="146.56 48.09 146.25 47.79 146.25 33.45 146.56 33.16 149.9 33.16 150.2 33.45 150.2 47.79 149.9 48.09 146.56 48.09"/><path class="cls-2" d="M149.9,47.79h-3.35V33.46h3.35Z"/><polygon class="cls-2" points="155.62 48.09 155.31 47.79 155.31 36.39 151.58 36.39 151.28 36.09 151.28 33.45 151.58 33.16 162.97 33.16 163.27 33.45 163.27 36.09 162.97 36.39 159.24 36.39 159.24 47.79 158.94 48.09 155.62 48.09"/><path class="cls-2" d="M163,36.09h-4v11.7h-3.33V36.09h-4V33.46H163Z"/><polygon class="cls-2" points="164.66 48.09 164.35 47.79 164.35 33.45 164.66 33.16 173.88 33.16 174.18 33.45 174.18 36.01 173.88 36.31 168.3 36.31 168.3 39.06 172.5 39.06 172.81 39.36 172.81 41.82 172.5 42.12 168.3 42.12 168.3 44.93 173.88 44.93 174.18 45.23 174.18 47.79 173.88 48.09 164.66 48.09"/><path class="cls-2" d="M168,36v3.35h4.51v2.46H168v3.41h5.88v2.56h-9.22V33.46h9.22V36Z"/><path class="cls-2" d="M175.93,48.09l-.3-.3V33.46l.3-.3h5.57a8.45,8.45,0,0,1,3.15.56,7.29,7.29,0,0,1,2.45,1.56,7,7,0,0,1,1.57,2.37,7.78,7.78,0,0,1,.56,3,7.86,7.86,0,0,1-.56,3,6.91,6.91,0,0,1-4,3.93,8.65,8.65,0,0,1-3.15.56Zm5.57-3.16a4.12,4.12,0,0,0,1.58-.29,3.23,3.23,0,0,0,1.15-.84,3.83,3.83,0,0,0,.74-1.35,6.57,6.57,0,0,0,0-3.66,4,4,0,0,0-.73-1.35,3.21,3.21,0,0,0-1.16-.83,3.94,3.94,0,0,0-1.58-.3h-1.93v8.62Z"/><path class="cls-2" d="M188.93,40.62a7.62,7.62,0,0,1-.53,2.86,6.73,6.73,0,0,1-1.51,2.28,6.84,6.84,0,0,1-2.35,1.49,8.22,8.22,0,0,1-3,.54h-5.57V33.46h5.57a8.22,8.22,0,0,1,3,.54,7,7,0,0,1,2.35,1.49,6.69,6.69,0,0,1,1.51,2.27A7.62,7.62,0,0,1,188.93,40.62Zm-3.4,0a6.06,6.06,0,0,0-.28-1.92,3.9,3.9,0,0,0-.79-1.45,3.43,3.43,0,0,0-1.26-.92,4.37,4.37,0,0,0-1.7-.32h-2.23v9.22h2.23a4.37,4.37,0,0,0,1.7-.32,3.41,3.41,0,0,0,1.26-.91,4,4,0,0,0,.79-1.46A6.06,6.06,0,0,0,185.53,40.62Z"/><polygon class="cls-2" points="197.79 48.09 197.49 47.79 197.49 36.39 193.75 36.39 193.45 36.09 193.45 33.45 193.75 33.16 205.14 33.16 205.44 33.45 205.44 36.09 205.14 36.39 201.41 36.39 201.41 47.79 201.11 48.09 197.79 48.09"/><path class="cls-2" d="M205.14,36.09h-4v11.7h-3.32V36.09h-4V33.46h11.39Z"/><path class="cls-2" d="M215.54,48.09a1.59,1.59,0,0,1-1.46-.78l-2.38-4.16a.73.73,0,0,0-.27-.28.8.8,0,0,0-.43-.08h-.55v5l-.3.3h-3.32l-.3-.3V33.46l.3-.3h4.66a9.85,9.85,0,0,1,2.73.33,5.28,5.28,0,0,1,1.9.94,3.73,3.73,0,0,1,1.1,1.47,4.84,4.84,0,0,1,.33,1.8,4.62,4.62,0,0,1-.2,1.41,4.23,4.23,0,0,1-.59,1.23,4.81,4.81,0,0,1-1,1,5.56,5.56,0,0,1-.79.49l.18.14a3,3,0,0,1,.56.66l3.06,5-.26.46Zm-4-8.2a3.2,3.2,0,0,0,1-.15,1.77,1.77,0,0,0,.67-.41,1.5,1.5,0,0,0,.38-.59,2.56,2.56,0,0,0,.12-.79,1.57,1.57,0,0,0-.51-1.25,2.65,2.65,0,0,0-1.71-.46h-1v3.65Z"/><path class="cls-2" d="M218.55,47.79h-3a1.27,1.27,0,0,1-1.2-.63L212,43a1.07,1.07,0,0,0-.37-.39,1.21,1.21,0,0,0-.59-.12h-.85v5.3h-3.32V33.46h4.66a9.74,9.74,0,0,1,2.65.31,5.09,5.09,0,0,1,1.79.9,3.36,3.36,0,0,1,1,1.34,4.49,4.49,0,0,1,.31,1.69,4.68,4.68,0,0,1-.18,1.32,4.21,4.21,0,0,1-.55,1.15,4.7,4.7,0,0,1-.9.94,5.08,5.08,0,0,1-1.24.68,2.76,2.76,0,0,1,.61.42,2.68,2.68,0,0,1,.51.59Zm-7.06-7.6a3.24,3.24,0,0,0,1.15-.17,2,2,0,0,0,.79-.48,1.81,1.81,0,0,0,.44-.71A2.75,2.75,0,0,0,214,38a1.83,1.83,0,0,0-.62-1.47,2.82,2.82,0,0,0-1.9-.54h-1.34v4.25Z"/><path class="cls-2" d="M225.6,48.24a7.37,7.37,0,0,1-2.69-.46,6,6,0,0,1-2-1.3,5.78,5.78,0,0,1-1.29-2,7.07,7.07,0,0,1-.44-2.53V33.46l.3-.3h3.32l.3.3v8.47a4.1,4.1,0,0,0,.18,1.27,2.39,2.39,0,0,0,.5.9,2,2,0,0,0,.78.56,3,3,0,0,0,2.15,0,2.12,2.12,0,0,0,.79-.55,2.6,2.6,0,0,0,.49-.9,4.1,4.1,0,0,0,.18-1.27V33.46l.3-.3h3.32l.3.3v8.48a6.86,6.86,0,0,1-.45,2.53,5.64,5.64,0,0,1-1.29,2,6,6,0,0,1-2,1.3A7.3,7.3,0,0,1,225.6,48.24Z"/><path class="cls-2" d="M225.6,45.16a3,3,0,0,0,1.19-.22,2.48,2.48,0,0,0,.89-.63,3,3,0,0,0,.56-1,4.7,4.7,0,0,0,.19-1.36V33.46h3.32v8.48a6.72,6.72,0,0,1-.42,2.42,5.38,5.38,0,0,1-3.17,3.14,6.91,6.91,0,0,1-2.56.45A7,7,0,0,1,223,47.5a5.48,5.48,0,0,1-1.94-1.24,5.31,5.31,0,0,1-1.22-1.9,6.72,6.72,0,0,1-.42-2.42V33.46h3.32v8.47a4.7,4.7,0,0,0,.19,1.36,3,3,0,0,0,.56,1,2.39,2.39,0,0,0,.89.64A3,3,0,0,0,225.6,45.16Z"/><path class="cls-2" d="M238.16,48.24a6.91,6.91,0,0,1-1.42-.14,8.31,8.31,0,0,1-1.4-.4,7.76,7.76,0,0,1-1.26-.62,5.13,5.13,0,0,1-1.05-.81l0-.37,1-1.56a1.35,1.35,0,0,1,.41-.38,1.16,1.16,0,0,1,.57-.15,1.43,1.43,0,0,1,.75.23l.68.41a5.24,5.24,0,0,0,.82.39,3,3,0,0,0,1.06.17,2,2,0,0,0,1.22-.33,1.24,1.24,0,0,0,.38-1,.86.86,0,0,0-.2-.62,1.75,1.75,0,0,0-.62-.45,6.4,6.4,0,0,0-1-.35c-.39-.1-.78-.22-1.18-.35a8,8,0,0,1-1.22-.49,3.93,3.93,0,0,1-1.1-.8,3.65,3.65,0,0,1-.78-1.23,4.81,4.81,0,0,1-.3-1.8,4.4,4.4,0,0,1,1.37-3.16,5,5,0,0,1,1.64-1,6.13,6.13,0,0,1,2.21-.38,7.31,7.31,0,0,1,1.33.11,7,7,0,0,1,1.24.31,6.06,6.06,0,0,1,1.09.51,5,5,0,0,1,.93.67l.06.36-.83,1.55a1.38,1.38,0,0,1-.4.45.92.92,0,0,1-.59.18,1.32,1.32,0,0,1-.63-.18l-.59-.32a4.6,4.6,0,0,0-.7-.3,2.89,2.89,0,0,0-.87-.13,1.79,1.79,0,0,0-1.2.33,1.06,1.06,0,0,0-.35.85.69.69,0,0,0,.19.51,2.18,2.18,0,0,0,.63.43,8,8,0,0,0,1,.36l1.19.39a11.36,11.36,0,0,1,1.2.51,4,4,0,0,1,1.1.78,3.83,3.83,0,0,1,.79,1.17,4.16,4.16,0,0,1,.3,1.65,5.31,5.31,0,0,1-.36,2,4.82,4.82,0,0,1-1.07,1.62,5,5,0,0,1-1.72,1.08A6.49,6.49,0,0,1,238.16,48.24Z"/><path class="cls-2" d="M242.27,36.37a1.35,1.35,0,0,1-.31.35.7.7,0,0,1-.42.12,1.11,1.11,0,0,1-.49-.14l-.59-.32a4.34,4.34,0,0,0-.75-.32,2.85,2.85,0,0,0-1-.15,2.08,2.08,0,0,0-1.39.4,1.36,1.36,0,0,0-.46,1.08,1,1,0,0,0,.27.72,2.52,2.52,0,0,0,.73.49,7.86,7.86,0,0,0,1,.38c.38.11.78.24,1.18.38a10,10,0,0,1,1.17.5,3.72,3.72,0,0,1,1,.73,3.44,3.44,0,0,1,.73,1.07,4,4,0,0,1,.27,1.53,4.92,4.92,0,0,1-.34,1.86,4.29,4.29,0,0,1-1,1.51,4.72,4.72,0,0,1-1.61,1,6.19,6.19,0,0,1-2.18.37,7.06,7.06,0,0,1-1.36-.14,7.74,7.74,0,0,1-1.35-.39,8.13,8.13,0,0,1-1.22-.6,5.18,5.18,0,0,1-1-.76l1-1.56a1.05,1.05,0,0,1,.31-.28.88.88,0,0,1,.42-.11,1.09,1.09,0,0,1,.6.19l.67.41a5.85,5.85,0,0,0,.87.41,3.19,3.19,0,0,0,1.17.19,2.16,2.16,0,0,0,1.4-.4,1.51,1.51,0,0,0,.5-1.26,1.21,1.21,0,0,0-.27-.82,2.19,2.19,0,0,0-.72-.52,7.07,7.07,0,0,0-1-.37c-.38-.1-.77-.22-1.17-.34a8.46,8.46,0,0,1-1.17-.48,3.67,3.67,0,0,1-1-.73,3.41,3.41,0,0,1-.72-1.15,4.34,4.34,0,0,1-.28-1.68,4.17,4.17,0,0,1,.32-1.58,4.11,4.11,0,0,1,1-1.36,4.69,4.69,0,0,1,1.54-1,5.71,5.71,0,0,1,2.1-.36,7.63,7.63,0,0,1,1.28.1,6.49,6.49,0,0,1,1.19.31,5.81,5.81,0,0,1,1,.48,5.34,5.34,0,0,1,.88.63Z"/><polygon class="cls-2" points="248.19 48.09 247.89 47.79 247.89 36.39 244.16 36.39 243.86 36.09 243.86 33.45 244.16 33.16 255.55 33.16 255.85 33.45 255.85 36.09 255.55 36.39 251.82 36.39 251.82 47.79 251.52 48.09 248.19 48.09"/><path class="cls-2" d="M255.55,36.09h-4v11.7h-3.33V36.09h-4V33.46h11.39Z"/><text class="cls-3" transform="translate(131.66 62.26)"><tspan class="cls-4">C</tspan><tspan x="5.91" y="0">on</tspan><tspan class="cls-5" x="17.38" y="0">c</tspan><tspan x="21.97" y="0">e</tspan><tspan class="cls-6" x="27.17" y="0">r</tspan><tspan x="30.61" y="0">n of Uni</tspan><tspan class="cls-5" x="64.43" y="0">t</tspan><tspan class="cls-7" x="67.81" y="0">ed G</tspan><tspan class="cls-8" x="87.78" y="0">r</tspan><tspan x="91.07" y="0">oup</tspan></text><g class="cls-9"><path class="cls-10" d="M111.37,49.76c0,1.66,0,3.31,0,5v8.71a.66.66,0,0,1-.65.67H82.29c-.44,0-.64-.18-.64-.6V50.06h0A8.09,8.09,0,0,0,82,51.89a15.79,15.79,0,0,0,3.12,6.44,13.33,13.33,0,0,0,6.26,4.15,17.28,17.28,0,0,0,8.7.69,9.14,9.14,0,0,0,2-.53,14.82,14.82,0,0,0,3.26-1.37A13.85,13.85,0,0,0,109,58.05l0,0,.14-.18a15.85,15.85,0,0,0,1.64-2.4c-.06,0-.08,0-.08,0a1.56,1.56,0,0,0-.16.2,9.06,9.06,0,0,1-4.75,3.45,13.11,13.11,0,0,1-9.79-.85,8.5,8.5,0,0,1-4.36-5,11.33,11.33,0,0,1-.44-3.47c-.08-2.3-.06-4.61,0-6.91a5.5,5.5,0,0,0-3.16-5.37A8.73,8.73,0,0,0,85,36.7c-.17,0-.17.06-.17.19V39a10.22,10.22,0,0,0-3.18-.73c0-1.63,0-3.25,0-4.87a.48.48,0,0,1,.11-.32.57.57,0,0,1,.47-.22h28.5a.68.68,0,0,1,.67.68h0c0,1.35,0,2.7,0,4a8.06,8.06,0,0,0-3.27.72c0-.46,0-.92,0-1.38,0-.18,0-.22-.21-.21a8.43,8.43,0,0,0-1,.1,6.52,6.52,0,0,0-3.88,2A6,6,0,0,0,101.31,43c0,3.3,0,6.61,0,9.91a12.41,12.41,0,0,1-.19,2.2,2.9,2.9,0,0,1-.83,1.86c-.09.08,0,.05.06.06h.23a.15.15,0,0,0,.07,0,10.68,10.68,0,0,0,5.72-.61,7.77,7.77,0,0,0,4.36-4.49A16.46,16.46,0,0,0,111.37,49.76Z"/><path class="cls-11" d="M108.1,38.28a8.06,8.06,0,0,1,3.27-.72l0,4.6,0,6.73a6.25,6.25,0,0,1-.06.87,16.46,16.46,0,0,1-.63,2.18,7.77,7.77,0,0,1-4.36,4.49,10.68,10.68,0,0,1-5.72.61.15.15,0,0,1-.07,0,8,8,0,0,0,2.8-.7,7.63,7.63,0,0,0,3.93-4.25,9.86,9.86,0,0,0,.83-4c0-2,0-3.91,0-5.86,0-1.3,0-2.59,0-3.88Z"/><path class="cls-12" d="M81.65,49.27a3,3,0,0,1,0,.79h0Z"/><path class="cls-13" d="M84.84,39V36.89c0-.13,0-.21.17-.19a8.73,8.73,0,0,1,3.09.81,5.46,5.46,0,0,1,3.16,5.21c0,2.4-.06,4.81,0,7.22a11,11,0,0,0,.44,3.32,8.5,8.5,0,0,0,4.36,5,13.11,13.11,0,0,0,9.79.85,9.06,9.06,0,0,0,4.75-3.45,1.56,1.56,0,0,1,.16-.2s0,0,.08,0a15.85,15.85,0,0,1-1.64,2.4c-.17,0-.14.08-.14.18l0,0c-.11,0-.16.06-.23.13-.22.2-.42.41-.65.6a12.91,12.91,0,0,1-2.79,1.77,10.92,10.92,0,0,1-3.91,1,12.44,12.44,0,0,1-2.92-.13A15,15,0,0,1,94.11,60a11.54,11.54,0,0,1-3.78-3.2A11,11,0,0,1,88.07,50c0-2.25,0-4.49,0-6.73a3.11,3.11,0,0,0-.1-.61,5.11,5.11,0,0,0-1.06-2.15A5.4,5.4,0,0,0,84.84,39Z"/><path class="cls-14" d="M84.84,39a5.4,5.4,0,0,1,2,1.49,5.11,5.11,0,0,1,1.06,2.15,3.11,3.11,0,0,1,.1.61c.06,2.24,0,4.48,0,6.73a11,11,0,0,0,2.26,6.76A11.54,11.54,0,0,0,94.11,60a15,15,0,0,0,4.41,1.44,12.44,12.44,0,0,0,2.92.13,10.92,10.92,0,0,0,3.91-1,12.91,12.91,0,0,0,2.79-1.77c.23-.19.43-.4.65-.6.07-.07.12-.16.23-.13a13.85,13.85,0,0,1-3.73,3.22A14.82,14.82,0,0,1,102,62.64c-.54.07-1.07.22-1.61.29a14.7,14.7,0,0,1-7.25-.86A14.21,14.21,0,0,1,88,58.88a10.76,10.76,0,0,1-3.14-6.07,5.39,5.39,0,0,1-.06-.8q0-6.42,0-12.85S84.84,39.06,84.84,39Z"/><path class="cls-13" d="M108.1,38.28v.06a.85.85,0,0,0-.17.06,5.65,5.65,0,0,0-2.46,2.38,5,5,0,0,0-.74,2.37c0,2.46,0,4.92-.07,7.37,0,.46,0,.92,0,1.39A7.68,7.68,0,0,1,104,54.4a4.13,4.13,0,0,1-2.73,2.41,9,9,0,0,0-.93.19s-.15,0-.06-.06a3.14,3.14,0,0,0,.86-2,13.14,13.14,0,0,0,.16-2.35c0-3.2,0-6.39,0-9.59A6,6,0,0,1,103,38.76a6.52,6.52,0,0,1,3.88-2,8.43,8.43,0,0,1,1-.1c.16,0,.21,0,.21.21C108.09,37.36,108.1,37.82,108.1,38.28Z"/><path class="cls-14" d="M100.36,57a9,9,0,0,1,.93-.19A4.13,4.13,0,0,0,104,54.4a7.68,7.68,0,0,0,.59-2.49c0-.47,0-.93,0-1.39.1-2.45,0-4.91.07-7.37a5,5,0,0,1,.74-2.37,5.65,5.65,0,0,1,2.46-2.38.85.85,0,0,1,.17-.06c0,1.29,0,2.58,0,3.88,0,2,0,3.9,0,5.86a9.86,9.86,0,0,1-.83,4,7.63,7.63,0,0,1-3.93,4.25,8,8,0,0,1-2.8.7Z"/><path class="cls-14" d="M109.06,58c0-.1,0-.23.14-.18Z"/><path class="cls-11" d="M81.65,38.24a10.22,10.22,0,0,1,3.18.73v0c0,.05,0,.1,0,.15q0,6.44,0,12.85a5.39,5.39,0,0,0,.06.8A10.76,10.76,0,0,0,88,58.88a14.21,14.21,0,0,0,5.13,3.19,14.7,14.7,0,0,0,7.25.86c.54-.07,1.07-.22,1.61-.29a9.14,9.14,0,0,1-2,.53,17.28,17.28,0,0,1-8.7-.69,13.33,13.33,0,0,1-6.26-4.15A15.79,15.79,0,0,1,82,51.89a8.74,8.74,0,0,1-.3-1.83c0-.26,0-.53,0-.79v-11Z"/><path class="cls-11" d="M83,68.05a.51.51,0,0,0,.25,0,.43.43,0,0,0,.19-.13.78.78,0,0,0,.12-.22,1,1,0,0,0,0-.3V65.5h.71v1.85a1.51,1.51,0,0,1-.09.53,1.15,1.15,0,0,1-.26.41,1,1,0,0,1-.41.27,1.42,1.42,0,0,1-.55.1,1.43,1.43,0,0,1-.56-.1,1,1,0,0,1-.41-.27,1.15,1.15,0,0,1-.26-.41,1.51,1.51,0,0,1-.09-.53V65.5h.71v1.85a.85.85,0,0,0,0,.29.84.84,0,0,0,.12.23.43.43,0,0,0,.19.13A.53.53,0,0,0,83,68.05Z"/><path class="cls-2" d="M83,68.7a1.48,1.48,0,0,1-.57-.1,1.15,1.15,0,0,1-.43-.28,1.12,1.12,0,0,1-.27-.43,1.53,1.53,0,0,1-.09-.54V65.46h.79v1.89a.79.79,0,0,0,0,.28.7.7,0,0,0,.11.21.59.59,0,0,0,.18.13A.86.86,0,0,0,83,68a.93.93,0,0,0,.24,0,.7.7,0,0,0,.17-.13.53.53,0,0,0,.11-.21.79.79,0,0,0,0-.28V65.46h.8v1.89a1.53,1.53,0,0,1-.1.54,1.12,1.12,0,0,1-.27.43,1.15,1.15,0,0,1-.43.28A1.47,1.47,0,0,1,83,68.7Zm-1.28-3.15v1.8a1.36,1.36,0,0,0,.09.51,1.09,1.09,0,0,0,.25.4,1.11,1.11,0,0,0,.4.26,1.48,1.48,0,0,0,1.07,0,1.11,1.11,0,0,0,.4-.26,1.09,1.09,0,0,0,.25-.4,1.36,1.36,0,0,0,.09-.51v-1.8H83.6v1.8a1,1,0,0,1,0,.31.58.58,0,0,1-.13.23.43.43,0,0,1-.2.15.6.6,0,0,1-.27.06.61.61,0,0,1-.28-.06.43.43,0,0,1-.2-.15.58.58,0,0,1-.13-.23,1,1,0,0,1,0-.31v-1.8Z"/><path class="cls-11" d="M87.51,65.5v3.12h-.37a.3.3,0,0,1-.14,0,.26.26,0,0,1-.11-.1l-1.45-1.86a1,1,0,0,1,0,.17.71.71,0,0,1,0,.14v1.67h-.63V65.5h.51l0,0,0,.06,1.46,1.87c0-.06,0-.12,0-.17V65.5Z"/><path class="cls-2" d="M87.55,68.67h-.41a.38.38,0,0,1-.16,0,.4.4,0,0,1-.12-.11l-1.37-1.75v1.89h-.71V65.46h.5l.07,0,.06,0,0,.06,1.37,1.76V65.46h.71ZM85.39,66.5l1.53,2a.35.35,0,0,0,.1.08l.12,0h.33v-3h-.55v1.61a.81.81,0,0,0,0,.15.91.91,0,0,0,0,.17l0,.15-1.55-2,0,0,0,0h-.45v3h.54V66.81a.86.86,0,0,0,0-.16Z"/><path class="cls-11" d="M88.82,68.62H88.1V65.5h.72Z"/><path class="cls-2" d="M88.86,68.67h-.8V65.46h.8Zm-.72-.09h.63v-3h-.63Z"/><path class="cls-11" d="M91.61,66.08h-.86v2.54H90V66.08h-.86V65.5h2.43Z"/><path class="cls-2" d="M90.79,68.67H90V66.12h-.87v-.66h2.53v.66h-.87Zm-.71-.09h.63V66h.86v-.49H89.22V66h.86Z"/><path class="cls-11" d="M92.69,66.06v.73h1v.53h-1v.75H94v.55H92V65.5h2v.56Z"/><path class="cls-2" d="M94,68.67H91.93V65.46H94v.64H92.73v.65h1v.62h-1V68H94Zm-2-.09h1.89v-.47H92.65v-.83h1v-.45h-1V66h1.26v-.47H92Z"/><path class="cls-11" d="M97.17,67.06a1.81,1.81,0,0,1-.11.63,1.51,1.51,0,0,1-.33.49,1.45,1.45,0,0,1-.5.33,1.71,1.71,0,0,1-.65.11H94.39V65.5h1.19a1.71,1.71,0,0,1,.65.12,1.45,1.45,0,0,1,.5.33,1.51,1.51,0,0,1,.33.49A1.8,1.8,0,0,1,97.17,67.06Zm-.73,0a1.31,1.31,0,0,0-.06-.41.82.82,0,0,0-.17-.32.68.68,0,0,0-.27-.2.8.8,0,0,0-.36-.07H95.1v2h.48a1,1,0,0,0,.36-.07.68.68,0,0,0,.27-.2.82.82,0,0,0,.17-.32A1.33,1.33,0,0,0,96.44,67.06Z"/><path class="cls-2" d="M95.58,68.67H94.35V65.46h1.23a1.81,1.81,0,0,1,.67.12,1.52,1.52,0,0,1,.51.34,1.36,1.36,0,0,1,.33.51,1.61,1.61,0,0,1,.12.63,1.66,1.66,0,0,1-.12.64,1.36,1.36,0,0,1-.33.51,1.39,1.39,0,0,1-.51.34A1.81,1.81,0,0,1,95.58,68.67Zm-1.15-.09h1.15a1.87,1.87,0,0,0,.64-.11,1.44,1.44,0,0,0,.48-.32,1.35,1.35,0,0,0,.32-.48,1.72,1.72,0,0,0,0-1.21A1.35,1.35,0,0,0,96.7,66a1.44,1.44,0,0,0-.48-.32,1.87,1.87,0,0,0-.64-.11H94.43Zm1.15-.47h-.52V66h.52a.92.92,0,0,1,.38.07.86.86,0,0,1,.29.21,1,1,0,0,1,.17.33,1.49,1.49,0,0,1,.06.43,1.51,1.51,0,0,1-.06.44,1,1,0,0,1-.17.33A.86.86,0,0,1,96,68,.92.92,0,0,1,95.58,68.11ZM95.15,68h.43a1,1,0,0,0,.35-.06.67.67,0,0,0,.25-.19.72.72,0,0,0,.16-.3,1.31,1.31,0,0,0,.06-.41,1.25,1.25,0,0,0-.06-.4.72.72,0,0,0-.16-.3.67.67,0,0,0-.25-.19,1,1,0,0,0-.35-.07h-.43Z"/><path class="cls-11" d="M100.64,66.08h-.86v2.54h-.71V66.08H98.2V65.5h2.44Z"/><path class="cls-2" d="M99.82,68.67H99V66.12h-.86v-.66h2.52v.66h-.86Zm-.71-.09h.62V66h.87v-.49H98.24V66h.87Z"/><path class="cls-11" d="M103.51,68.62h-.64a.27.27,0,0,1-.26-.13l-.51-.91a.15.15,0,0,0-.08-.08.23.23,0,0,0-.13,0h-.18v1.15H101V65.5h1a2.34,2.34,0,0,1,.57.07,1.24,1.24,0,0,1,.38.2.66.66,0,0,1,.21.29.9.9,0,0,1,.07.37.92.92,0,0,1,0,.29.64.64,0,0,1-.12.25.89.89,0,0,1-.19.2,1.1,1.1,0,0,1-.26.15.51.51,0,0,1,.13.09l.11.13ZM102,67a.66.66,0,0,0,.25,0,.44.44,0,0,0,.16-.1.34.34,0,0,0,.1-.16.54.54,0,0,0,0-.19.44.44,0,0,0-.13-.32.61.61,0,0,0-.41-.11h-.29V67Z"/><path class="cls-2" d="M103.58,68.67h-.71a.33.33,0,0,1-.3-.16l-.51-.91-.06-.07-.11,0h-.14v1.16H101V65.46h1a2.42,2.42,0,0,1,.58.07,1.36,1.36,0,0,1,.4.2.77.77,0,0,1,.22.32.92.92,0,0,1,.07.38,1,1,0,0,1,0,.3,1.23,1.23,0,0,1-.12.26,1,1,0,0,1-.2.21,1.37,1.37,0,0,1-.2.13l.07,0a.53.53,0,0,1,.11.14Zm-1.91-1.24h.22a.31.31,0,0,1,.15,0,.18.18,0,0,1,.09.1l.52.91a.23.23,0,0,0,.22.11h.56l-.61-1-.1-.12-.12-.08-.09,0,.09,0a1.59,1.59,0,0,0,.26-.14,1.12,1.12,0,0,0,.18-.2.66.66,0,0,0,.11-.24.77.77,0,0,0,0-.27,1,1,0,0,0-.06-.35.83.83,0,0,0-.21-.28.91.91,0,0,0-.37-.18,1.79,1.79,0,0,0-.55-.07h-1v3h.63ZM102,67h-.33V66H102a.65.65,0,0,1,.43.13.43.43,0,0,1,.15.35.71.71,0,0,1,0,.21.45.45,0,0,1-.11.17.42.42,0,0,1-.18.11A.68.68,0,0,1,102,67Zm-.25-.08H102a.53.53,0,0,0,.23,0,.38.38,0,0,0,.15-.09.42.42,0,0,0,.09-.14.5.5,0,0,0,0-.18.36.36,0,0,0-.11-.29.58.58,0,0,0-.38-.1h-.25Z"/><path class="cls-11" d="M105,68.05a.51.51,0,0,0,.25,0,.43.43,0,0,0,.19-.13.59.59,0,0,0,.12-.22,1,1,0,0,0,0-.3V65.5h.71v1.85a1.51,1.51,0,0,1-.09.53,1.15,1.15,0,0,1-.26.41,1,1,0,0,1-.41.27,1.42,1.42,0,0,1-.55.1,1.35,1.35,0,0,1-.55-.1,1,1,0,0,1-.42-.27,1.15,1.15,0,0,1-.26-.41,1.51,1.51,0,0,1-.09-.53V65.5h.71v1.85a.85.85,0,0,0,0,.29.84.84,0,0,0,.12.23.5.5,0,0,0,.19.13A.55.55,0,0,0,105,68.05Z"/><path class="cls-2" d="M105,68.7a1.48,1.48,0,0,1-.57-.1,1.15,1.15,0,0,1-.43-.28,1.12,1.12,0,0,1-.27-.43,1.53,1.53,0,0,1-.09-.54V65.46h.79v1.89a1.11,1.11,0,0,0,0,.28.7.7,0,0,0,.11.21.59.59,0,0,0,.18.13.74.74,0,0,0,.48,0,.55.55,0,0,0,.17-.13.53.53,0,0,0,.11-.21.79.79,0,0,0,0-.28V65.46h.8v1.89a1.33,1.33,0,0,1-.1.54,1.12,1.12,0,0,1-.27.43,1.15,1.15,0,0,1-.43.28A1.47,1.47,0,0,1,105,68.7Zm-1.28-3.15v1.8a1.36,1.36,0,0,0,.09.51,1.09,1.09,0,0,0,.25.4,1.11,1.11,0,0,0,.4.26,1.48,1.48,0,0,0,1.07,0,1.11,1.11,0,0,0,.4-.26,1,1,0,0,0,.25-.4,1.36,1.36,0,0,0,.09-.51v-1.8h-.62v1.8a1,1,0,0,1,0,.31.58.58,0,0,1-.13.23.43.43,0,0,1-.2.15.6.6,0,0,1-.27.06.64.64,0,0,1-.28-.06.43.43,0,0,1-.2-.15.58.58,0,0,1-.13-.23,1,1,0,0,1,0-.31v-1.8Z"/><path class="cls-11" d="M108.59,66.14l-.07.08-.09,0a.19.19,0,0,1-.1,0l-.13-.07-.16-.07a.66.66,0,0,0-.21,0,.45.45,0,0,0-.3.09.29.29,0,0,0-.09.23.28.28,0,0,0,0,.16.62.62,0,0,0,.16.1l.22.09.25.08.25.11a.69.69,0,0,1,.22.16.79.79,0,0,1,.16.23,1,1,0,0,1,0,.33,1.1,1.1,0,0,1-.07.41,1.15,1.15,0,0,1-.21.33,1,1,0,0,1-.35.22,1.34,1.34,0,0,1-.46.08,1.53,1.53,0,0,1-.3,0,1.31,1.31,0,0,1-.28-.09,1.05,1.05,0,0,1-.26-.13,1,1,0,0,1-.22-.16l.21-.34s0,0,.07-.06a.16.16,0,0,1,.09,0,.38.38,0,0,1,.13,0l.14.09a.66.66,0,0,0,.19.09.62.62,0,0,0,.25,0A.45.45,0,0,0,108,68a.34.34,0,0,0,.1-.28.23.23,0,0,0,0-.17.4.4,0,0,0-.16-.12l-.22-.08-.25-.07-.25-.11A.82.82,0,0,1,107,67a.76.76,0,0,1-.15-.25.93.93,0,0,1-.06-.36.87.87,0,0,1,.07-.35.84.84,0,0,1,.2-.29.93.93,0,0,1,.33-.21,1.29,1.29,0,0,1,.45-.08l.28,0,.25.07.23.1a.86.86,0,0,1,.18.14Z"/><path class="cls-2" d="M107.71,68.7a1.53,1.53,0,0,1-.3,0,1.49,1.49,0,0,1-.3-.09,1.66,1.66,0,0,1-.27-.13,1.84,1.84,0,0,1-.22-.17l0,0,.23-.36a.3.3,0,0,1,.08-.08.25.25,0,0,1,.26,0l.14.09.18.08a.61.61,0,0,0,.24,0A.36.36,0,0,0,108,68a.28.28,0,0,0,.09-.24.2.2,0,0,0,0-.15.39.39,0,0,0-.14-.1l-.21-.08-.25-.07-.26-.11A.91.91,0,0,1,107,67a1,1,0,0,1-.16-.26,1,1,0,0,1-.06-.38.89.89,0,0,1,.07-.36.84.84,0,0,1,.22-.31.91.91,0,0,1,.34-.22,1.11,1.11,0,0,1,.46-.08l.28,0,.27.07.23.11a1.33,1.33,0,0,1,.19.14l0,0-.19.37a.24.24,0,0,1-.08.09.21.21,0,0,1-.23,0l-.13-.07-.16-.07a.54.54,0,0,0-.19,0,.41.41,0,0,0-.27.08.26.26,0,0,0-.08.2.17.17,0,0,0,0,.13.56.56,0,0,0,.14.1l.21.08.25.08.26.11a.76.76,0,0,1,.23.17.67.67,0,0,1,.16.24.78.78,0,0,1,.07.35,1.26,1.26,0,0,1-.08.43,1,1,0,0,1-.58.57A1.46,1.46,0,0,1,107.71,68.7Zm-1-.46a.86.86,0,0,0,.18.14,1.15,1.15,0,0,0,.25.12,1.52,1.52,0,0,0,.28.09,1.39,1.39,0,0,0,.74,0,.93.93,0,0,0,.33-.21,1,1,0,0,0,.2-.32,1,1,0,0,0,.07-.39.91.91,0,0,0-.05-.31.71.71,0,0,0-.15-.22.8.8,0,0,0-.21-.15l-.24-.11-.25-.08-.23-.09a.71.71,0,0,1-.17-.11.29.29,0,0,1-.07-.19.34.34,0,0,1,.12-.27.49.49,0,0,1,.32-.09.73.73,0,0,1,.22,0l.17.07.13.07a.12.12,0,0,0,.14,0,.17.17,0,0,0,.06-.06l.16-.31-.15-.11-.22-.1-.25-.07-.27,0a1.18,1.18,0,0,0-.43.08,1.16,1.16,0,0,0-.32.2.87.87,0,0,0-.19.28,1,1,0,0,0-.07.33.91.91,0,0,0,.06.35A.74.74,0,0,0,107,67a.65.65,0,0,0,.21.16l.25.1.24.07a1.23,1.23,0,0,1,.23.08.76.76,0,0,1,.17.13.32.32,0,0,1,.07.2.35.35,0,0,1-.13.31.47.47,0,0,1-.32.1.76.76,0,0,1-.27,0,1.11,1.11,0,0,1-.19-.09l-.15-.09a.15.15,0,0,0-.17,0,.1.1,0,0,0,0,0Z"/><path class="cls-11" d="M111.43,66.08h-.87v2.54h-.71V66.08H109V65.5h2.44Z"/><path class="cls-2" d="M110.61,68.67h-.8V66.12H109v-.66h2.52v.66h-.86Zm-.72-.09h.63V66h.87v-.49H109V66h.86Z"/><text class="cls-15" transform="translate(87.77 71.86) scale(0.98 1)"><tspan class="cls-16">T</tspan><tspan x="1.1" y="0">he Smile </tspan><tspan class="cls-17" x="9.55" y="0">M</tspan><tspan x="11.36" y="0">aker</tspan></text><ellipse class="cls-11" cx="86.36" cy="71.17" rx="0.52" ry="0.53"/><ellipse class="cls-11" cx="84.55" cy="71.17" rx="0.52" ry="0.53"/><ellipse class="cls-11" cx="108.38" cy="71.21" rx="0.52" ry="0.53"/><ellipse class="cls-11" cx="106.57" cy="71.21" rx="0.52" ry="0.53"/></g><circle class="cls-18" cx="127.95" cy="58.5" r="2.06"/><circle class="cls-18" cx="120.25" cy="58.52" r="2.06"/><circle class="cls-18" cx="250.57" cy="58.5" r="2.06"/><circle class="cls-18" cx="243.69" cy="58.51" r="2.06"/></svg>